G04 MADE WITH FRITZING*
G04 WWW.FRITZING.ORG*
G04 DOUBLE SIDED*
G04 HOLES PLATED*
G04 CONTOUR ON CENTER OF CONTOUR VECTOR*
%ASAXBY*%
%FSLAX23Y23*%
%MOIN*%
%OFA0B0*%
%SFA1.0B1.0*%
%ADD10C,0.008821*%
%ADD11C,0.008000*%
%ADD12R,0.001000X0.001000*%
%LNSILK0*%
G90*
G70*
G54D10*
X2569Y2508D02*
X2569Y2652D01*
D02*
X2569Y2652D02*
X2252Y2652D01*
D02*
X2252Y2652D02*
X2252Y2508D01*
G54D11*
D02*
X3708Y1800D02*
X3196Y1800D01*
D02*
X3708Y1800D02*
X3708Y1200D01*
D02*
X3196Y1200D02*
X3708Y1200D01*
D02*
X193Y1200D02*
X705Y1200D01*
D02*
X193Y1200D02*
X193Y1800D01*
D02*
X705Y1800D02*
X193Y1800D01*
G54D12*
X2249Y2511D02*
X2250Y2511D01*
X2570Y2511D02*
X2571Y2511D01*
X2247Y2510D02*
X2251Y2510D01*
X2569Y2510D02*
X2573Y2510D01*
X2245Y2509D02*
X2251Y2509D01*
X2569Y2509D02*
X2575Y2509D01*
X2243Y2508D02*
X2251Y2508D01*
X2569Y2508D02*
X2577Y2508D01*
X2241Y2507D02*
X2252Y2507D01*
X2568Y2507D02*
X2579Y2507D01*
X2239Y2506D02*
X2252Y2506D01*
X2568Y2506D02*
X2581Y2506D01*
X2237Y2505D02*
X2252Y2505D01*
X2568Y2505D02*
X2583Y2505D01*
X2235Y2504D02*
X2252Y2504D01*
X2567Y2504D02*
X2585Y2504D01*
X2233Y2503D02*
X2251Y2503D01*
X2569Y2503D02*
X2586Y2503D01*
X2232Y2502D02*
X2249Y2502D01*
X2571Y2502D02*
X2588Y2502D01*
X2230Y2501D02*
X2247Y2501D01*
X2573Y2501D02*
X2590Y2501D01*
X2228Y2500D02*
X2245Y2500D01*
X2575Y2500D02*
X2592Y2500D01*
X2226Y2499D02*
X2243Y2499D01*
X2577Y2499D02*
X2594Y2499D01*
X2225Y2498D02*
X2241Y2498D01*
X2579Y2498D02*
X2595Y2498D01*
X2223Y2497D02*
X2239Y2497D01*
X2581Y2497D02*
X2597Y2497D01*
X2221Y2496D02*
X2237Y2496D01*
X2583Y2496D02*
X2599Y2496D01*
X2220Y2495D02*
X2235Y2495D01*
X2584Y2495D02*
X2600Y2495D01*
X2218Y2494D02*
X2234Y2494D01*
X2586Y2494D02*
X2602Y2494D01*
X2216Y2493D02*
X2232Y2493D01*
X2588Y2493D02*
X2604Y2493D01*
X2215Y2492D02*
X2230Y2492D01*
X2590Y2492D02*
X2605Y2492D01*
X2213Y2491D02*
X2228Y2491D01*
X2591Y2491D02*
X2607Y2491D01*
X2212Y2490D02*
X2227Y2490D01*
X2593Y2490D02*
X2608Y2490D01*
X2210Y2489D02*
X2225Y2489D01*
X2595Y2489D02*
X2610Y2489D01*
X2208Y2488D02*
X2223Y2488D01*
X2597Y2488D02*
X2612Y2488D01*
X2207Y2487D02*
X2222Y2487D01*
X2598Y2487D02*
X2613Y2487D01*
X2205Y2486D02*
X2220Y2486D01*
X2600Y2486D02*
X2615Y2486D01*
X2204Y2485D02*
X2218Y2485D01*
X2602Y2485D02*
X2616Y2485D01*
X2202Y2484D02*
X2217Y2484D01*
X2603Y2484D02*
X2618Y2484D01*
X2201Y2483D02*
X2215Y2483D01*
X2605Y2483D02*
X2619Y2483D01*
X2199Y2482D02*
X2214Y2482D01*
X2606Y2482D02*
X2621Y2482D01*
X2198Y2481D02*
X2212Y2481D01*
X2608Y2481D02*
X2622Y2481D01*
X2197Y2480D02*
X2211Y2480D01*
X2609Y2480D02*
X2623Y2480D01*
X2195Y2479D02*
X2209Y2479D01*
X2611Y2479D02*
X2625Y2479D01*
X2194Y2478D02*
X2208Y2478D01*
X2612Y2478D02*
X2626Y2478D01*
X2192Y2477D02*
X2206Y2477D01*
X2614Y2477D02*
X2627Y2477D01*
X2191Y2476D02*
X2204Y2476D01*
X2615Y2476D02*
X2629Y2476D01*
X2190Y2475D02*
X2203Y2475D01*
X2617Y2475D02*
X2630Y2475D01*
X2188Y2474D02*
X2201Y2474D01*
X2618Y2474D02*
X2632Y2474D01*
X2187Y2473D02*
X2200Y2473D01*
X2620Y2473D02*
X2633Y2473D01*
X2186Y2472D02*
X2199Y2472D01*
X2621Y2472D02*
X2634Y2472D01*
X2184Y2471D02*
X2197Y2471D01*
X2623Y2471D02*
X2636Y2471D01*
X2183Y2470D02*
X2196Y2470D01*
X2624Y2470D02*
X2637Y2470D01*
X2182Y2469D02*
X2194Y2469D01*
X2625Y2469D02*
X2638Y2469D01*
X2180Y2468D02*
X2193Y2468D01*
X2627Y2468D02*
X2640Y2468D01*
X2179Y2467D02*
X2192Y2467D01*
X2628Y2467D02*
X2641Y2467D01*
X2178Y2466D02*
X2190Y2466D01*
X2630Y2466D02*
X2642Y2466D01*
X2177Y2465D02*
X2189Y2465D01*
X2631Y2465D02*
X2643Y2465D01*
X2175Y2464D02*
X2188Y2464D01*
X2632Y2464D02*
X2645Y2464D01*
X2174Y2463D02*
X2186Y2463D01*
X2634Y2463D02*
X2646Y2463D01*
X2173Y2462D02*
X2185Y2462D01*
X2635Y2462D02*
X2647Y2462D01*
X2172Y2461D02*
X2184Y2461D01*
X2636Y2461D02*
X2648Y2461D01*
X2170Y2460D02*
X2182Y2460D01*
X2638Y2460D02*
X2650Y2460D01*
X2169Y2459D02*
X2181Y2459D01*
X2639Y2459D02*
X2651Y2459D01*
X2168Y2458D02*
X2180Y2458D01*
X2640Y2458D02*
X2652Y2458D01*
X2167Y2457D02*
X2179Y2457D01*
X2641Y2457D02*
X2653Y2457D01*
X2165Y2456D02*
X2177Y2456D01*
X2643Y2456D02*
X2654Y2456D01*
X2164Y2455D02*
X2176Y2455D01*
X2644Y2455D02*
X2656Y2455D01*
X2163Y2454D02*
X2175Y2454D01*
X2645Y2454D02*
X2657Y2454D01*
X2162Y2453D02*
X2174Y2453D01*
X2646Y2453D02*
X2658Y2453D01*
X2161Y2452D02*
X2172Y2452D01*
X2648Y2452D02*
X2659Y2452D01*
X2160Y2451D02*
X2171Y2451D01*
X2649Y2451D02*
X2660Y2451D01*
X2159Y2450D02*
X2170Y2450D01*
X2650Y2450D02*
X2661Y2450D01*
X2157Y2449D02*
X2169Y2449D01*
X2651Y2449D02*
X2662Y2449D01*
X2156Y2448D02*
X2168Y2448D01*
X2652Y2448D02*
X2664Y2448D01*
X2155Y2447D02*
X2166Y2447D01*
X2654Y2447D02*
X2665Y2447D01*
X2154Y2446D02*
X2165Y2446D01*
X2655Y2446D02*
X2666Y2446D01*
X2153Y2445D02*
X2164Y2445D01*
X2656Y2445D02*
X2667Y2445D01*
X2152Y2444D02*
X2163Y2444D01*
X2657Y2444D02*
X2668Y2444D01*
X2151Y2443D02*
X2162Y2443D01*
X2658Y2443D02*
X2669Y2443D01*
X2150Y2442D02*
X2161Y2442D01*
X2659Y2442D02*
X2670Y2442D01*
X2149Y2441D02*
X2159Y2441D01*
X2660Y2441D02*
X2671Y2441D01*
X2148Y2440D02*
X2158Y2440D01*
X2662Y2440D02*
X2672Y2440D01*
X2147Y2439D02*
X2157Y2439D01*
X2663Y2439D02*
X2673Y2439D01*
X2146Y2438D02*
X2156Y2438D01*
X2664Y2438D02*
X2674Y2438D01*
X2144Y2437D02*
X2155Y2437D01*
X2665Y2437D02*
X2675Y2437D01*
X2143Y2436D02*
X2154Y2436D01*
X2666Y2436D02*
X2676Y2436D01*
X2142Y2435D02*
X2153Y2435D01*
X2667Y2435D02*
X2678Y2435D01*
X2141Y2434D02*
X2152Y2434D01*
X2668Y2434D02*
X2679Y2434D01*
X2140Y2433D02*
X2151Y2433D01*
X2669Y2433D02*
X2680Y2433D01*
X2139Y2432D02*
X2150Y2432D01*
X2670Y2432D02*
X2681Y2432D01*
X2138Y2431D02*
X2149Y2431D01*
X2671Y2431D02*
X2682Y2431D01*
X2137Y2430D02*
X2148Y2430D01*
X2672Y2430D02*
X2683Y2430D01*
X2136Y2429D02*
X2147Y2429D01*
X2673Y2429D02*
X2684Y2429D01*
X2135Y2428D02*
X2146Y2428D01*
X2674Y2428D02*
X2685Y2428D01*
X2134Y2427D02*
X2144Y2427D01*
X2675Y2427D02*
X2686Y2427D01*
X2133Y2426D02*
X2143Y2426D01*
X2676Y2426D02*
X2686Y2426D01*
X2132Y2425D02*
X2142Y2425D01*
X2678Y2425D02*
X2687Y2425D01*
X2132Y2424D02*
X2141Y2424D01*
X2679Y2424D02*
X2688Y2424D01*
X2131Y2423D02*
X2140Y2423D01*
X2680Y2423D02*
X2689Y2423D01*
X2130Y2422D02*
X2139Y2422D01*
X2680Y2422D02*
X2690Y2422D01*
X2129Y2421D02*
X2138Y2421D01*
X2681Y2421D02*
X2691Y2421D01*
X2128Y2420D02*
X2138Y2420D01*
X2682Y2420D02*
X2692Y2420D01*
X2127Y2419D02*
X2137Y2419D01*
X2683Y2419D02*
X2693Y2419D01*
X2126Y2418D02*
X2136Y2418D01*
X2684Y2418D02*
X2694Y2418D01*
X2125Y2417D02*
X2135Y2417D01*
X2685Y2417D02*
X2695Y2417D01*
X2124Y2416D02*
X2134Y2416D01*
X2686Y2416D02*
X2696Y2416D01*
X2123Y2415D02*
X2133Y2415D01*
X2687Y2415D02*
X2697Y2415D01*
X2122Y2414D02*
X2132Y2414D01*
X2688Y2414D02*
X2698Y2414D01*
X2121Y2413D02*
X2131Y2413D01*
X2689Y2413D02*
X2699Y2413D01*
X2120Y2412D02*
X2130Y2412D01*
X2690Y2412D02*
X2700Y2412D01*
X2119Y2411D02*
X2129Y2411D01*
X2691Y2411D02*
X2700Y2411D01*
X2119Y2410D02*
X2128Y2410D01*
X2692Y2410D02*
X2701Y2410D01*
X2118Y2409D02*
X2127Y2409D01*
X2693Y2409D02*
X2702Y2409D01*
X2117Y2408D02*
X2126Y2408D01*
X2694Y2408D02*
X2703Y2408D01*
X2116Y2407D02*
X2125Y2407D01*
X2695Y2407D02*
X2704Y2407D01*
X2115Y2406D02*
X2124Y2406D01*
X2696Y2406D02*
X2705Y2406D01*
X2114Y2405D02*
X2123Y2405D01*
X2696Y2405D02*
X2706Y2405D01*
X2113Y2404D02*
X2123Y2404D01*
X2697Y2404D02*
X2707Y2404D01*
X2112Y2403D02*
X2122Y2403D01*
X2698Y2403D02*
X2707Y2403D01*
X2112Y2402D02*
X2121Y2402D01*
X2699Y2402D02*
X2708Y2402D01*
X2111Y2401D02*
X2120Y2401D01*
X2700Y2401D02*
X2709Y2401D01*
X2110Y2400D02*
X2119Y2400D01*
X2701Y2400D02*
X2710Y2400D01*
X2109Y2399D02*
X2118Y2399D01*
X2702Y2399D02*
X2711Y2399D01*
X2108Y2398D02*
X2117Y2398D01*
X2703Y2398D02*
X2712Y2398D01*
X2107Y2397D02*
X2116Y2397D01*
X2703Y2397D02*
X2712Y2397D01*
X2107Y2396D02*
X2116Y2396D01*
X2704Y2396D02*
X2713Y2396D01*
X2106Y2395D02*
X2115Y2395D01*
X2705Y2395D02*
X2714Y2395D01*
X2105Y2394D02*
X2114Y2394D01*
X2706Y2394D02*
X2715Y2394D01*
X2104Y2393D02*
X2113Y2393D01*
X2707Y2393D02*
X2716Y2393D01*
X2103Y2392D02*
X2112Y2392D01*
X2708Y2392D02*
X2716Y2392D01*
X2103Y2391D02*
X2111Y2391D01*
X2708Y2391D02*
X2717Y2391D01*
X2102Y2390D02*
X2111Y2390D01*
X2709Y2390D02*
X2718Y2390D01*
X2101Y2389D02*
X2110Y2389D01*
X2710Y2389D02*
X2719Y2389D01*
X2100Y2388D02*
X2109Y2388D01*
X2711Y2388D02*
X2720Y2388D01*
X2099Y2387D02*
X2108Y2387D01*
X2712Y2387D02*
X2720Y2387D01*
X2099Y2386D02*
X2107Y2386D01*
X2713Y2386D02*
X2721Y2386D01*
X2098Y2385D02*
X2107Y2385D01*
X2713Y2385D02*
X2722Y2385D01*
X2097Y2384D02*
X2106Y2384D01*
X2714Y2384D02*
X2723Y2384D01*
X2096Y2383D02*
X2105Y2383D01*
X2715Y2383D02*
X2724Y2383D01*
X2096Y2382D02*
X2104Y2382D01*
X2716Y2382D02*
X2724Y2382D01*
X2095Y2381D02*
X2103Y2381D01*
X2717Y2381D02*
X2725Y2381D01*
X2094Y2380D02*
X2103Y2380D01*
X2717Y2380D02*
X2726Y2380D01*
X2093Y2379D02*
X2102Y2379D01*
X2718Y2379D02*
X2727Y2379D01*
X2093Y2378D02*
X2101Y2378D01*
X2719Y2378D02*
X2727Y2378D01*
X2092Y2377D02*
X2100Y2377D01*
X2720Y2377D02*
X2728Y2377D01*
X2091Y2376D02*
X2100Y2376D01*
X2720Y2376D02*
X2729Y2376D01*
X2090Y2375D02*
X2099Y2375D01*
X2721Y2375D02*
X2729Y2375D01*
X2090Y2374D02*
X2098Y2374D01*
X2722Y2374D02*
X2730Y2374D01*
X2089Y2373D02*
X2097Y2373D01*
X2723Y2373D02*
X2731Y2373D01*
X2088Y2372D02*
X2097Y2372D01*
X2723Y2372D02*
X2732Y2372D01*
X2087Y2371D02*
X2096Y2371D01*
X2724Y2371D02*
X2732Y2371D01*
X2087Y2370D02*
X2095Y2370D01*
X2725Y2370D02*
X2733Y2370D01*
X2086Y2369D02*
X2094Y2369D01*
X2726Y2369D02*
X2734Y2369D01*
X2085Y2368D02*
X2094Y2368D01*
X2726Y2368D02*
X2735Y2368D01*
X2085Y2367D02*
X2093Y2367D01*
X2727Y2367D02*
X2735Y2367D01*
X2084Y2366D02*
X2092Y2366D01*
X2728Y2366D02*
X2736Y2366D01*
X2083Y2365D02*
X2091Y2365D01*
X2729Y2365D02*
X2737Y2365D01*
X2083Y2364D02*
X2091Y2364D01*
X2729Y2364D02*
X2737Y2364D01*
X2082Y2363D02*
X2090Y2363D01*
X2730Y2363D02*
X2738Y2363D01*
X2081Y2362D02*
X2089Y2362D01*
X2731Y2362D02*
X2739Y2362D01*
X2081Y2361D02*
X2089Y2361D01*
X2731Y2361D02*
X2739Y2361D01*
X2080Y2360D02*
X2088Y2360D01*
X2732Y2360D02*
X2740Y2360D01*
X2079Y2359D02*
X2087Y2359D01*
X2733Y2359D02*
X2741Y2359D01*
X2079Y2358D02*
X2086Y2358D01*
X2733Y2358D02*
X2741Y2358D01*
X2078Y2357D02*
X2086Y2357D01*
X2734Y2357D02*
X2742Y2357D01*
X2077Y2356D02*
X2085Y2356D01*
X2735Y2356D02*
X2743Y2356D01*
X2076Y2355D02*
X2084Y2355D01*
X2735Y2355D02*
X2743Y2355D01*
X2076Y2354D02*
X2084Y2354D01*
X2736Y2354D02*
X2744Y2354D01*
X2075Y2353D02*
X2083Y2353D01*
X2737Y2353D02*
X2745Y2353D01*
X2074Y2352D02*
X2082Y2352D01*
X2738Y2352D02*
X2745Y2352D01*
X2074Y2351D02*
X2082Y2351D01*
X2738Y2351D02*
X2746Y2351D01*
X2073Y2350D02*
X2081Y2350D01*
X2739Y2350D02*
X2747Y2350D01*
X2073Y2349D02*
X2080Y2349D01*
X2740Y2349D02*
X2747Y2349D01*
X2072Y2348D02*
X2080Y2348D01*
X2740Y2348D02*
X2748Y2348D01*
X2071Y2347D02*
X2079Y2347D01*
X2741Y2347D02*
X2749Y2347D01*
X2071Y2346D02*
X2078Y2346D01*
X2742Y2346D02*
X2749Y2346D01*
X2070Y2345D02*
X2078Y2345D01*
X2742Y2345D02*
X2750Y2345D01*
X2069Y2344D02*
X2077Y2344D01*
X2743Y2344D02*
X2750Y2344D01*
X2069Y2343D02*
X2076Y2343D01*
X2743Y2343D02*
X2751Y2343D01*
X2068Y2342D02*
X2076Y2342D01*
X2744Y2342D02*
X2752Y2342D01*
X2068Y2341D02*
X2075Y2341D01*
X2745Y2341D02*
X2752Y2341D01*
X2067Y2340D02*
X2075Y2340D01*
X2745Y2340D02*
X2753Y2340D01*
X2066Y2339D02*
X2074Y2339D01*
X2746Y2339D02*
X2754Y2339D01*
X2066Y2338D02*
X2073Y2338D01*
X2747Y2338D02*
X2754Y2338D01*
X2065Y2337D02*
X2073Y2337D01*
X2747Y2337D02*
X2755Y2337D01*
X2064Y2336D02*
X2072Y2336D01*
X2748Y2336D02*
X2755Y2336D01*
X2064Y2335D02*
X2071Y2335D01*
X2748Y2335D02*
X2756Y2335D01*
X2063Y2334D02*
X2071Y2334D01*
X2749Y2334D02*
X2757Y2334D01*
X2063Y2333D02*
X2070Y2333D01*
X2750Y2333D02*
X2757Y2333D01*
X2062Y2332D02*
X2070Y2332D01*
X2750Y2332D02*
X2758Y2332D01*
X2061Y2331D02*
X2069Y2331D01*
X2751Y2331D02*
X2758Y2331D01*
X2061Y2330D02*
X2068Y2330D01*
X2752Y2330D02*
X2759Y2330D01*
X2060Y2329D02*
X2068Y2329D01*
X2752Y2329D02*
X2760Y2329D01*
X2060Y2328D02*
X2067Y2328D01*
X2753Y2328D02*
X2760Y2328D01*
X2059Y2327D02*
X2067Y2327D01*
X2753Y2327D02*
X2761Y2327D01*
X2059Y2326D02*
X2066Y2326D01*
X2754Y2326D02*
X2761Y2326D01*
X2058Y2325D02*
X2065Y2325D01*
X2754Y2325D02*
X2762Y2325D01*
X2057Y2324D02*
X2065Y2324D01*
X2755Y2324D02*
X2762Y2324D01*
X2057Y2323D02*
X2064Y2323D01*
X2756Y2323D02*
X2763Y2323D01*
X2056Y2322D02*
X2064Y2322D01*
X2756Y2322D02*
X2764Y2322D01*
X2056Y2321D02*
X2063Y2321D01*
X2757Y2321D02*
X2764Y2321D01*
X2055Y2320D02*
X2063Y2320D01*
X2757Y2320D02*
X2765Y2320D01*
X2055Y2319D02*
X2062Y2319D01*
X2758Y2319D02*
X2765Y2319D01*
X2054Y2318D02*
X2061Y2318D01*
X2758Y2318D02*
X2766Y2318D01*
X2054Y2317D02*
X2061Y2317D01*
X2759Y2317D02*
X2766Y2317D01*
X2053Y2316D02*
X2060Y2316D01*
X2760Y2316D02*
X2767Y2316D01*
X2052Y2315D02*
X2060Y2315D01*
X2760Y2315D02*
X2768Y2315D01*
X2052Y2314D02*
X2059Y2314D01*
X2761Y2314D02*
X2768Y2314D01*
X2051Y2313D02*
X2059Y2313D01*
X2761Y2313D02*
X2769Y2313D01*
X2051Y2312D02*
X2058Y2312D01*
X2762Y2312D02*
X2769Y2312D01*
X2050Y2311D02*
X2057Y2311D01*
X2762Y2311D02*
X2770Y2311D01*
X2050Y2310D02*
X2057Y2310D01*
X2763Y2310D02*
X2770Y2310D01*
X2049Y2309D02*
X2056Y2309D01*
X2764Y2309D02*
X2771Y2309D01*
X2049Y2308D02*
X2056Y2308D01*
X2764Y2308D02*
X2771Y2308D01*
X2048Y2307D02*
X2055Y2307D01*
X2765Y2307D02*
X2772Y2307D01*
X2048Y2306D02*
X2055Y2306D01*
X2765Y2306D02*
X2772Y2306D01*
X2047Y2305D02*
X2054Y2305D01*
X2766Y2305D02*
X2773Y2305D01*
X2047Y2304D02*
X2054Y2304D01*
X2766Y2304D02*
X2773Y2304D01*
X2046Y2303D02*
X2053Y2303D01*
X2767Y2303D02*
X2774Y2303D01*
X2046Y2302D02*
X2053Y2302D01*
X2767Y2302D02*
X2774Y2302D01*
X2045Y2301D02*
X2052Y2301D01*
X2768Y2301D02*
X2775Y2301D01*
X2045Y2300D02*
X2052Y2300D01*
X2768Y2300D02*
X2775Y2300D01*
X2044Y2299D02*
X2051Y2299D01*
X2769Y2299D02*
X2776Y2299D01*
X2044Y2298D02*
X2051Y2298D01*
X2769Y2298D02*
X2776Y2298D01*
X2043Y2297D02*
X2050Y2297D01*
X2770Y2297D02*
X2777Y2297D01*
X2043Y2296D02*
X2050Y2296D01*
X2770Y2296D02*
X2777Y2296D01*
X2042Y2295D02*
X2049Y2295D01*
X2771Y2295D02*
X2778Y2295D01*
X2042Y2294D02*
X2049Y2294D01*
X2771Y2294D02*
X2778Y2294D01*
X2041Y2293D02*
X2048Y2293D01*
X2772Y2293D02*
X2779Y2293D01*
X2041Y2292D02*
X2048Y2292D01*
X2772Y2292D02*
X2779Y2292D01*
X2040Y2291D02*
X2047Y2291D01*
X2773Y2291D02*
X2780Y2291D01*
X2040Y2290D02*
X2047Y2290D01*
X2773Y2290D02*
X2780Y2290D01*
X2039Y2289D02*
X2046Y2289D01*
X2774Y2289D02*
X2781Y2289D01*
X2039Y2288D02*
X2046Y2288D01*
X2774Y2288D02*
X2781Y2288D01*
X2038Y2287D02*
X2045Y2287D01*
X2775Y2287D02*
X2782Y2287D01*
X2038Y2286D02*
X2045Y2286D01*
X2775Y2286D02*
X2782Y2286D01*
X2037Y2285D02*
X2044Y2285D01*
X2776Y2285D02*
X2783Y2285D01*
X2037Y2284D02*
X2044Y2284D01*
X2776Y2284D02*
X2783Y2284D01*
X2036Y2283D02*
X2043Y2283D01*
X2777Y2283D02*
X2783Y2283D01*
X2036Y2282D02*
X2043Y2282D01*
X2777Y2282D02*
X2784Y2282D01*
X2035Y2281D02*
X2042Y2281D01*
X2778Y2281D02*
X2784Y2281D01*
X2035Y2280D02*
X2042Y2280D01*
X2778Y2280D02*
X2785Y2280D01*
X2035Y2279D02*
X2041Y2279D01*
X2778Y2279D02*
X2785Y2279D01*
X2034Y2278D02*
X2041Y2278D01*
X2779Y2278D02*
X2786Y2278D01*
X2034Y2277D02*
X2040Y2277D01*
X2779Y2277D02*
X2786Y2277D01*
X2033Y2276D02*
X2040Y2276D01*
X2780Y2276D02*
X2787Y2276D01*
X2033Y2275D02*
X2040Y2275D01*
X2780Y2275D02*
X2787Y2275D01*
X2032Y2274D02*
X2039Y2274D01*
X2781Y2274D02*
X2788Y2274D01*
X2032Y2273D02*
X2039Y2273D01*
X2781Y2273D02*
X2788Y2273D01*
X2031Y2272D02*
X2038Y2272D01*
X2782Y2272D02*
X2788Y2272D01*
X2031Y2271D02*
X2038Y2271D01*
X2782Y2271D02*
X2789Y2271D01*
X2031Y2270D02*
X2037Y2270D01*
X2783Y2270D02*
X2789Y2270D01*
X2030Y2269D02*
X2037Y2269D01*
X2783Y2269D02*
X2790Y2269D01*
X2030Y2268D02*
X2036Y2268D01*
X2783Y2268D02*
X2790Y2268D01*
X2029Y2267D02*
X2036Y2267D01*
X2784Y2267D02*
X2791Y2267D01*
X2029Y2266D02*
X2036Y2266D01*
X2784Y2266D02*
X2791Y2266D01*
X2029Y2265D02*
X2035Y2265D01*
X2785Y2265D02*
X2791Y2265D01*
X2028Y2264D02*
X2035Y2264D01*
X2785Y2264D02*
X2792Y2264D01*
X2028Y2263D02*
X2034Y2263D01*
X2786Y2263D02*
X2792Y2263D01*
X2027Y2262D02*
X2034Y2262D01*
X2786Y2262D02*
X2793Y2262D01*
X2027Y2261D02*
X2034Y2261D01*
X2786Y2261D02*
X2793Y2261D01*
X2026Y2260D02*
X2033Y2260D01*
X2787Y2260D02*
X2794Y2260D01*
X2026Y2259D02*
X2033Y2259D01*
X2787Y2259D02*
X2794Y2259D01*
X2026Y2258D02*
X2032Y2258D01*
X2788Y2258D02*
X2794Y2258D01*
X2025Y2257D02*
X2032Y2257D01*
X2788Y2257D02*
X2795Y2257D01*
X2025Y2256D02*
X2031Y2256D01*
X2789Y2256D02*
X2795Y2256D01*
X2024Y2255D02*
X2031Y2255D01*
X2789Y2255D02*
X2796Y2255D01*
X2024Y2254D02*
X2031Y2254D01*
X2789Y2254D02*
X2796Y2254D01*
X2024Y2253D02*
X2030Y2253D01*
X2790Y2253D02*
X2796Y2253D01*
X2023Y2252D02*
X2030Y2252D01*
X2790Y2252D02*
X2797Y2252D01*
X2023Y2251D02*
X2029Y2251D01*
X2791Y2251D02*
X2797Y2251D01*
X2022Y2250D02*
X2029Y2250D01*
X2791Y2250D02*
X2797Y2250D01*
X2022Y2249D02*
X2029Y2249D01*
X2791Y2249D02*
X2798Y2249D01*
X2022Y2248D02*
X2028Y2248D01*
X2792Y2248D02*
X2798Y2248D01*
X2021Y2247D02*
X2028Y2247D01*
X2792Y2247D02*
X2799Y2247D01*
X2021Y2246D02*
X2027Y2246D01*
X2792Y2246D02*
X2799Y2246D01*
X2021Y2245D02*
X2027Y2245D01*
X2793Y2245D02*
X2799Y2245D01*
X2020Y2244D02*
X2027Y2244D01*
X2793Y2244D02*
X2800Y2244D01*
X2020Y2243D02*
X2026Y2243D01*
X2794Y2243D02*
X2800Y2243D01*
X2019Y2242D02*
X2026Y2242D01*
X2794Y2242D02*
X2801Y2242D01*
X2019Y2241D02*
X2026Y2241D01*
X2794Y2241D02*
X2801Y2241D01*
X2019Y2240D02*
X2025Y2240D01*
X2795Y2240D02*
X2801Y2240D01*
X2018Y2239D02*
X2025Y2239D01*
X2795Y2239D02*
X2802Y2239D01*
X2018Y2238D02*
X2024Y2238D01*
X2796Y2238D02*
X2802Y2238D01*
X2017Y2237D02*
X2024Y2237D01*
X2796Y2237D02*
X2802Y2237D01*
X2017Y2236D02*
X2024Y2236D01*
X2796Y2236D02*
X2803Y2236D01*
X2017Y2235D02*
X2023Y2235D01*
X2797Y2235D02*
X2803Y2235D01*
X2016Y2234D02*
X2023Y2234D01*
X2797Y2234D02*
X2803Y2234D01*
X2016Y2233D02*
X2023Y2233D01*
X2797Y2233D02*
X2804Y2233D01*
X2016Y2232D02*
X2022Y2232D01*
X2798Y2232D02*
X2804Y2232D01*
X2015Y2231D02*
X2022Y2231D01*
X2798Y2231D02*
X2804Y2231D01*
X2015Y2230D02*
X2022Y2230D01*
X2798Y2230D02*
X2805Y2230D01*
X2015Y2229D02*
X2021Y2229D01*
X2799Y2229D02*
X2805Y2229D01*
X2014Y2228D02*
X2021Y2228D01*
X2799Y2228D02*
X2806Y2228D01*
X2014Y2227D02*
X2020Y2227D01*
X2799Y2227D02*
X2806Y2227D01*
X2014Y2226D02*
X2020Y2226D01*
X2800Y2226D02*
X2806Y2226D01*
X2013Y2225D02*
X2020Y2225D01*
X2800Y2225D02*
X2807Y2225D01*
X2013Y2224D02*
X2019Y2224D01*
X2800Y2224D02*
X2807Y2224D01*
X2013Y2223D02*
X2019Y2223D01*
X2801Y2223D02*
X2807Y2223D01*
X2012Y2222D02*
X2019Y2222D01*
X2801Y2222D02*
X2808Y2222D01*
X2012Y2221D02*
X2018Y2221D01*
X2801Y2221D02*
X2808Y2221D01*
X2012Y2220D02*
X2018Y2220D01*
X2802Y2220D02*
X2808Y2220D01*
X2011Y2219D02*
X2018Y2219D01*
X2802Y2219D02*
X2809Y2219D01*
X2011Y2218D02*
X2017Y2218D01*
X2802Y2218D02*
X2809Y2218D01*
X2011Y2217D02*
X2017Y2217D01*
X2803Y2217D02*
X2809Y2217D01*
X2010Y2216D02*
X2017Y2216D01*
X2803Y2216D02*
X2810Y2216D01*
X2010Y2215D02*
X2016Y2215D01*
X2804Y2215D02*
X2810Y2215D01*
X2010Y2214D02*
X2016Y2214D01*
X2804Y2214D02*
X2810Y2214D01*
X2009Y2213D02*
X2016Y2213D01*
X2804Y2213D02*
X2810Y2213D01*
X2009Y2212D02*
X2015Y2212D01*
X2804Y2212D02*
X2811Y2212D01*
X2009Y2211D02*
X2015Y2211D01*
X2805Y2211D02*
X2811Y2211D01*
X2009Y2210D02*
X2015Y2210D01*
X2805Y2210D02*
X2811Y2210D01*
X2008Y2209D02*
X2015Y2209D01*
X2805Y2209D02*
X2812Y2209D01*
X2008Y2208D02*
X2014Y2208D01*
X2806Y2208D02*
X2812Y2208D01*
X2008Y2207D02*
X2014Y2207D01*
X2806Y2207D02*
X2812Y2207D01*
X2007Y2206D02*
X2014Y2206D01*
X2806Y2206D02*
X2813Y2206D01*
X2007Y2205D02*
X2013Y2205D01*
X2807Y2205D02*
X2813Y2205D01*
X2007Y2204D02*
X2013Y2204D01*
X2807Y2204D02*
X2813Y2204D01*
X2006Y2203D02*
X2013Y2203D01*
X2807Y2203D02*
X2813Y2203D01*
X2006Y2202D02*
X2012Y2202D01*
X2807Y2202D02*
X2814Y2202D01*
X2006Y2201D02*
X2012Y2201D01*
X2808Y2201D02*
X2814Y2201D01*
X2006Y2200D02*
X2012Y2200D01*
X2808Y2200D02*
X2814Y2200D01*
X2005Y2199D02*
X2012Y2199D01*
X2808Y2199D02*
X2815Y2199D01*
X2005Y2198D02*
X2011Y2198D01*
X2809Y2198D02*
X2815Y2198D01*
X2005Y2197D02*
X2011Y2197D01*
X2809Y2197D02*
X2815Y2197D01*
X2004Y2196D02*
X2011Y2196D01*
X2809Y2196D02*
X2816Y2196D01*
X2004Y2195D02*
X2010Y2195D01*
X2810Y2195D02*
X2816Y2195D01*
X2004Y2194D02*
X2010Y2194D01*
X2810Y2194D02*
X2816Y2194D01*
X2004Y2193D02*
X2010Y2193D01*
X2810Y2193D02*
X2816Y2193D01*
X2003Y2192D02*
X2010Y2192D01*
X2810Y2192D02*
X2817Y2192D01*
X2003Y2191D02*
X2009Y2191D01*
X2811Y2191D02*
X2817Y2191D01*
X2003Y2190D02*
X2009Y2190D01*
X2811Y2190D02*
X2817Y2190D01*
X2002Y2189D02*
X2009Y2189D01*
X2811Y2189D02*
X2817Y2189D01*
X2002Y2188D02*
X2008Y2188D01*
X2811Y2188D02*
X2818Y2188D01*
X2002Y2187D02*
X2008Y2187D01*
X2812Y2187D02*
X2818Y2187D01*
X2002Y2186D02*
X2008Y2186D01*
X2812Y2186D02*
X2818Y2186D01*
X2001Y2185D02*
X2008Y2185D01*
X2812Y2185D02*
X2818Y2185D01*
X2001Y2184D02*
X2007Y2184D01*
X2812Y2184D02*
X2819Y2184D01*
X2001Y2183D02*
X2007Y2183D01*
X2813Y2183D02*
X2819Y2183D01*
X2001Y2182D02*
X2007Y2182D01*
X2813Y2182D02*
X2819Y2182D01*
X2000Y2181D02*
X2007Y2181D01*
X2813Y2181D02*
X2820Y2181D01*
X2000Y2180D02*
X2006Y2180D01*
X2814Y2180D02*
X2820Y2180D01*
X2000Y2179D02*
X2006Y2179D01*
X2814Y2179D02*
X2820Y2179D01*
X2000Y2178D02*
X2006Y2178D01*
X2814Y2178D02*
X2820Y2178D01*
X1999Y2177D02*
X2006Y2177D01*
X2814Y2177D02*
X2821Y2177D01*
X1999Y2176D02*
X2005Y2176D01*
X2815Y2176D02*
X2821Y2176D01*
X1999Y2175D02*
X2005Y2175D01*
X2815Y2175D02*
X2821Y2175D01*
X1999Y2174D02*
X2005Y2174D01*
X2815Y2174D02*
X2821Y2174D01*
X1998Y2173D02*
X2005Y2173D01*
X2815Y2173D02*
X2822Y2173D01*
X1998Y2172D02*
X2004Y2172D01*
X2816Y2172D02*
X2822Y2172D01*
X1998Y2171D02*
X2004Y2171D01*
X2816Y2171D02*
X2822Y2171D01*
X1998Y2170D02*
X2004Y2170D01*
X2816Y2170D02*
X2822Y2170D01*
X1997Y2169D02*
X2004Y2169D01*
X2816Y2169D02*
X2823Y2169D01*
X1997Y2168D02*
X2003Y2168D01*
X2817Y2168D02*
X2823Y2168D01*
X1997Y2167D02*
X2003Y2167D01*
X2817Y2167D02*
X2823Y2167D01*
X1997Y2166D02*
X2003Y2166D01*
X2817Y2166D02*
X2823Y2166D01*
X1996Y2165D02*
X2003Y2165D01*
X2817Y2165D02*
X2823Y2165D01*
X1996Y2164D02*
X2002Y2164D01*
X2817Y2164D02*
X2824Y2164D01*
X1996Y2163D02*
X2002Y2163D01*
X2818Y2163D02*
X2824Y2163D01*
X1996Y2162D02*
X2002Y2162D01*
X2818Y2162D02*
X2824Y2162D01*
X1996Y2161D02*
X2002Y2161D01*
X2818Y2161D02*
X2824Y2161D01*
X1995Y2160D02*
X2002Y2160D01*
X2818Y2160D02*
X2825Y2160D01*
X1995Y2159D02*
X2001Y2159D01*
X2819Y2159D02*
X2825Y2159D01*
X1995Y2158D02*
X2001Y2158D01*
X2819Y2158D02*
X2825Y2158D01*
X1995Y2157D02*
X2001Y2157D01*
X2819Y2157D02*
X2825Y2157D01*
X1995Y2156D02*
X2001Y2156D01*
X2819Y2156D02*
X2825Y2156D01*
X1994Y2155D02*
X2000Y2155D01*
X2819Y2155D02*
X2826Y2155D01*
X1994Y2154D02*
X2000Y2154D01*
X2820Y2154D02*
X2826Y2154D01*
X1994Y2153D02*
X2000Y2153D01*
X2820Y2153D02*
X2826Y2153D01*
X1994Y2152D02*
X2000Y2152D01*
X2820Y2152D02*
X2826Y2152D01*
X1993Y2151D02*
X2000Y2151D01*
X2820Y2151D02*
X2826Y2151D01*
X1993Y2150D02*
X1999Y2150D01*
X2820Y2150D02*
X2827Y2150D01*
X1993Y2149D02*
X1999Y2149D01*
X2821Y2149D02*
X2827Y2149D01*
X1993Y2148D02*
X1999Y2148D01*
X2821Y2148D02*
X2827Y2148D01*
X1993Y2147D02*
X1999Y2147D01*
X2821Y2147D02*
X2827Y2147D01*
X1992Y2146D02*
X1999Y2146D01*
X2821Y2146D02*
X2827Y2146D01*
X1992Y2145D02*
X1998Y2145D01*
X2821Y2145D02*
X2828Y2145D01*
X1992Y2144D02*
X1998Y2144D01*
X2822Y2144D02*
X2828Y2144D01*
X1992Y2143D02*
X1998Y2143D01*
X2822Y2143D02*
X2828Y2143D01*
X1992Y2142D02*
X1998Y2142D01*
X2822Y2142D02*
X2828Y2142D01*
X1992Y2141D02*
X1998Y2141D01*
X2822Y2141D02*
X2828Y2141D01*
X1991Y2140D02*
X1998Y2140D01*
X2822Y2140D02*
X2829Y2140D01*
X1991Y2139D02*
X1997Y2139D01*
X2823Y2139D02*
X2829Y2139D01*
X1991Y2138D02*
X1997Y2138D01*
X2823Y2138D02*
X2829Y2138D01*
X1991Y2137D02*
X1997Y2137D01*
X2823Y2137D02*
X2829Y2137D01*
X1991Y2136D02*
X1997Y2136D01*
X2823Y2136D02*
X2829Y2136D01*
X1990Y2135D02*
X1997Y2135D01*
X2823Y2135D02*
X2829Y2135D01*
X1990Y2134D02*
X1996Y2134D01*
X2823Y2134D02*
X2830Y2134D01*
X1990Y2133D02*
X1996Y2133D01*
X2824Y2133D02*
X2830Y2133D01*
X1990Y2132D02*
X1996Y2132D01*
X2824Y2132D02*
X2830Y2132D01*
X1990Y2131D02*
X1996Y2131D01*
X2824Y2131D02*
X2830Y2131D01*
X1990Y2130D02*
X1996Y2130D01*
X2824Y2130D02*
X2830Y2130D01*
X1989Y2129D02*
X1996Y2129D01*
X2824Y2129D02*
X2830Y2129D01*
X1989Y2128D02*
X1995Y2128D01*
X2824Y2128D02*
X2831Y2128D01*
X1989Y2127D02*
X1995Y2127D01*
X2825Y2127D02*
X2831Y2127D01*
X1989Y2126D02*
X1995Y2126D01*
X2825Y2126D02*
X2831Y2126D01*
X1989Y2125D02*
X1995Y2125D01*
X2825Y2125D02*
X2831Y2125D01*
X1989Y2124D02*
X1995Y2124D01*
X2825Y2124D02*
X2831Y2124D01*
X1989Y2123D02*
X1995Y2123D01*
X2825Y2123D02*
X2831Y2123D01*
X1988Y2122D02*
X1994Y2122D01*
X2825Y2122D02*
X2832Y2122D01*
X1988Y2121D02*
X1994Y2121D01*
X2826Y2121D02*
X2832Y2121D01*
X1988Y2120D02*
X1994Y2120D01*
X2826Y2120D02*
X2832Y2120D01*
X1988Y2119D02*
X1994Y2119D01*
X2826Y2119D02*
X2832Y2119D01*
X1988Y2118D02*
X1994Y2118D01*
X2826Y2118D02*
X2832Y2118D01*
X1988Y2117D02*
X1994Y2117D01*
X2826Y2117D02*
X2832Y2117D01*
X1987Y2116D02*
X1994Y2116D01*
X2826Y2116D02*
X2832Y2116D01*
X1987Y2115D02*
X1993Y2115D01*
X2826Y2115D02*
X2833Y2115D01*
X1987Y2114D02*
X1993Y2114D01*
X2827Y2114D02*
X2833Y2114D01*
X1987Y2113D02*
X1993Y2113D01*
X2827Y2113D02*
X2833Y2113D01*
X1987Y2112D02*
X1993Y2112D01*
X2827Y2112D02*
X2833Y2112D01*
X1987Y2111D02*
X1993Y2111D01*
X2827Y2111D02*
X2833Y2111D01*
X1987Y2110D02*
X1993Y2110D01*
X2827Y2110D02*
X2833Y2110D01*
X1986Y2109D02*
X1993Y2109D01*
X2827Y2109D02*
X2833Y2109D01*
X1986Y2108D02*
X1992Y2108D01*
X2827Y2108D02*
X2834Y2108D01*
X1986Y2107D02*
X1992Y2107D01*
X2828Y2107D02*
X2834Y2107D01*
X1986Y2106D02*
X1992Y2106D01*
X2828Y2106D02*
X2834Y2106D01*
X1986Y2105D02*
X1992Y2105D01*
X2828Y2105D02*
X2834Y2105D01*
X1986Y2104D02*
X1992Y2104D01*
X2828Y2104D02*
X2834Y2104D01*
X1986Y2103D02*
X1992Y2103D01*
X2828Y2103D02*
X2834Y2103D01*
X1986Y2102D02*
X1992Y2102D01*
X2828Y2102D02*
X2834Y2102D01*
X1986Y2101D02*
X1992Y2101D01*
X2828Y2101D02*
X2834Y2101D01*
X1985Y2100D02*
X1992Y2100D01*
X2828Y2100D02*
X2835Y2100D01*
X1985Y2099D02*
X1991Y2099D01*
X2829Y2099D02*
X2835Y2099D01*
X1985Y2098D02*
X1991Y2098D01*
X2829Y2098D02*
X2835Y2098D01*
X1985Y2097D02*
X1991Y2097D01*
X2829Y2097D02*
X2835Y2097D01*
X1985Y2096D02*
X1991Y2096D01*
X2829Y2096D02*
X2835Y2096D01*
X1985Y2095D02*
X1991Y2095D01*
X2829Y2095D02*
X2835Y2095D01*
X1985Y2094D02*
X1991Y2094D01*
X2829Y2094D02*
X2835Y2094D01*
X1985Y2093D02*
X1991Y2093D01*
X2829Y2093D02*
X2835Y2093D01*
X1985Y2092D02*
X1991Y2092D01*
X2829Y2092D02*
X2835Y2092D01*
X1984Y2091D02*
X1991Y2091D01*
X2829Y2091D02*
X2835Y2091D01*
X1984Y2090D02*
X1990Y2090D01*
X2829Y2090D02*
X2836Y2090D01*
X1984Y2089D02*
X1990Y2089D01*
X2830Y2089D02*
X2836Y2089D01*
X1984Y2088D02*
X1990Y2088D01*
X2830Y2088D02*
X2836Y2088D01*
X1984Y2087D02*
X1990Y2087D01*
X2830Y2087D02*
X2836Y2087D01*
X1984Y2086D02*
X1990Y2086D01*
X2830Y2086D02*
X2836Y2086D01*
X1984Y2085D02*
X1990Y2085D01*
X2830Y2085D02*
X2836Y2085D01*
X1984Y2084D02*
X1990Y2084D01*
X2830Y2084D02*
X2836Y2084D01*
X1984Y2083D02*
X1990Y2083D01*
X2830Y2083D02*
X2836Y2083D01*
X1984Y2082D02*
X1990Y2082D01*
X2830Y2082D02*
X2836Y2082D01*
X1983Y2081D02*
X1990Y2081D01*
X2830Y2081D02*
X2836Y2081D01*
X1983Y2080D02*
X1990Y2080D01*
X2830Y2080D02*
X2837Y2080D01*
X1983Y2079D02*
X1989Y2079D01*
X2830Y2079D02*
X2837Y2079D01*
X1983Y2078D02*
X1989Y2078D01*
X2831Y2078D02*
X2837Y2078D01*
X1983Y2077D02*
X1989Y2077D01*
X2831Y2077D02*
X2837Y2077D01*
X1983Y2076D02*
X1989Y2076D01*
X2831Y2076D02*
X2837Y2076D01*
X1983Y2075D02*
X1989Y2075D01*
X2831Y2075D02*
X2837Y2075D01*
X1983Y2074D02*
X1989Y2074D01*
X2831Y2074D02*
X2837Y2074D01*
X1983Y2073D02*
X1989Y2073D01*
X2831Y2073D02*
X2837Y2073D01*
X1983Y2072D02*
X1989Y2072D01*
X2831Y2072D02*
X2837Y2072D01*
X1983Y2071D02*
X1989Y2071D01*
X2831Y2071D02*
X2837Y2071D01*
X1983Y2070D02*
X1989Y2070D01*
X2831Y2070D02*
X2837Y2070D01*
X1983Y2069D02*
X1989Y2069D01*
X2831Y2069D02*
X2837Y2069D01*
X1982Y2068D02*
X1989Y2068D01*
X2831Y2068D02*
X2837Y2068D01*
X1982Y2067D02*
X1989Y2067D01*
X2831Y2067D02*
X2837Y2067D01*
X1982Y2066D02*
X1988Y2066D01*
X2831Y2066D02*
X2838Y2066D01*
X1982Y2065D02*
X1988Y2065D01*
X2831Y2065D02*
X2838Y2065D01*
X1982Y2064D02*
X1988Y2064D01*
X2832Y2064D02*
X2838Y2064D01*
X1982Y2063D02*
X1988Y2063D01*
X2832Y2063D02*
X2838Y2063D01*
X1982Y2062D02*
X1988Y2062D01*
X2832Y2062D02*
X2838Y2062D01*
X1982Y2061D02*
X1988Y2061D01*
X2832Y2061D02*
X2838Y2061D01*
X1982Y2060D02*
X1988Y2060D01*
X2832Y2060D02*
X2838Y2060D01*
X1982Y2059D02*
X1988Y2059D01*
X2832Y2059D02*
X2838Y2059D01*
X1982Y2058D02*
X1988Y2058D01*
X2832Y2058D02*
X2838Y2058D01*
X1982Y2057D02*
X1988Y2057D01*
X2832Y2057D02*
X2838Y2057D01*
X1982Y2056D02*
X1988Y2056D01*
X2832Y2056D02*
X2838Y2056D01*
X1982Y2055D02*
X1988Y2055D01*
X2832Y2055D02*
X2838Y2055D01*
X1982Y2054D02*
X1988Y2054D01*
X2832Y2054D02*
X2838Y2054D01*
X1982Y2053D02*
X1988Y2053D01*
X2832Y2053D02*
X2838Y2053D01*
X1982Y2052D02*
X1988Y2052D01*
X2832Y2052D02*
X2838Y2052D01*
X1982Y2051D02*
X1988Y2051D01*
X2832Y2051D02*
X2838Y2051D01*
X1982Y2050D02*
X1988Y2050D01*
X2832Y2050D02*
X2838Y2050D01*
X1982Y2049D02*
X1988Y2049D01*
X2832Y2049D02*
X2838Y2049D01*
X1982Y2048D02*
X1988Y2048D01*
X2832Y2048D02*
X2838Y2048D01*
X1982Y2047D02*
X1988Y2047D01*
X2832Y2047D02*
X2838Y2047D01*
X1981Y2046D02*
X1988Y2046D01*
X2832Y2046D02*
X2838Y2046D01*
X1981Y2045D02*
X1988Y2045D01*
X2832Y2045D02*
X2838Y2045D01*
X1981Y2044D02*
X1988Y2044D01*
X2832Y2044D02*
X2839Y2044D01*
X1981Y2043D02*
X1988Y2043D01*
X2832Y2043D02*
X2839Y2043D01*
X1981Y2042D02*
X1987Y2042D01*
X2832Y2042D02*
X2839Y2042D01*
X1981Y2041D02*
X1987Y2041D01*
X2832Y2041D02*
X2839Y2041D01*
X1981Y2040D02*
X1987Y2040D01*
X2832Y2040D02*
X2839Y2040D01*
X1981Y2039D02*
X1987Y2039D01*
X2832Y2039D02*
X2839Y2039D01*
X1981Y2038D02*
X1987Y2038D01*
X2832Y2038D02*
X2839Y2038D01*
X1981Y2037D02*
X1987Y2037D01*
X2832Y2037D02*
X2839Y2037D01*
X1981Y2036D02*
X1987Y2036D01*
X2832Y2036D02*
X2839Y2036D01*
X1981Y2035D02*
X1987Y2035D01*
X2833Y2035D02*
X2839Y2035D01*
X1981Y2034D02*
X1987Y2034D01*
X2833Y2034D02*
X2839Y2034D01*
X1981Y2033D02*
X1987Y2033D01*
X2833Y2033D02*
X2839Y2033D01*
X1981Y2032D02*
X1987Y2032D01*
X2833Y2032D02*
X2839Y2032D01*
X1981Y2031D02*
X1987Y2031D01*
X2833Y2031D02*
X2839Y2031D01*
X1981Y2030D02*
X1987Y2030D01*
X2833Y2030D02*
X2839Y2030D01*
X1981Y2029D02*
X1987Y2029D01*
X2833Y2029D02*
X2839Y2029D01*
X1981Y2028D02*
X1987Y2028D01*
X2833Y2028D02*
X2839Y2028D01*
X1981Y2027D02*
X1987Y2027D01*
X2833Y2027D02*
X2839Y2027D01*
X1981Y2026D02*
X1987Y2026D01*
X2833Y2026D02*
X2839Y2026D01*
X1981Y2025D02*
X1987Y2025D01*
X2833Y2025D02*
X2839Y2025D01*
X1981Y2024D02*
X1987Y2024D01*
X2833Y2024D02*
X2839Y2024D01*
X1981Y2023D02*
X1987Y2023D01*
X2833Y2023D02*
X2839Y2023D01*
X1981Y2022D02*
X1987Y2022D01*
X2833Y2022D02*
X2839Y2022D01*
X1981Y2021D02*
X1987Y2021D01*
X2833Y2021D02*
X2839Y2021D01*
X1981Y2020D02*
X1987Y2020D01*
X2833Y2020D02*
X2839Y2020D01*
X1981Y2019D02*
X1987Y2019D01*
X2832Y2019D02*
X2839Y2019D01*
X1981Y2018D02*
X1987Y2018D01*
X2832Y2018D02*
X2839Y2018D01*
X1981Y2017D02*
X1987Y2017D01*
X2832Y2017D02*
X2839Y2017D01*
X1981Y2016D02*
X1987Y2016D01*
X2832Y2016D02*
X2839Y2016D01*
X1981Y2015D02*
X1988Y2015D01*
X2832Y2015D02*
X2839Y2015D01*
X1981Y2014D02*
X1988Y2014D01*
X2832Y2014D02*
X2839Y2014D01*
X1981Y2013D02*
X1988Y2013D01*
X2832Y2013D02*
X2839Y2013D01*
X1981Y2012D02*
X1988Y2012D01*
X2832Y2012D02*
X2839Y2012D01*
X1981Y2011D02*
X1988Y2011D01*
X2832Y2011D02*
X2839Y2011D01*
X1981Y2010D02*
X1988Y2010D01*
X2832Y2010D02*
X2838Y2010D01*
X1981Y2009D02*
X1988Y2009D01*
X2832Y2009D02*
X2838Y2009D01*
X1981Y2008D02*
X1988Y2008D01*
X2832Y2008D02*
X2838Y2008D01*
X1982Y2007D02*
X1988Y2007D01*
X2832Y2007D02*
X2838Y2007D01*
X1982Y2006D02*
X1988Y2006D01*
X2832Y2006D02*
X2838Y2006D01*
X1982Y2005D02*
X1988Y2005D01*
X2832Y2005D02*
X2838Y2005D01*
X1982Y2004D02*
X1988Y2004D01*
X2832Y2004D02*
X2838Y2004D01*
X1982Y2003D02*
X1988Y2003D01*
X2832Y2003D02*
X2838Y2003D01*
X1982Y2002D02*
X1988Y2002D01*
X2832Y2002D02*
X2838Y2002D01*
X1982Y2001D02*
X1988Y2001D01*
X2832Y2001D02*
X2838Y2001D01*
X1982Y2000D02*
X1988Y2000D01*
X2832Y2000D02*
X2838Y2000D01*
X1982Y1999D02*
X1988Y1999D01*
X2832Y1999D02*
X2838Y1999D01*
X1982Y1998D02*
X1988Y1998D01*
X2832Y1998D02*
X2838Y1998D01*
X1982Y1997D02*
X1988Y1997D01*
X2832Y1997D02*
X2838Y1997D01*
X1982Y1996D02*
X1988Y1996D01*
X2832Y1996D02*
X2838Y1996D01*
X1982Y1995D02*
X1988Y1995D01*
X2832Y1995D02*
X2838Y1995D01*
X1982Y1994D02*
X1988Y1994D01*
X2832Y1994D02*
X2838Y1994D01*
X1982Y1993D02*
X1988Y1993D01*
X2832Y1993D02*
X2838Y1993D01*
X1982Y1992D02*
X1988Y1992D01*
X2831Y1992D02*
X2838Y1992D01*
X1982Y1991D02*
X1988Y1991D01*
X2831Y1991D02*
X2838Y1991D01*
X1982Y1990D02*
X1989Y1990D01*
X2831Y1990D02*
X2838Y1990D01*
X1982Y1989D02*
X1989Y1989D01*
X2831Y1989D02*
X2838Y1989D01*
X1982Y1988D02*
X1989Y1988D01*
X2831Y1988D02*
X2838Y1988D01*
X1982Y1987D02*
X1989Y1987D01*
X2831Y1987D02*
X2837Y1987D01*
X1983Y1986D02*
X1989Y1986D01*
X2831Y1986D02*
X2837Y1986D01*
X1983Y1985D02*
X1989Y1985D01*
X2831Y1985D02*
X2837Y1985D01*
X1983Y1984D02*
X1989Y1984D01*
X2831Y1984D02*
X2837Y1984D01*
X1983Y1983D02*
X1989Y1983D01*
X2831Y1983D02*
X2837Y1983D01*
X1983Y1982D02*
X1989Y1982D01*
X2831Y1982D02*
X2837Y1982D01*
X1983Y1981D02*
X1989Y1981D01*
X2831Y1981D02*
X2837Y1981D01*
X1983Y1980D02*
X1989Y1980D01*
X2831Y1980D02*
X2837Y1980D01*
X1983Y1979D02*
X1989Y1979D01*
X2831Y1979D02*
X2837Y1979D01*
X1983Y1978D02*
X1989Y1978D01*
X2831Y1978D02*
X2837Y1978D01*
X1983Y1977D02*
X1989Y1977D01*
X2830Y1977D02*
X2837Y1977D01*
X1983Y1976D02*
X1990Y1976D01*
X2830Y1976D02*
X2837Y1976D01*
X1983Y1975D02*
X1990Y1975D01*
X2830Y1975D02*
X2837Y1975D01*
X1983Y1974D02*
X1990Y1974D01*
X2830Y1974D02*
X2836Y1974D01*
X1984Y1973D02*
X1990Y1973D01*
X2830Y1973D02*
X2836Y1973D01*
X1984Y1972D02*
X1990Y1972D01*
X2830Y1972D02*
X2836Y1972D01*
X1984Y1971D02*
X1990Y1971D01*
X2830Y1971D02*
X2836Y1971D01*
X1984Y1970D02*
X1990Y1970D01*
X2830Y1970D02*
X2836Y1970D01*
X1984Y1969D02*
X1990Y1969D01*
X2830Y1969D02*
X2836Y1969D01*
X1984Y1968D02*
X1990Y1968D01*
X2830Y1968D02*
X2836Y1968D01*
X1984Y1967D02*
X1990Y1967D01*
X2830Y1967D02*
X2836Y1967D01*
X1984Y1966D02*
X1990Y1966D01*
X2829Y1966D02*
X2836Y1966D01*
X1984Y1965D02*
X1991Y1965D01*
X2829Y1965D02*
X2836Y1965D01*
X1984Y1964D02*
X1991Y1964D01*
X2829Y1964D02*
X2836Y1964D01*
X1984Y1963D02*
X1991Y1963D01*
X2829Y1963D02*
X2835Y1963D01*
X1985Y1962D02*
X1991Y1962D01*
X2829Y1962D02*
X2835Y1962D01*
X1985Y1961D02*
X1991Y1961D01*
X2829Y1961D02*
X2835Y1961D01*
X1985Y1960D02*
X1991Y1960D01*
X2829Y1960D02*
X2835Y1960D01*
X1985Y1959D02*
X1991Y1959D01*
X2829Y1959D02*
X2835Y1959D01*
X1985Y1958D02*
X1991Y1958D01*
X2829Y1958D02*
X2835Y1958D01*
X1985Y1957D02*
X1991Y1957D01*
X2828Y1957D02*
X2835Y1957D01*
X1985Y1956D02*
X1992Y1956D01*
X2828Y1956D02*
X2835Y1956D01*
X1985Y1955D02*
X1992Y1955D01*
X2828Y1955D02*
X2835Y1955D01*
X1985Y1954D02*
X1992Y1954D01*
X2828Y1954D02*
X2834Y1954D01*
X1986Y1953D02*
X1992Y1953D01*
X2828Y1953D02*
X2834Y1953D01*
X1986Y1952D02*
X1992Y1952D01*
X2828Y1952D02*
X2834Y1952D01*
X1986Y1951D02*
X1992Y1951D01*
X2828Y1951D02*
X2834Y1951D01*
X1986Y1950D02*
X1992Y1950D01*
X2828Y1950D02*
X2834Y1950D01*
X1986Y1949D02*
X1992Y1949D01*
X2827Y1949D02*
X2834Y1949D01*
X1986Y1948D02*
X1993Y1948D01*
X2827Y1948D02*
X2834Y1948D01*
X1986Y1947D02*
X1993Y1947D01*
X2827Y1947D02*
X2834Y1947D01*
X1986Y1946D02*
X1993Y1946D01*
X2827Y1946D02*
X2833Y1946D01*
X1987Y1945D02*
X1993Y1945D01*
X2827Y1945D02*
X2833Y1945D01*
X1987Y1944D02*
X1993Y1944D01*
X2827Y1944D02*
X2833Y1944D01*
X1987Y1943D02*
X1993Y1943D01*
X2827Y1943D02*
X2833Y1943D01*
X1987Y1942D02*
X1993Y1942D01*
X2827Y1942D02*
X2833Y1942D01*
X1987Y1941D02*
X1993Y1941D01*
X2826Y1941D02*
X2833Y1941D01*
X1987Y1940D02*
X1994Y1940D01*
X2826Y1940D02*
X2833Y1940D01*
X1987Y1939D02*
X1994Y1939D01*
X2826Y1939D02*
X2833Y1939D01*
X1988Y1938D02*
X1994Y1938D01*
X2826Y1938D02*
X2832Y1938D01*
X1988Y1937D02*
X1994Y1937D01*
X2826Y1937D02*
X2832Y1937D01*
X1988Y1936D02*
X1994Y1936D01*
X2826Y1936D02*
X2832Y1936D01*
X1988Y1935D02*
X1994Y1935D01*
X2826Y1935D02*
X2832Y1935D01*
X1988Y1934D02*
X1995Y1934D01*
X2825Y1934D02*
X2832Y1934D01*
X1988Y1933D02*
X1995Y1933D01*
X2825Y1933D02*
X2832Y1933D01*
X1988Y1932D02*
X1995Y1932D01*
X2825Y1932D02*
X2831Y1932D01*
X1989Y1931D02*
X1995Y1931D01*
X2825Y1931D02*
X2831Y1931D01*
X1989Y1930D02*
X1995Y1930D01*
X2825Y1930D02*
X2831Y1930D01*
X1989Y1929D02*
X1995Y1929D01*
X2825Y1929D02*
X2831Y1929D01*
X1989Y1928D02*
X1995Y1928D01*
X2824Y1928D02*
X2831Y1928D01*
X1989Y1927D02*
X1996Y1927D01*
X2824Y1927D02*
X2831Y1927D01*
X1989Y1926D02*
X1996Y1926D01*
X2824Y1926D02*
X2831Y1926D01*
X1990Y1925D02*
X1996Y1925D01*
X2824Y1925D02*
X2830Y1925D01*
X1990Y1924D02*
X1996Y1924D01*
X2824Y1924D02*
X2830Y1924D01*
X1990Y1923D02*
X1996Y1923D01*
X2824Y1923D02*
X2830Y1923D01*
X1990Y1922D02*
X1996Y1922D01*
X2823Y1922D02*
X2830Y1922D01*
X1990Y1921D02*
X1997Y1921D01*
X2823Y1921D02*
X2830Y1921D01*
X1990Y1920D02*
X1997Y1920D01*
X2823Y1920D02*
X2830Y1920D01*
X1991Y1919D02*
X1997Y1919D01*
X2823Y1919D02*
X2829Y1919D01*
X1991Y1918D02*
X1997Y1918D01*
X2823Y1918D02*
X2829Y1918D01*
X1991Y1917D02*
X1997Y1917D01*
X2823Y1917D02*
X2829Y1917D01*
X1991Y1916D02*
X1998Y1916D01*
X2822Y1916D02*
X2829Y1916D01*
X1991Y1915D02*
X1998Y1915D01*
X2822Y1915D02*
X2829Y1915D01*
X1991Y1914D02*
X1998Y1914D01*
X2822Y1914D02*
X2828Y1914D01*
X1992Y1913D02*
X1998Y1913D01*
X2822Y1913D02*
X2828Y1913D01*
X1992Y1912D02*
X1998Y1912D01*
X2822Y1912D02*
X2828Y1912D01*
X1992Y1911D02*
X1998Y1911D01*
X2821Y1911D02*
X2828Y1911D01*
X1992Y1910D02*
X1999Y1910D01*
X2821Y1910D02*
X2828Y1910D01*
X1992Y1909D02*
X1999Y1909D01*
X2821Y1909D02*
X2828Y1909D01*
X1993Y1908D02*
X1999Y1908D01*
X2821Y1908D02*
X2827Y1908D01*
X1993Y1907D02*
X1999Y1907D01*
X2821Y1907D02*
X2827Y1907D01*
X1993Y1906D02*
X1999Y1906D01*
X2820Y1906D02*
X2827Y1906D01*
X1993Y1905D02*
X2000Y1905D01*
X2820Y1905D02*
X2827Y1905D01*
X1993Y1904D02*
X2000Y1904D01*
X2820Y1904D02*
X2827Y1904D01*
X1994Y1903D02*
X2000Y1903D01*
X2820Y1903D02*
X2826Y1903D01*
X1994Y1902D02*
X2000Y1902D01*
X2820Y1902D02*
X2826Y1902D01*
X1994Y1901D02*
X2000Y1901D01*
X2819Y1901D02*
X2826Y1901D01*
X1994Y1900D02*
X2001Y1900D01*
X2819Y1900D02*
X2826Y1900D01*
X1994Y1899D02*
X2001Y1899D01*
X2819Y1899D02*
X2825Y1899D01*
X1995Y1898D02*
X2001Y1898D01*
X2819Y1898D02*
X2825Y1898D01*
X1995Y1897D02*
X2001Y1897D01*
X2819Y1897D02*
X2825Y1897D01*
X1995Y1896D02*
X2002Y1896D01*
X2818Y1896D02*
X2825Y1896D01*
X1995Y1895D02*
X2002Y1895D01*
X2818Y1895D02*
X2825Y1895D01*
X1995Y1894D02*
X2002Y1894D01*
X2818Y1894D02*
X2824Y1894D01*
X1996Y1893D02*
X2002Y1893D01*
X2818Y1893D02*
X2824Y1893D01*
X1996Y1892D02*
X2002Y1892D01*
X2817Y1892D02*
X2824Y1892D01*
X1996Y1891D02*
X2003Y1891D01*
X2817Y1891D02*
X2824Y1891D01*
X1996Y1890D02*
X2003Y1890D01*
X2817Y1890D02*
X2824Y1890D01*
X1997Y1889D02*
X2003Y1889D01*
X2817Y1889D02*
X2823Y1889D01*
X1997Y1888D02*
X2003Y1888D01*
X2817Y1888D02*
X2823Y1888D01*
X1997Y1887D02*
X2004Y1887D01*
X2816Y1887D02*
X2823Y1887D01*
X1997Y1886D02*
X2004Y1886D01*
X2816Y1886D02*
X2823Y1886D01*
X1997Y1885D02*
X2004Y1885D01*
X2816Y1885D02*
X2822Y1885D01*
X1998Y1884D02*
X2004Y1884D01*
X2816Y1884D02*
X2822Y1884D01*
X1998Y1883D02*
X2005Y1883D01*
X2815Y1883D02*
X2822Y1883D01*
X1998Y1882D02*
X2005Y1882D01*
X2815Y1882D02*
X2822Y1882D01*
X1998Y1881D02*
X2005Y1881D01*
X2815Y1881D02*
X2821Y1881D01*
X1999Y1880D02*
X2005Y1880D01*
X2815Y1880D02*
X2821Y1880D01*
X1999Y1879D02*
X2005Y1879D01*
X2814Y1879D02*
X2821Y1879D01*
X1999Y1878D02*
X2006Y1878D01*
X2814Y1878D02*
X2821Y1878D01*
X1999Y1877D02*
X2006Y1877D01*
X2814Y1877D02*
X2820Y1877D01*
X2000Y1876D02*
X2006Y1876D01*
X2814Y1876D02*
X2820Y1876D01*
X2000Y1875D02*
X2006Y1875D01*
X2813Y1875D02*
X2820Y1875D01*
X2000Y1874D02*
X2007Y1874D01*
X2813Y1874D02*
X2820Y1874D01*
X2000Y1873D02*
X2007Y1873D01*
X2813Y1873D02*
X2819Y1873D01*
X2001Y1872D02*
X2007Y1872D01*
X2813Y1872D02*
X2819Y1872D01*
X2001Y1871D02*
X2008Y1871D01*
X2812Y1871D02*
X2819Y1871D01*
X2001Y1870D02*
X2008Y1870D01*
X2812Y1870D02*
X2819Y1870D01*
X2001Y1869D02*
X2008Y1869D01*
X2812Y1869D02*
X2818Y1869D01*
X2002Y1868D02*
X2008Y1868D01*
X2812Y1868D02*
X2818Y1868D01*
X2002Y1867D02*
X2009Y1867D01*
X2811Y1867D02*
X2818Y1867D01*
X2002Y1866D02*
X2009Y1866D01*
X2811Y1866D02*
X2818Y1866D01*
X2003Y1865D02*
X2009Y1865D01*
X2811Y1865D02*
X2817Y1865D01*
X2003Y1864D02*
X2009Y1864D01*
X2811Y1864D02*
X2817Y1864D01*
X2003Y1863D02*
X2010Y1863D01*
X2810Y1863D02*
X2817Y1863D01*
X2003Y1862D02*
X2010Y1862D01*
X2810Y1862D02*
X2817Y1862D01*
X2004Y1861D02*
X2010Y1861D01*
X2810Y1861D02*
X2816Y1861D01*
X2004Y1860D02*
X2011Y1860D01*
X2809Y1860D02*
X2816Y1860D01*
X2004Y1859D02*
X2011Y1859D01*
X2809Y1859D02*
X2816Y1859D01*
X2004Y1858D02*
X2011Y1858D01*
X2809Y1858D02*
X2815Y1858D01*
X2005Y1857D02*
X2011Y1857D01*
X2809Y1857D02*
X2815Y1857D01*
X2005Y1856D02*
X2012Y1856D01*
X2808Y1856D02*
X2815Y1856D01*
X2005Y1855D02*
X2012Y1855D01*
X2808Y1855D02*
X2815Y1855D01*
X2006Y1854D02*
X2012Y1854D01*
X2808Y1854D02*
X2814Y1854D01*
X2006Y1853D02*
X2013Y1853D01*
X2807Y1853D02*
X2814Y1853D01*
X2006Y1852D02*
X2013Y1852D01*
X2807Y1852D02*
X2814Y1852D01*
X2006Y1851D02*
X2013Y1851D01*
X2807Y1851D02*
X2813Y1851D01*
X2007Y1850D02*
X2013Y1850D01*
X2806Y1850D02*
X2813Y1850D01*
X2007Y1849D02*
X2014Y1849D01*
X2806Y1849D02*
X2813Y1849D01*
X2007Y1848D02*
X2014Y1848D01*
X2806Y1848D02*
X2813Y1848D01*
X2008Y1847D02*
X2014Y1847D01*
X2806Y1847D02*
X2812Y1847D01*
X2008Y1846D02*
X2015Y1846D01*
X2805Y1846D02*
X2812Y1846D01*
X2008Y1845D02*
X2015Y1845D01*
X2805Y1845D02*
X2812Y1845D01*
X2009Y1844D02*
X2015Y1844D01*
X2805Y1844D02*
X2811Y1844D01*
X2009Y1843D02*
X2016Y1843D01*
X2804Y1843D02*
X2811Y1843D01*
X2009Y1842D02*
X2016Y1842D01*
X2804Y1842D02*
X2811Y1842D01*
X2010Y1841D02*
X2016Y1841D01*
X2804Y1841D02*
X2810Y1841D01*
X2010Y1840D02*
X2017Y1840D01*
X2803Y1840D02*
X2810Y1840D01*
X2010Y1839D02*
X2017Y1839D01*
X2803Y1839D02*
X2810Y1839D01*
X2010Y1838D02*
X2017Y1838D01*
X2803Y1838D02*
X2809Y1838D01*
X2011Y1837D02*
X2018Y1837D01*
X2802Y1837D02*
X2809Y1837D01*
X2011Y1836D02*
X2018Y1836D01*
X2802Y1836D02*
X2809Y1836D01*
X2011Y1835D02*
X2018Y1835D01*
X2802Y1835D02*
X2808Y1835D01*
X2012Y1834D02*
X2019Y1834D01*
X2801Y1834D02*
X2808Y1834D01*
X2012Y1833D02*
X2019Y1833D01*
X2801Y1833D02*
X2808Y1833D01*
X2012Y1832D02*
X2019Y1832D01*
X2801Y1832D02*
X2807Y1832D01*
X2013Y1831D02*
X2020Y1831D01*
X2800Y1831D02*
X2807Y1831D01*
X2013Y1830D02*
X2020Y1830D01*
X2800Y1830D02*
X2807Y1830D01*
X2013Y1829D02*
X2020Y1829D01*
X2800Y1829D02*
X2806Y1829D01*
X2014Y1828D02*
X2021Y1828D01*
X2799Y1828D02*
X2806Y1828D01*
X2014Y1827D02*
X2021Y1827D01*
X2799Y1827D02*
X2806Y1827D01*
X2014Y1826D02*
X2021Y1826D01*
X2799Y1826D02*
X2805Y1826D01*
X2015Y1825D02*
X2022Y1825D01*
X2798Y1825D02*
X2805Y1825D01*
X2015Y1824D02*
X2022Y1824D01*
X2798Y1824D02*
X2805Y1824D01*
X2016Y1823D02*
X2022Y1823D01*
X2798Y1823D02*
X2804Y1823D01*
X2016Y1822D02*
X2023Y1822D01*
X2797Y1822D02*
X2804Y1822D01*
X2016Y1821D02*
X2023Y1821D01*
X2797Y1821D02*
X2804Y1821D01*
X2017Y1820D02*
X2023Y1820D01*
X2796Y1820D02*
X2803Y1820D01*
X2017Y1819D02*
X2024Y1819D01*
X2796Y1819D02*
X2803Y1819D01*
X2017Y1818D02*
X2024Y1818D01*
X2796Y1818D02*
X2803Y1818D01*
X2018Y1817D02*
X2025Y1817D01*
X2795Y1817D02*
X2802Y1817D01*
X2018Y1816D02*
X2025Y1816D01*
X2795Y1816D02*
X2802Y1816D01*
X2018Y1815D02*
X2025Y1815D01*
X2795Y1815D02*
X2801Y1815D01*
X2019Y1814D02*
X2026Y1814D01*
X2794Y1814D02*
X2801Y1814D01*
X2019Y1813D02*
X2026Y1813D01*
X2794Y1813D02*
X2801Y1813D01*
X2020Y1812D02*
X2026Y1812D01*
X2793Y1812D02*
X2800Y1812D01*
X2020Y1811D02*
X2027Y1811D01*
X2793Y1811D02*
X2800Y1811D01*
X2020Y1810D02*
X2027Y1810D01*
X2793Y1810D02*
X2800Y1810D01*
X2021Y1809D02*
X2028Y1809D01*
X2792Y1809D02*
X2799Y1809D01*
X2021Y1808D02*
X2028Y1808D01*
X2792Y1808D02*
X2799Y1808D01*
X2022Y1807D02*
X2028Y1807D01*
X2792Y1807D02*
X2798Y1807D01*
X2022Y1806D02*
X2029Y1806D01*
X2791Y1806D02*
X2798Y1806D01*
X2022Y1805D02*
X2029Y1805D01*
X2791Y1805D02*
X2798Y1805D01*
X703Y1804D02*
X706Y1804D01*
X2023Y1804D02*
X2029Y1804D01*
X2790Y1804D02*
X2797Y1804D01*
X3194Y1804D02*
X3197Y1804D01*
X702Y1803D02*
X707Y1803D01*
X2023Y1803D02*
X2030Y1803D01*
X2790Y1803D02*
X2797Y1803D01*
X3193Y1803D02*
X3198Y1803D01*
X701Y1802D02*
X707Y1802D01*
X2023Y1802D02*
X2030Y1802D01*
X2790Y1802D02*
X2797Y1802D01*
X3193Y1802D02*
X3199Y1802D01*
X701Y1801D02*
X708Y1801D01*
X2024Y1801D02*
X2031Y1801D01*
X2789Y1801D02*
X2796Y1801D01*
X3192Y1801D02*
X3199Y1801D01*
X701Y1800D02*
X708Y1800D01*
X2024Y1800D02*
X2031Y1800D01*
X2789Y1800D02*
X2796Y1800D01*
X3192Y1800D02*
X3199Y1800D01*
X701Y1799D02*
X708Y1799D01*
X2025Y1799D02*
X2032Y1799D01*
X2788Y1799D02*
X2795Y1799D01*
X3192Y1799D02*
X3199Y1799D01*
X701Y1798D02*
X708Y1798D01*
X2025Y1798D02*
X2032Y1798D01*
X2788Y1798D02*
X2795Y1798D01*
X3192Y1798D02*
X3199Y1798D01*
X701Y1797D02*
X708Y1797D01*
X2025Y1797D02*
X2032Y1797D01*
X2788Y1797D02*
X2795Y1797D01*
X3192Y1797D02*
X3199Y1797D01*
X701Y1796D02*
X708Y1796D01*
X2026Y1796D02*
X2033Y1796D01*
X2787Y1796D02*
X2794Y1796D01*
X3192Y1796D02*
X3199Y1796D01*
X701Y1795D02*
X708Y1795D01*
X2026Y1795D02*
X2033Y1795D01*
X2787Y1795D02*
X2794Y1795D01*
X3192Y1795D02*
X3199Y1795D01*
X701Y1794D02*
X708Y1794D01*
X2027Y1794D02*
X2034Y1794D01*
X2786Y1794D02*
X2793Y1794D01*
X3192Y1794D02*
X3199Y1794D01*
X701Y1793D02*
X708Y1793D01*
X2027Y1793D02*
X2034Y1793D01*
X2786Y1793D02*
X2793Y1793D01*
X3192Y1793D02*
X3199Y1793D01*
X701Y1792D02*
X708Y1792D01*
X2028Y1792D02*
X2034Y1792D01*
X2785Y1792D02*
X2792Y1792D01*
X3192Y1792D02*
X3199Y1792D01*
X701Y1791D02*
X708Y1791D01*
X2028Y1791D02*
X2035Y1791D01*
X2785Y1791D02*
X2792Y1791D01*
X3192Y1791D02*
X3199Y1791D01*
X701Y1790D02*
X708Y1790D01*
X2028Y1790D02*
X2035Y1790D01*
X2785Y1790D02*
X2792Y1790D01*
X3192Y1790D02*
X3199Y1790D01*
X701Y1789D02*
X708Y1789D01*
X2029Y1789D02*
X2036Y1789D01*
X2784Y1789D02*
X2791Y1789D01*
X3192Y1789D02*
X3199Y1789D01*
X701Y1788D02*
X708Y1788D01*
X2029Y1788D02*
X2036Y1788D01*
X2784Y1788D02*
X2791Y1788D01*
X3192Y1788D02*
X3199Y1788D01*
X701Y1787D02*
X708Y1787D01*
X2030Y1787D02*
X2037Y1787D01*
X2783Y1787D02*
X2790Y1787D01*
X3192Y1787D02*
X3199Y1787D01*
X701Y1786D02*
X708Y1786D01*
X2030Y1786D02*
X2037Y1786D01*
X2783Y1786D02*
X2790Y1786D01*
X3192Y1786D02*
X3199Y1786D01*
X701Y1785D02*
X708Y1785D01*
X2030Y1785D02*
X2037Y1785D01*
X2782Y1785D02*
X2789Y1785D01*
X3192Y1785D02*
X3199Y1785D01*
X701Y1784D02*
X708Y1784D01*
X2031Y1784D02*
X2038Y1784D01*
X2782Y1784D02*
X2789Y1784D01*
X3192Y1784D02*
X3199Y1784D01*
X701Y1783D02*
X708Y1783D01*
X2031Y1783D02*
X2038Y1783D01*
X2782Y1783D02*
X2789Y1783D01*
X3192Y1783D02*
X3199Y1783D01*
X701Y1782D02*
X708Y1782D01*
X2032Y1782D02*
X2039Y1782D01*
X2781Y1782D02*
X2788Y1782D01*
X3192Y1782D02*
X3199Y1782D01*
X701Y1781D02*
X708Y1781D01*
X2032Y1781D02*
X2039Y1781D01*
X2781Y1781D02*
X2788Y1781D01*
X3192Y1781D02*
X3199Y1781D01*
X701Y1780D02*
X708Y1780D01*
X2033Y1780D02*
X2040Y1780D01*
X2780Y1780D02*
X2787Y1780D01*
X3192Y1780D02*
X3199Y1780D01*
X701Y1779D02*
X708Y1779D01*
X2033Y1779D02*
X2040Y1779D01*
X2780Y1779D02*
X2787Y1779D01*
X3192Y1779D02*
X3199Y1779D01*
X701Y1778D02*
X708Y1778D01*
X2033Y1778D02*
X2041Y1778D01*
X2779Y1778D02*
X2786Y1778D01*
X3192Y1778D02*
X3199Y1778D01*
X701Y1777D02*
X708Y1777D01*
X2034Y1777D02*
X2041Y1777D01*
X2779Y1777D02*
X2786Y1777D01*
X3192Y1777D02*
X3199Y1777D01*
X701Y1776D02*
X708Y1776D01*
X2034Y1776D02*
X2042Y1776D01*
X2778Y1776D02*
X2785Y1776D01*
X3192Y1776D02*
X3199Y1776D01*
X701Y1775D02*
X708Y1775D01*
X2035Y1775D02*
X2042Y1775D01*
X2778Y1775D02*
X2785Y1775D01*
X3192Y1775D02*
X3199Y1775D01*
X701Y1774D02*
X708Y1774D01*
X2035Y1774D02*
X2042Y1774D01*
X2777Y1774D02*
X2785Y1774D01*
X3192Y1774D02*
X3199Y1774D01*
X701Y1773D02*
X708Y1773D01*
X2036Y1773D02*
X2043Y1773D01*
X2777Y1773D02*
X2784Y1773D01*
X3192Y1773D02*
X3199Y1773D01*
X701Y1772D02*
X708Y1772D01*
X2036Y1772D02*
X2043Y1772D01*
X2776Y1772D02*
X2784Y1772D01*
X3192Y1772D02*
X3199Y1772D01*
X701Y1771D02*
X708Y1771D01*
X2037Y1771D02*
X2044Y1771D01*
X2776Y1771D02*
X2783Y1771D01*
X3192Y1771D02*
X3199Y1771D01*
X701Y1770D02*
X708Y1770D01*
X2037Y1770D02*
X2044Y1770D01*
X2776Y1770D02*
X2783Y1770D01*
X3192Y1770D02*
X3199Y1770D01*
X701Y1769D02*
X708Y1769D01*
X2038Y1769D02*
X2045Y1769D01*
X2775Y1769D02*
X2782Y1769D01*
X3192Y1769D02*
X3199Y1769D01*
X701Y1768D02*
X708Y1768D01*
X2038Y1768D02*
X2045Y1768D01*
X2775Y1768D02*
X2782Y1768D01*
X3192Y1768D02*
X3199Y1768D01*
X701Y1767D02*
X708Y1767D01*
X2039Y1767D02*
X2046Y1767D01*
X2774Y1767D02*
X2781Y1767D01*
X3192Y1767D02*
X3199Y1767D01*
X701Y1766D02*
X708Y1766D01*
X2039Y1766D02*
X2046Y1766D01*
X2774Y1766D02*
X2781Y1766D01*
X3192Y1766D02*
X3199Y1766D01*
X701Y1765D02*
X708Y1765D01*
X2040Y1765D02*
X2047Y1765D01*
X2773Y1765D02*
X2780Y1765D01*
X3192Y1765D02*
X3199Y1765D01*
X701Y1764D02*
X708Y1764D01*
X2040Y1764D02*
X2047Y1764D01*
X2773Y1764D02*
X2780Y1764D01*
X3192Y1764D02*
X3199Y1764D01*
X701Y1763D02*
X708Y1763D01*
X2041Y1763D02*
X2048Y1763D01*
X2772Y1763D02*
X2779Y1763D01*
X3192Y1763D02*
X3199Y1763D01*
X701Y1762D02*
X708Y1762D01*
X2041Y1762D02*
X2048Y1762D01*
X2772Y1762D02*
X2779Y1762D01*
X3192Y1762D02*
X3199Y1762D01*
X701Y1761D02*
X708Y1761D01*
X2041Y1761D02*
X2049Y1761D01*
X2771Y1761D02*
X2778Y1761D01*
X3192Y1761D02*
X3199Y1761D01*
X701Y1760D02*
X708Y1760D01*
X2042Y1760D02*
X2049Y1760D01*
X2771Y1760D02*
X2778Y1760D01*
X3192Y1760D02*
X3199Y1760D01*
X701Y1759D02*
X708Y1759D01*
X2042Y1759D02*
X2050Y1759D01*
X2770Y1759D02*
X2777Y1759D01*
X3192Y1759D02*
X3199Y1759D01*
X701Y1758D02*
X708Y1758D01*
X2043Y1758D02*
X2050Y1758D01*
X2770Y1758D02*
X2777Y1758D01*
X3192Y1758D02*
X3199Y1758D01*
X701Y1757D02*
X708Y1757D01*
X2043Y1757D02*
X2051Y1757D01*
X2769Y1757D02*
X2776Y1757D01*
X3192Y1757D02*
X3199Y1757D01*
X701Y1756D02*
X708Y1756D01*
X2044Y1756D02*
X2051Y1756D01*
X2769Y1756D02*
X2776Y1756D01*
X3192Y1756D02*
X3199Y1756D01*
X701Y1755D02*
X708Y1755D01*
X2045Y1755D02*
X2052Y1755D01*
X2768Y1755D02*
X2775Y1755D01*
X3192Y1755D02*
X3199Y1755D01*
X701Y1754D02*
X708Y1754D01*
X2045Y1754D02*
X2052Y1754D01*
X2768Y1754D02*
X2775Y1754D01*
X3192Y1754D02*
X3199Y1754D01*
X701Y1753D02*
X708Y1753D01*
X2046Y1753D02*
X2053Y1753D01*
X2767Y1753D02*
X2774Y1753D01*
X3192Y1753D02*
X3199Y1753D01*
X701Y1752D02*
X708Y1752D01*
X2046Y1752D02*
X2053Y1752D01*
X2767Y1752D02*
X2774Y1752D01*
X3192Y1752D02*
X3199Y1752D01*
X701Y1751D02*
X708Y1751D01*
X2047Y1751D02*
X2054Y1751D01*
X2766Y1751D02*
X2773Y1751D01*
X3192Y1751D02*
X3199Y1751D01*
X701Y1750D02*
X708Y1750D01*
X2047Y1750D02*
X2054Y1750D01*
X2766Y1750D02*
X2773Y1750D01*
X3192Y1750D02*
X3199Y1750D01*
X701Y1749D02*
X708Y1749D01*
X2048Y1749D02*
X2055Y1749D01*
X2765Y1749D02*
X2772Y1749D01*
X3192Y1749D02*
X3199Y1749D01*
X701Y1748D02*
X708Y1748D01*
X2048Y1748D02*
X2055Y1748D01*
X2764Y1748D02*
X2772Y1748D01*
X3192Y1748D02*
X3199Y1748D01*
X701Y1747D02*
X708Y1747D01*
X2049Y1747D02*
X2056Y1747D01*
X2764Y1747D02*
X2771Y1747D01*
X3192Y1747D02*
X3199Y1747D01*
X701Y1746D02*
X708Y1746D01*
X2049Y1746D02*
X2056Y1746D01*
X2763Y1746D02*
X2771Y1746D01*
X3192Y1746D02*
X3199Y1746D01*
X701Y1745D02*
X708Y1745D01*
X2050Y1745D02*
X2057Y1745D01*
X2763Y1745D02*
X2770Y1745D01*
X3192Y1745D02*
X3199Y1745D01*
X701Y1744D02*
X708Y1744D01*
X2050Y1744D02*
X2058Y1744D01*
X2762Y1744D02*
X2770Y1744D01*
X3192Y1744D02*
X3199Y1744D01*
X701Y1743D02*
X708Y1743D01*
X2051Y1743D02*
X2058Y1743D01*
X2762Y1743D02*
X2769Y1743D01*
X3192Y1743D02*
X3199Y1743D01*
X701Y1742D02*
X708Y1742D01*
X2051Y1742D02*
X2059Y1742D01*
X2761Y1742D02*
X2769Y1742D01*
X3192Y1742D02*
X3199Y1742D01*
X701Y1741D02*
X708Y1741D01*
X2052Y1741D02*
X2059Y1741D01*
X2761Y1741D02*
X2768Y1741D01*
X3192Y1741D02*
X3199Y1741D01*
X701Y1740D02*
X708Y1740D01*
X2052Y1740D02*
X2060Y1740D01*
X2760Y1740D02*
X2768Y1740D01*
X3192Y1740D02*
X3199Y1740D01*
X701Y1739D02*
X708Y1739D01*
X2053Y1739D02*
X2060Y1739D01*
X2760Y1739D02*
X2767Y1739D01*
X3192Y1739D02*
X3199Y1739D01*
X701Y1738D02*
X708Y1738D01*
X2053Y1738D02*
X2061Y1738D01*
X2759Y1738D02*
X2766Y1738D01*
X3192Y1738D02*
X3199Y1738D01*
X701Y1737D02*
X708Y1737D01*
X2054Y1737D02*
X2062Y1737D01*
X2758Y1737D02*
X2766Y1737D01*
X3192Y1737D02*
X3199Y1737D01*
X701Y1736D02*
X708Y1736D01*
X2055Y1736D02*
X2062Y1736D01*
X2758Y1736D02*
X2765Y1736D01*
X3192Y1736D02*
X3199Y1736D01*
X701Y1735D02*
X708Y1735D01*
X2055Y1735D02*
X2063Y1735D01*
X2757Y1735D02*
X2765Y1735D01*
X3192Y1735D02*
X3199Y1735D01*
X701Y1734D02*
X708Y1734D01*
X2056Y1734D02*
X2063Y1734D01*
X2757Y1734D02*
X2764Y1734D01*
X3192Y1734D02*
X3199Y1734D01*
X701Y1733D02*
X708Y1733D01*
X2056Y1733D02*
X2064Y1733D01*
X2756Y1733D02*
X2764Y1733D01*
X3192Y1733D02*
X3199Y1733D01*
X701Y1732D02*
X708Y1732D01*
X2057Y1732D02*
X2064Y1732D01*
X2756Y1732D02*
X2763Y1732D01*
X3192Y1732D02*
X3199Y1732D01*
X701Y1731D02*
X708Y1731D01*
X2057Y1731D02*
X2065Y1731D01*
X2755Y1731D02*
X2762Y1731D01*
X3192Y1731D02*
X3199Y1731D01*
X701Y1730D02*
X708Y1730D01*
X2058Y1730D02*
X2065Y1730D01*
X2754Y1730D02*
X2762Y1730D01*
X3192Y1730D02*
X3199Y1730D01*
X701Y1729D02*
X708Y1729D01*
X2059Y1729D02*
X2066Y1729D01*
X2754Y1729D02*
X2761Y1729D01*
X3192Y1729D02*
X3199Y1729D01*
X701Y1728D02*
X708Y1728D01*
X2059Y1728D02*
X2067Y1728D01*
X2753Y1728D02*
X2761Y1728D01*
X3192Y1728D02*
X3199Y1728D01*
X701Y1727D02*
X708Y1727D01*
X2060Y1727D02*
X2067Y1727D01*
X2753Y1727D02*
X2760Y1727D01*
X3192Y1727D02*
X3199Y1727D01*
X701Y1726D02*
X708Y1726D01*
X2060Y1726D02*
X2068Y1726D01*
X2752Y1726D02*
X2760Y1726D01*
X3192Y1726D02*
X3199Y1726D01*
X701Y1725D02*
X708Y1725D01*
X2061Y1725D02*
X2068Y1725D01*
X2752Y1725D02*
X2759Y1725D01*
X3192Y1725D02*
X3199Y1725D01*
X701Y1724D02*
X708Y1724D01*
X2061Y1724D02*
X2069Y1724D01*
X2751Y1724D02*
X2758Y1724D01*
X3192Y1724D02*
X3199Y1724D01*
X701Y1723D02*
X708Y1723D01*
X2062Y1723D02*
X2070Y1723D01*
X2750Y1723D02*
X2758Y1723D01*
X3192Y1723D02*
X3199Y1723D01*
X701Y1722D02*
X708Y1722D01*
X2063Y1722D02*
X2070Y1722D01*
X2750Y1722D02*
X2757Y1722D01*
X3192Y1722D02*
X3199Y1722D01*
X701Y1721D02*
X708Y1721D01*
X2063Y1721D02*
X2071Y1721D01*
X2749Y1721D02*
X2757Y1721D01*
X3192Y1721D02*
X3199Y1721D01*
X701Y1720D02*
X708Y1720D01*
X2064Y1720D02*
X2072Y1720D01*
X2748Y1720D02*
X2756Y1720D01*
X3192Y1720D02*
X3199Y1720D01*
X701Y1719D02*
X708Y1719D01*
X2064Y1719D02*
X2072Y1719D01*
X2748Y1719D02*
X2755Y1719D01*
X3192Y1719D02*
X3199Y1719D01*
X701Y1718D02*
X708Y1718D01*
X2065Y1718D02*
X2073Y1718D01*
X2747Y1718D02*
X2755Y1718D01*
X3192Y1718D02*
X3199Y1718D01*
X701Y1717D02*
X708Y1717D01*
X2066Y1717D02*
X2073Y1717D01*
X2747Y1717D02*
X2754Y1717D01*
X3192Y1717D02*
X3199Y1717D01*
X701Y1716D02*
X708Y1716D01*
X2066Y1716D02*
X2074Y1716D01*
X2746Y1716D02*
X2754Y1716D01*
X3192Y1716D02*
X3199Y1716D01*
X701Y1715D02*
X708Y1715D01*
X2067Y1715D02*
X2075Y1715D01*
X2745Y1715D02*
X2753Y1715D01*
X3192Y1715D02*
X3199Y1715D01*
X701Y1714D02*
X708Y1714D01*
X2068Y1714D02*
X2075Y1714D01*
X2745Y1714D02*
X2752Y1714D01*
X3192Y1714D02*
X3199Y1714D01*
X701Y1713D02*
X708Y1713D01*
X2068Y1713D02*
X2076Y1713D01*
X2744Y1713D02*
X2752Y1713D01*
X3192Y1713D02*
X3199Y1713D01*
X701Y1712D02*
X708Y1712D01*
X2069Y1712D02*
X2076Y1712D01*
X2743Y1712D02*
X2751Y1712D01*
X3192Y1712D02*
X3199Y1712D01*
X701Y1711D02*
X708Y1711D01*
X2069Y1711D02*
X2077Y1711D01*
X2743Y1711D02*
X2750Y1711D01*
X3192Y1711D02*
X3199Y1711D01*
X701Y1710D02*
X708Y1710D01*
X2070Y1710D02*
X2078Y1710D01*
X2742Y1710D02*
X2750Y1710D01*
X3192Y1710D02*
X3199Y1710D01*
X701Y1709D02*
X708Y1709D01*
X2071Y1709D02*
X2078Y1709D01*
X2742Y1709D02*
X2749Y1709D01*
X3192Y1709D02*
X3199Y1709D01*
X701Y1708D02*
X708Y1708D01*
X2071Y1708D02*
X2079Y1708D01*
X2741Y1708D02*
X2749Y1708D01*
X3192Y1708D02*
X3199Y1708D01*
X701Y1707D02*
X708Y1707D01*
X2072Y1707D02*
X2080Y1707D01*
X2740Y1707D02*
X2748Y1707D01*
X3192Y1707D02*
X3199Y1707D01*
X701Y1706D02*
X708Y1706D01*
X2073Y1706D02*
X2080Y1706D01*
X2740Y1706D02*
X2747Y1706D01*
X3192Y1706D02*
X3199Y1706D01*
X701Y1705D02*
X708Y1705D01*
X2073Y1705D02*
X2081Y1705D01*
X2739Y1705D02*
X2747Y1705D01*
X3192Y1705D02*
X3199Y1705D01*
X701Y1704D02*
X708Y1704D01*
X2074Y1704D02*
X2082Y1704D01*
X2738Y1704D02*
X2746Y1704D01*
X3192Y1704D02*
X3199Y1704D01*
X701Y1703D02*
X708Y1703D01*
X2074Y1703D02*
X2082Y1703D01*
X2737Y1703D02*
X2745Y1703D01*
X3192Y1703D02*
X3199Y1703D01*
X701Y1702D02*
X708Y1702D01*
X2075Y1702D02*
X2083Y1702D01*
X2737Y1702D02*
X2745Y1702D01*
X3192Y1702D02*
X3199Y1702D01*
X701Y1701D02*
X708Y1701D01*
X2076Y1701D02*
X2084Y1701D01*
X2736Y1701D02*
X2744Y1701D01*
X3192Y1701D02*
X3199Y1701D01*
X701Y1700D02*
X708Y1700D01*
X2077Y1700D02*
X2084Y1700D01*
X2735Y1700D02*
X2743Y1700D01*
X3192Y1700D02*
X3199Y1700D01*
X701Y1699D02*
X708Y1699D01*
X2077Y1699D02*
X2085Y1699D01*
X2735Y1699D02*
X2743Y1699D01*
X3192Y1699D02*
X3199Y1699D01*
X701Y1698D02*
X708Y1698D01*
X2078Y1698D02*
X2086Y1698D01*
X2734Y1698D02*
X2742Y1698D01*
X3192Y1698D02*
X3199Y1698D01*
X701Y1697D02*
X708Y1697D01*
X2079Y1697D02*
X2087Y1697D01*
X2733Y1697D02*
X2741Y1697D01*
X3192Y1697D02*
X3199Y1697D01*
X701Y1696D02*
X708Y1696D01*
X2079Y1696D02*
X2087Y1696D01*
X2733Y1696D02*
X2741Y1696D01*
X3192Y1696D02*
X3199Y1696D01*
X701Y1695D02*
X708Y1695D01*
X2080Y1695D02*
X2088Y1695D01*
X2732Y1695D02*
X2740Y1695D01*
X3192Y1695D02*
X3199Y1695D01*
X701Y1694D02*
X708Y1694D01*
X2081Y1694D02*
X2089Y1694D01*
X2731Y1694D02*
X2739Y1694D01*
X3192Y1694D02*
X3199Y1694D01*
X701Y1693D02*
X708Y1693D01*
X2081Y1693D02*
X2089Y1693D01*
X2731Y1693D02*
X2739Y1693D01*
X3192Y1693D02*
X3199Y1693D01*
X701Y1692D02*
X708Y1692D01*
X2082Y1692D02*
X2090Y1692D01*
X2730Y1692D02*
X2738Y1692D01*
X3192Y1692D02*
X3199Y1692D01*
X701Y1691D02*
X708Y1691D01*
X2083Y1691D02*
X2091Y1691D01*
X2729Y1691D02*
X2737Y1691D01*
X3192Y1691D02*
X3199Y1691D01*
X701Y1690D02*
X708Y1690D01*
X2083Y1690D02*
X2091Y1690D01*
X2728Y1690D02*
X2737Y1690D01*
X3192Y1690D02*
X3199Y1690D01*
X701Y1689D02*
X708Y1689D01*
X2084Y1689D02*
X2092Y1689D01*
X2728Y1689D02*
X2736Y1689D01*
X3192Y1689D02*
X3199Y1689D01*
X701Y1688D02*
X708Y1688D01*
X2085Y1688D02*
X2093Y1688D01*
X2727Y1688D02*
X2735Y1688D01*
X3192Y1688D02*
X3199Y1688D01*
X701Y1687D02*
X708Y1687D01*
X2085Y1687D02*
X2094Y1687D01*
X2726Y1687D02*
X2735Y1687D01*
X3192Y1687D02*
X3199Y1687D01*
X702Y1686D02*
X708Y1686D01*
X2086Y1686D02*
X2094Y1686D01*
X2726Y1686D02*
X2734Y1686D01*
X3192Y1686D02*
X3199Y1686D01*
X702Y1685D02*
X708Y1685D01*
X2087Y1685D02*
X2095Y1685D01*
X2725Y1685D02*
X2733Y1685D01*
X3192Y1685D02*
X3199Y1685D01*
X702Y1684D02*
X708Y1684D01*
X2088Y1684D02*
X2096Y1684D01*
X2724Y1684D02*
X2732Y1684D01*
X3192Y1684D02*
X3199Y1684D01*
X702Y1683D02*
X708Y1683D01*
X2088Y1683D02*
X2097Y1683D01*
X2723Y1683D02*
X2732Y1683D01*
X3192Y1683D02*
X3199Y1683D01*
X702Y1682D02*
X708Y1682D01*
X2089Y1682D02*
X2097Y1682D01*
X2723Y1682D02*
X2731Y1682D01*
X3192Y1682D02*
X3199Y1682D01*
X703Y1681D02*
X708Y1681D01*
X2090Y1681D02*
X2098Y1681D01*
X2722Y1681D02*
X2730Y1681D01*
X3192Y1681D02*
X3199Y1681D01*
X703Y1680D02*
X708Y1680D01*
X2091Y1680D02*
X2099Y1680D01*
X2721Y1680D02*
X2729Y1680D01*
X3192Y1680D02*
X3199Y1680D01*
X703Y1679D02*
X708Y1679D01*
X2091Y1679D02*
X2100Y1679D01*
X2720Y1679D02*
X2729Y1679D01*
X3192Y1679D02*
X3199Y1679D01*
X703Y1678D02*
X708Y1678D01*
X2092Y1678D02*
X2100Y1678D01*
X2720Y1678D02*
X2728Y1678D01*
X3192Y1678D02*
X3199Y1678D01*
X703Y1677D02*
X708Y1677D01*
X2093Y1677D02*
X2101Y1677D01*
X2719Y1677D02*
X2727Y1677D01*
X3192Y1677D02*
X3199Y1677D01*
X703Y1676D02*
X708Y1676D01*
X2094Y1676D02*
X2102Y1676D01*
X2718Y1676D02*
X2726Y1676D01*
X3192Y1676D02*
X3199Y1676D01*
X703Y1675D02*
X708Y1675D01*
X2094Y1675D02*
X2103Y1675D01*
X2717Y1675D02*
X2726Y1675D01*
X3192Y1675D02*
X3199Y1675D01*
X703Y1674D02*
X708Y1674D01*
X2095Y1674D02*
X2103Y1674D01*
X2717Y1674D02*
X2725Y1674D01*
X3192Y1674D02*
X3199Y1674D01*
X703Y1673D02*
X708Y1673D01*
X2096Y1673D02*
X2104Y1673D01*
X2716Y1673D02*
X2724Y1673D01*
X3192Y1673D02*
X3199Y1673D01*
X703Y1672D02*
X708Y1672D01*
X2096Y1672D02*
X2105Y1672D01*
X2715Y1672D02*
X2723Y1672D01*
X3192Y1672D02*
X3199Y1672D01*
X703Y1671D02*
X708Y1671D01*
X2097Y1671D02*
X2106Y1671D01*
X2714Y1671D02*
X2723Y1671D01*
X3192Y1671D02*
X3199Y1671D01*
X703Y1670D02*
X708Y1670D01*
X2098Y1670D02*
X2107Y1670D01*
X2713Y1670D02*
X2722Y1670D01*
X3192Y1670D02*
X3199Y1670D01*
X702Y1669D02*
X708Y1669D01*
X2099Y1669D02*
X2107Y1669D01*
X2712Y1669D02*
X2721Y1669D01*
X3192Y1669D02*
X3199Y1669D01*
X702Y1668D02*
X708Y1668D01*
X2100Y1668D02*
X2108Y1668D01*
X2712Y1668D02*
X2720Y1668D01*
X3192Y1668D02*
X3199Y1668D01*
X702Y1667D02*
X708Y1667D01*
X2100Y1667D02*
X2109Y1667D01*
X2711Y1667D02*
X2719Y1667D01*
X3192Y1667D02*
X3199Y1667D01*
X702Y1666D02*
X708Y1666D01*
X2101Y1666D02*
X2110Y1666D01*
X2710Y1666D02*
X2719Y1666D01*
X3192Y1666D02*
X3199Y1666D01*
X702Y1665D02*
X708Y1665D01*
X2102Y1665D02*
X2111Y1665D01*
X2709Y1665D02*
X2718Y1665D01*
X3192Y1665D02*
X3199Y1665D01*
X701Y1664D02*
X708Y1664D01*
X2103Y1664D02*
X2111Y1664D01*
X2708Y1664D02*
X2717Y1664D01*
X3192Y1664D02*
X3199Y1664D01*
X701Y1663D02*
X708Y1663D01*
X2104Y1663D02*
X2112Y1663D01*
X2708Y1663D02*
X2716Y1663D01*
X3192Y1663D02*
X3199Y1663D01*
X701Y1662D02*
X708Y1662D01*
X2104Y1662D02*
X2113Y1662D01*
X2707Y1662D02*
X2715Y1662D01*
X3192Y1662D02*
X3199Y1662D01*
X701Y1661D02*
X708Y1661D01*
X2105Y1661D02*
X2114Y1661D01*
X2706Y1661D02*
X2715Y1661D01*
X3192Y1661D02*
X3199Y1661D01*
X701Y1660D02*
X708Y1660D01*
X2106Y1660D02*
X2115Y1660D01*
X2705Y1660D02*
X2714Y1660D01*
X3192Y1660D02*
X3199Y1660D01*
X701Y1659D02*
X708Y1659D01*
X2107Y1659D02*
X2116Y1659D01*
X2704Y1659D02*
X2713Y1659D01*
X3192Y1659D02*
X3199Y1659D01*
X701Y1658D02*
X708Y1658D01*
X2108Y1658D02*
X2116Y1658D01*
X2703Y1658D02*
X2712Y1658D01*
X3192Y1658D02*
X3199Y1658D01*
X701Y1657D02*
X708Y1657D01*
X2108Y1657D02*
X2117Y1657D01*
X2703Y1657D02*
X2711Y1657D01*
X3192Y1657D02*
X3199Y1657D01*
X701Y1656D02*
X708Y1656D01*
X2109Y1656D02*
X2118Y1656D01*
X2702Y1656D02*
X2711Y1656D01*
X3192Y1656D02*
X3199Y1656D01*
X701Y1655D02*
X708Y1655D01*
X2110Y1655D02*
X2119Y1655D01*
X2701Y1655D02*
X2710Y1655D01*
X3192Y1655D02*
X3199Y1655D01*
X701Y1654D02*
X708Y1654D01*
X2111Y1654D02*
X2120Y1654D01*
X2700Y1654D02*
X2709Y1654D01*
X3192Y1654D02*
X3199Y1654D01*
X701Y1653D02*
X708Y1653D01*
X2112Y1653D02*
X2121Y1653D01*
X2699Y1653D02*
X2708Y1653D01*
X3192Y1653D02*
X3199Y1653D01*
X701Y1652D02*
X708Y1652D01*
X2113Y1652D02*
X2122Y1652D01*
X2698Y1652D02*
X2707Y1652D01*
X3192Y1652D02*
X3199Y1652D01*
X701Y1651D02*
X708Y1651D01*
X2114Y1651D02*
X2123Y1651D01*
X2697Y1651D02*
X2706Y1651D01*
X3192Y1651D02*
X3199Y1651D01*
X701Y1650D02*
X708Y1650D01*
X2114Y1650D02*
X2123Y1650D01*
X2696Y1650D02*
X2705Y1650D01*
X3192Y1650D02*
X3199Y1650D01*
X701Y1649D02*
X708Y1649D01*
X2115Y1649D02*
X2124Y1649D01*
X2696Y1649D02*
X2705Y1649D01*
X3192Y1649D02*
X3199Y1649D01*
X701Y1648D02*
X708Y1648D01*
X2116Y1648D02*
X2125Y1648D01*
X2695Y1648D02*
X2704Y1648D01*
X3192Y1648D02*
X3199Y1648D01*
X701Y1647D02*
X708Y1647D01*
X2117Y1647D02*
X2126Y1647D01*
X2694Y1647D02*
X2703Y1647D01*
X3192Y1647D02*
X3199Y1647D01*
X701Y1646D02*
X708Y1646D01*
X2118Y1646D02*
X2127Y1646D01*
X2693Y1646D02*
X2702Y1646D01*
X3192Y1646D02*
X3199Y1646D01*
X701Y1645D02*
X708Y1645D01*
X2119Y1645D02*
X2128Y1645D01*
X2692Y1645D02*
X2701Y1645D01*
X3192Y1645D02*
X3199Y1645D01*
X701Y1644D02*
X708Y1644D01*
X2120Y1644D02*
X2129Y1644D01*
X2691Y1644D02*
X2700Y1644D01*
X3192Y1644D02*
X3199Y1644D01*
X701Y1643D02*
X708Y1643D01*
X2121Y1643D02*
X2130Y1643D01*
X2690Y1643D02*
X2699Y1643D01*
X3192Y1643D02*
X3199Y1643D01*
X701Y1642D02*
X708Y1642D01*
X2121Y1642D02*
X2131Y1642D01*
X2689Y1642D02*
X2698Y1642D01*
X3192Y1642D02*
X3199Y1642D01*
X701Y1641D02*
X708Y1641D01*
X2122Y1641D02*
X2132Y1641D01*
X2688Y1641D02*
X2698Y1641D01*
X3192Y1641D02*
X3199Y1641D01*
X701Y1640D02*
X708Y1640D01*
X2123Y1640D02*
X2133Y1640D01*
X2687Y1640D02*
X2697Y1640D01*
X3192Y1640D02*
X3199Y1640D01*
X701Y1639D02*
X708Y1639D01*
X2124Y1639D02*
X2134Y1639D01*
X2686Y1639D02*
X2696Y1639D01*
X3192Y1639D02*
X3199Y1639D01*
X701Y1638D02*
X708Y1638D01*
X2125Y1638D02*
X2135Y1638D01*
X2685Y1638D02*
X2695Y1638D01*
X3192Y1638D02*
X3199Y1638D01*
X701Y1637D02*
X708Y1637D01*
X2126Y1637D02*
X2136Y1637D01*
X2684Y1637D02*
X2694Y1637D01*
X3192Y1637D02*
X3199Y1637D01*
X701Y1636D02*
X708Y1636D01*
X2127Y1636D02*
X2137Y1636D01*
X2683Y1636D02*
X2693Y1636D01*
X3192Y1636D02*
X3198Y1636D01*
X701Y1635D02*
X708Y1635D01*
X2128Y1635D02*
X2137Y1635D01*
X2682Y1635D02*
X2692Y1635D01*
X3192Y1635D02*
X3198Y1635D01*
X701Y1634D02*
X708Y1634D01*
X2129Y1634D02*
X2138Y1634D01*
X2681Y1634D02*
X2691Y1634D01*
X3192Y1634D02*
X3198Y1634D01*
X701Y1633D02*
X708Y1633D01*
X2130Y1633D02*
X2139Y1633D01*
X2681Y1633D02*
X2690Y1633D01*
X3192Y1633D02*
X3198Y1633D01*
X701Y1632D02*
X708Y1632D01*
X2131Y1632D02*
X2140Y1632D01*
X2680Y1632D02*
X2689Y1632D01*
X3192Y1632D02*
X3198Y1632D01*
X701Y1631D02*
X708Y1631D01*
X2132Y1631D02*
X2141Y1631D01*
X2679Y1631D02*
X2688Y1631D01*
X3192Y1631D02*
X3197Y1631D01*
X701Y1630D02*
X708Y1630D01*
X2133Y1630D02*
X2142Y1630D01*
X2678Y1630D02*
X2687Y1630D01*
X3192Y1630D02*
X3197Y1630D01*
X701Y1629D02*
X708Y1629D01*
X2134Y1629D02*
X2143Y1629D01*
X2676Y1629D02*
X2686Y1629D01*
X3192Y1629D02*
X3197Y1629D01*
X701Y1628D02*
X708Y1628D01*
X2135Y1628D02*
X2144Y1628D01*
X2675Y1628D02*
X2685Y1628D01*
X3192Y1628D02*
X3197Y1628D01*
X701Y1627D02*
X708Y1627D01*
X2136Y1627D02*
X2146Y1627D01*
X2674Y1627D02*
X2684Y1627D01*
X3192Y1627D02*
X3197Y1627D01*
X701Y1626D02*
X708Y1626D01*
X2137Y1626D02*
X2147Y1626D01*
X2673Y1626D02*
X2683Y1626D01*
X3192Y1626D02*
X3197Y1626D01*
X701Y1625D02*
X708Y1625D01*
X2138Y1625D02*
X2148Y1625D01*
X2672Y1625D02*
X2682Y1625D01*
X3192Y1625D02*
X3197Y1625D01*
X701Y1624D02*
X708Y1624D01*
X2139Y1624D02*
X2149Y1624D01*
X2671Y1624D02*
X2681Y1624D01*
X3192Y1624D02*
X3197Y1624D01*
X701Y1623D02*
X708Y1623D01*
X2140Y1623D02*
X2150Y1623D01*
X2670Y1623D02*
X2680Y1623D01*
X3192Y1623D02*
X3197Y1623D01*
X701Y1622D02*
X708Y1622D01*
X2141Y1622D02*
X2151Y1622D01*
X2669Y1622D02*
X2679Y1622D01*
X3192Y1622D02*
X3197Y1622D01*
X701Y1621D02*
X708Y1621D01*
X2142Y1621D02*
X2152Y1621D01*
X2668Y1621D02*
X2678Y1621D01*
X3192Y1621D02*
X3197Y1621D01*
X701Y1620D02*
X708Y1620D01*
X2143Y1620D02*
X2153Y1620D01*
X2667Y1620D02*
X2677Y1620D01*
X3192Y1620D02*
X3197Y1620D01*
X701Y1619D02*
X708Y1619D01*
X2144Y1619D02*
X2154Y1619D01*
X2666Y1619D02*
X2676Y1619D01*
X3192Y1619D02*
X3198Y1619D01*
X701Y1618D02*
X708Y1618D01*
X2145Y1618D02*
X2155Y1618D01*
X2665Y1618D02*
X2675Y1618D01*
X3192Y1618D02*
X3198Y1618D01*
X701Y1617D02*
X708Y1617D01*
X2146Y1617D02*
X2156Y1617D01*
X2664Y1617D02*
X2674Y1617D01*
X3192Y1617D02*
X3198Y1617D01*
X701Y1616D02*
X708Y1616D01*
X2147Y1616D02*
X2157Y1616D01*
X2663Y1616D02*
X2673Y1616D01*
X3192Y1616D02*
X3198Y1616D01*
X701Y1615D02*
X708Y1615D01*
X2148Y1615D02*
X2158Y1615D01*
X2662Y1615D02*
X2672Y1615D01*
X3192Y1615D02*
X3198Y1615D01*
X701Y1614D02*
X708Y1614D01*
X2149Y1614D02*
X2159Y1614D01*
X2660Y1614D02*
X2671Y1614D01*
X3192Y1614D02*
X3199Y1614D01*
X701Y1613D02*
X708Y1613D01*
X2150Y1613D02*
X2161Y1613D01*
X2659Y1613D02*
X2670Y1613D01*
X3192Y1613D02*
X3199Y1613D01*
X701Y1612D02*
X708Y1612D01*
X2151Y1612D02*
X2162Y1612D01*
X2658Y1612D02*
X2669Y1612D01*
X3192Y1612D02*
X3199Y1612D01*
X701Y1611D02*
X708Y1611D01*
X2152Y1611D02*
X2163Y1611D01*
X2657Y1611D02*
X2668Y1611D01*
X3192Y1611D02*
X3199Y1611D01*
X701Y1610D02*
X708Y1610D01*
X2153Y1610D02*
X2164Y1610D01*
X2656Y1610D02*
X2667Y1610D01*
X3192Y1610D02*
X3199Y1610D01*
X701Y1609D02*
X708Y1609D01*
X2154Y1609D02*
X2165Y1609D01*
X2655Y1609D02*
X2665Y1609D01*
X3192Y1609D02*
X3199Y1609D01*
X701Y1608D02*
X708Y1608D01*
X2156Y1608D02*
X2166Y1608D01*
X2654Y1608D02*
X2664Y1608D01*
X3192Y1608D02*
X3199Y1608D01*
X701Y1607D02*
X708Y1607D01*
X2157Y1607D02*
X2167Y1607D01*
X2653Y1607D02*
X2663Y1607D01*
X3192Y1607D02*
X3199Y1607D01*
X701Y1606D02*
X708Y1606D01*
X2158Y1606D02*
X2169Y1606D01*
X2651Y1606D02*
X2662Y1606D01*
X3192Y1606D02*
X3199Y1606D01*
X701Y1605D02*
X708Y1605D01*
X2159Y1605D02*
X2170Y1605D01*
X2650Y1605D02*
X2661Y1605D01*
X3192Y1605D02*
X3199Y1605D01*
X701Y1604D02*
X708Y1604D01*
X2160Y1604D02*
X2171Y1604D01*
X2649Y1604D02*
X2660Y1604D01*
X3192Y1604D02*
X3199Y1604D01*
X701Y1603D02*
X708Y1603D01*
X2161Y1603D02*
X2172Y1603D01*
X2648Y1603D02*
X2659Y1603D01*
X3192Y1603D02*
X3199Y1603D01*
X701Y1602D02*
X708Y1602D01*
X2162Y1602D02*
X2173Y1602D01*
X2646Y1602D02*
X2658Y1602D01*
X3192Y1602D02*
X3199Y1602D01*
X701Y1601D02*
X708Y1601D01*
X2164Y1601D02*
X2175Y1601D01*
X2645Y1601D02*
X2656Y1601D01*
X3192Y1601D02*
X3199Y1601D01*
X701Y1600D02*
X708Y1600D01*
X2165Y1600D02*
X2176Y1600D01*
X2644Y1600D02*
X2655Y1600D01*
X3192Y1600D02*
X3199Y1600D01*
X701Y1599D02*
X708Y1599D01*
X2166Y1599D02*
X2177Y1599D01*
X2643Y1599D02*
X2654Y1599D01*
X3192Y1599D02*
X3199Y1599D01*
X701Y1598D02*
X708Y1598D01*
X2167Y1598D02*
X2178Y1598D01*
X2641Y1598D02*
X2653Y1598D01*
X3192Y1598D02*
X3199Y1598D01*
X701Y1597D02*
X708Y1597D01*
X2168Y1597D02*
X2180Y1597D01*
X2640Y1597D02*
X2652Y1597D01*
X3192Y1597D02*
X3199Y1597D01*
X701Y1596D02*
X708Y1596D01*
X2169Y1596D02*
X2181Y1596D01*
X2639Y1596D02*
X2650Y1596D01*
X3192Y1596D02*
X3199Y1596D01*
X701Y1595D02*
X708Y1595D01*
X2171Y1595D02*
X2182Y1595D01*
X2638Y1595D02*
X2649Y1595D01*
X3192Y1595D02*
X3199Y1595D01*
X701Y1594D02*
X708Y1594D01*
X2172Y1594D02*
X2183Y1594D01*
X2637Y1594D02*
X2648Y1594D01*
X3192Y1594D02*
X3199Y1594D01*
X701Y1593D02*
X708Y1593D01*
X2173Y1593D02*
X2185Y1593D01*
X2635Y1593D02*
X2647Y1593D01*
X3192Y1593D02*
X3199Y1593D01*
X701Y1592D02*
X708Y1592D01*
X2174Y1592D02*
X2186Y1592D01*
X2634Y1592D02*
X2645Y1592D01*
X3192Y1592D02*
X3199Y1592D01*
X701Y1591D02*
X708Y1591D01*
X2176Y1591D02*
X2187Y1591D01*
X2632Y1591D02*
X2644Y1591D01*
X3192Y1591D02*
X3199Y1591D01*
X701Y1590D02*
X708Y1590D01*
X2177Y1590D02*
X2189Y1590D01*
X2631Y1590D02*
X2643Y1590D01*
X3192Y1590D02*
X3199Y1590D01*
X701Y1589D02*
X708Y1589D01*
X2178Y1589D02*
X2190Y1589D01*
X2630Y1589D02*
X2642Y1589D01*
X3192Y1589D02*
X3199Y1589D01*
X701Y1588D02*
X708Y1588D01*
X2179Y1588D02*
X2192Y1588D01*
X2628Y1588D02*
X2640Y1588D01*
X3192Y1588D02*
X3199Y1588D01*
X701Y1587D02*
X708Y1587D01*
X2181Y1587D02*
X2193Y1587D01*
X2627Y1587D02*
X2639Y1587D01*
X3192Y1587D02*
X3199Y1587D01*
X702Y1586D02*
X708Y1586D01*
X2182Y1586D02*
X2194Y1586D01*
X2626Y1586D02*
X2638Y1586D01*
X3192Y1586D02*
X3199Y1586D01*
X702Y1585D02*
X708Y1585D01*
X2183Y1585D02*
X2196Y1585D01*
X2624Y1585D02*
X2637Y1585D01*
X3192Y1585D02*
X3199Y1585D01*
X702Y1584D02*
X708Y1584D01*
X2185Y1584D02*
X2197Y1584D01*
X2623Y1584D02*
X2635Y1584D01*
X3192Y1584D02*
X3199Y1584D01*
X702Y1583D02*
X708Y1583D01*
X2186Y1583D02*
X2198Y1583D01*
X2622Y1583D02*
X2634Y1583D01*
X3192Y1583D02*
X3199Y1583D01*
X702Y1582D02*
X708Y1582D01*
X2187Y1582D02*
X2200Y1582D01*
X2620Y1582D02*
X2633Y1582D01*
X3192Y1582D02*
X3199Y1582D01*
X703Y1581D02*
X708Y1581D01*
X2189Y1581D02*
X2201Y1581D01*
X2619Y1581D02*
X2631Y1581D01*
X3192Y1581D02*
X3199Y1581D01*
X703Y1580D02*
X708Y1580D01*
X2190Y1580D02*
X2203Y1580D01*
X2617Y1580D02*
X2630Y1580D01*
X3192Y1580D02*
X3199Y1580D01*
X703Y1579D02*
X708Y1579D01*
X2191Y1579D02*
X2204Y1579D01*
X2616Y1579D02*
X2628Y1579D01*
X3192Y1579D02*
X3199Y1579D01*
X703Y1578D02*
X708Y1578D01*
X2193Y1578D02*
X2206Y1578D01*
X2614Y1578D02*
X2627Y1578D01*
X3192Y1578D02*
X3199Y1578D01*
X703Y1577D02*
X708Y1577D01*
X2194Y1577D02*
X2207Y1577D01*
X2613Y1577D02*
X2626Y1577D01*
X3192Y1577D02*
X3199Y1577D01*
X703Y1576D02*
X708Y1576D01*
X2196Y1576D02*
X2209Y1576D01*
X2611Y1576D02*
X2624Y1576D01*
X3192Y1576D02*
X3199Y1576D01*
X703Y1575D02*
X708Y1575D01*
X2197Y1575D02*
X2210Y1575D01*
X2610Y1575D02*
X2623Y1575D01*
X3192Y1575D02*
X3199Y1575D01*
X703Y1574D02*
X708Y1574D01*
X2198Y1574D02*
X2212Y1574D01*
X2608Y1574D02*
X2621Y1574D01*
X3192Y1574D02*
X3199Y1574D01*
X703Y1573D02*
X708Y1573D01*
X2200Y1573D02*
X2213Y1573D01*
X2607Y1573D02*
X2620Y1573D01*
X3192Y1573D02*
X3199Y1573D01*
X703Y1572D02*
X708Y1572D01*
X2201Y1572D02*
X2215Y1572D01*
X2605Y1572D02*
X2618Y1572D01*
X3192Y1572D02*
X3199Y1572D01*
X703Y1571D02*
X708Y1571D01*
X2203Y1571D02*
X2217Y1571D01*
X2603Y1571D02*
X2617Y1571D01*
X3192Y1571D02*
X3199Y1571D01*
X703Y1570D02*
X708Y1570D01*
X2204Y1570D02*
X2218Y1570D01*
X2602Y1570D02*
X2615Y1570D01*
X3192Y1570D02*
X3199Y1570D01*
X702Y1569D02*
X708Y1569D01*
X2206Y1569D02*
X2220Y1569D01*
X2600Y1569D02*
X2614Y1569D01*
X3192Y1569D02*
X3199Y1569D01*
X702Y1568D02*
X708Y1568D01*
X2207Y1568D02*
X2222Y1568D01*
X2598Y1568D02*
X2612Y1568D01*
X3192Y1568D02*
X3199Y1568D01*
X702Y1567D02*
X708Y1567D01*
X2209Y1567D02*
X2223Y1567D01*
X2597Y1567D02*
X2611Y1567D01*
X3192Y1567D02*
X3199Y1567D01*
X702Y1566D02*
X708Y1566D01*
X2210Y1566D02*
X2225Y1566D01*
X2595Y1566D02*
X2609Y1566D01*
X3192Y1566D02*
X3199Y1566D01*
X702Y1565D02*
X708Y1565D01*
X2212Y1565D02*
X2227Y1565D01*
X2593Y1565D02*
X2608Y1565D01*
X3192Y1565D02*
X3199Y1565D01*
X701Y1564D02*
X708Y1564D01*
X2214Y1564D02*
X2228Y1564D01*
X2592Y1564D02*
X2606Y1564D01*
X3192Y1564D02*
X3199Y1564D01*
X701Y1563D02*
X708Y1563D01*
X2215Y1563D02*
X2230Y1563D01*
X2590Y1563D02*
X2605Y1563D01*
X3192Y1563D02*
X3199Y1563D01*
X701Y1562D02*
X708Y1562D01*
X2217Y1562D02*
X2232Y1562D01*
X2588Y1562D02*
X2603Y1562D01*
X3192Y1562D02*
X3199Y1562D01*
X701Y1561D02*
X708Y1561D01*
X2219Y1561D02*
X2233Y1561D01*
X2586Y1561D02*
X2601Y1561D01*
X3192Y1561D02*
X3199Y1561D01*
X701Y1560D02*
X708Y1560D01*
X2220Y1560D02*
X2235Y1560D01*
X2585Y1560D02*
X2600Y1560D01*
X3192Y1560D02*
X3199Y1560D01*
X701Y1559D02*
X708Y1559D01*
X2222Y1559D02*
X2237Y1559D01*
X2583Y1559D02*
X2598Y1559D01*
X3192Y1559D02*
X3199Y1559D01*
X701Y1558D02*
X708Y1558D01*
X2224Y1558D02*
X2239Y1558D01*
X2581Y1558D02*
X2596Y1558D01*
X3192Y1558D02*
X3199Y1558D01*
X701Y1557D02*
X708Y1557D01*
X2225Y1557D02*
X2241Y1557D01*
X2579Y1557D02*
X2595Y1557D01*
X3192Y1557D02*
X3199Y1557D01*
X701Y1556D02*
X708Y1556D01*
X2227Y1556D02*
X2243Y1556D01*
X2577Y1556D02*
X2593Y1556D01*
X3192Y1556D02*
X3199Y1556D01*
X701Y1555D02*
X708Y1555D01*
X2229Y1555D02*
X2245Y1555D01*
X2575Y1555D02*
X2591Y1555D01*
X3192Y1555D02*
X3199Y1555D01*
X701Y1554D02*
X708Y1554D01*
X2230Y1554D02*
X2247Y1554D01*
X2573Y1554D02*
X2590Y1554D01*
X3192Y1554D02*
X3199Y1554D01*
X701Y1553D02*
X708Y1553D01*
X2232Y1553D02*
X2249Y1553D01*
X2571Y1553D02*
X2588Y1553D01*
X3192Y1553D02*
X3199Y1553D01*
X701Y1552D02*
X708Y1552D01*
X2234Y1552D02*
X2251Y1552D01*
X2569Y1552D02*
X2586Y1552D01*
X3192Y1552D02*
X3199Y1552D01*
X701Y1551D02*
X708Y1551D01*
X2236Y1551D02*
X2253Y1551D01*
X2567Y1551D02*
X2584Y1551D01*
X3192Y1551D02*
X3199Y1551D01*
X701Y1550D02*
X708Y1550D01*
X2238Y1550D02*
X2255Y1550D01*
X2565Y1550D02*
X2582Y1550D01*
X3192Y1550D02*
X3199Y1550D01*
X701Y1549D02*
X708Y1549D01*
X2240Y1549D02*
X2257Y1549D01*
X2563Y1549D02*
X2580Y1549D01*
X3192Y1549D02*
X3199Y1549D01*
X701Y1548D02*
X708Y1548D01*
X2241Y1548D02*
X2259Y1548D01*
X2561Y1548D02*
X2578Y1548D01*
X3192Y1548D02*
X3199Y1548D01*
X701Y1547D02*
X708Y1547D01*
X2243Y1547D02*
X2261Y1547D01*
X2559Y1547D02*
X2577Y1547D01*
X3192Y1547D02*
X3199Y1547D01*
X701Y1546D02*
X708Y1546D01*
X2245Y1546D02*
X2263Y1546D01*
X2557Y1546D02*
X2575Y1546D01*
X3192Y1546D02*
X3199Y1546D01*
X701Y1545D02*
X708Y1545D01*
X2247Y1545D02*
X2266Y1545D01*
X2554Y1545D02*
X2573Y1545D01*
X3192Y1545D02*
X3199Y1545D01*
X701Y1544D02*
X708Y1544D01*
X2249Y1544D02*
X2268Y1544D01*
X2552Y1544D02*
X2571Y1544D01*
X3192Y1544D02*
X3199Y1544D01*
X701Y1543D02*
X708Y1543D01*
X2251Y1543D02*
X2270Y1543D01*
X2550Y1543D02*
X2569Y1543D01*
X3192Y1543D02*
X3199Y1543D01*
X701Y1542D02*
X708Y1542D01*
X2254Y1542D02*
X2273Y1542D01*
X2547Y1542D02*
X2566Y1542D01*
X3192Y1542D02*
X3199Y1542D01*
X701Y1541D02*
X708Y1541D01*
X2256Y1541D02*
X2275Y1541D01*
X2545Y1541D02*
X2564Y1541D01*
X3192Y1541D02*
X3199Y1541D01*
X701Y1540D02*
X708Y1540D01*
X2258Y1540D02*
X2278Y1540D01*
X2542Y1540D02*
X2562Y1540D01*
X3192Y1540D02*
X3199Y1540D01*
X701Y1539D02*
X708Y1539D01*
X2260Y1539D02*
X2280Y1539D01*
X2540Y1539D02*
X2560Y1539D01*
X3192Y1539D02*
X3199Y1539D01*
X701Y1538D02*
X708Y1538D01*
X2262Y1538D02*
X2283Y1538D01*
X2537Y1538D02*
X2558Y1538D01*
X3192Y1538D02*
X3199Y1538D01*
X701Y1537D02*
X708Y1537D01*
X2264Y1537D02*
X2285Y1537D01*
X2535Y1537D02*
X2556Y1537D01*
X3192Y1537D02*
X3199Y1537D01*
X701Y1536D02*
X708Y1536D01*
X2266Y1536D02*
X2288Y1536D01*
X2532Y1536D02*
X2553Y1536D01*
X3192Y1536D02*
X3198Y1536D01*
X701Y1535D02*
X708Y1535D01*
X2269Y1535D02*
X2291Y1535D01*
X2529Y1535D02*
X2551Y1535D01*
X3192Y1535D02*
X3198Y1535D01*
X701Y1534D02*
X708Y1534D01*
X2271Y1534D02*
X2294Y1534D01*
X2526Y1534D02*
X2549Y1534D01*
X3192Y1534D02*
X3198Y1534D01*
X701Y1533D02*
X708Y1533D01*
X2274Y1533D02*
X2297Y1533D01*
X2523Y1533D02*
X2546Y1533D01*
X3192Y1533D02*
X3198Y1533D01*
X701Y1532D02*
X708Y1532D01*
X2276Y1532D02*
X2300Y1532D01*
X2520Y1532D02*
X2544Y1532D01*
X3192Y1532D02*
X3198Y1532D01*
X701Y1531D02*
X708Y1531D01*
X2278Y1531D02*
X2303Y1531D01*
X2517Y1531D02*
X2541Y1531D01*
X3192Y1531D02*
X3197Y1531D01*
X701Y1530D02*
X708Y1530D01*
X2281Y1530D02*
X2306Y1530D01*
X2514Y1530D02*
X2539Y1530D01*
X3192Y1530D02*
X3197Y1530D01*
X701Y1529D02*
X708Y1529D01*
X2284Y1529D02*
X2309Y1529D01*
X2511Y1529D02*
X2536Y1529D01*
X3192Y1529D02*
X3197Y1529D01*
X701Y1528D02*
X708Y1528D01*
X2286Y1528D02*
X2313Y1528D01*
X2507Y1528D02*
X2534Y1528D01*
X3192Y1528D02*
X3197Y1528D01*
X701Y1527D02*
X708Y1527D01*
X2289Y1527D02*
X2316Y1527D01*
X2504Y1527D02*
X2531Y1527D01*
X3192Y1527D02*
X3197Y1527D01*
X701Y1526D02*
X708Y1526D01*
X2292Y1526D02*
X2320Y1526D01*
X2500Y1526D02*
X2528Y1526D01*
X3192Y1526D02*
X3197Y1526D01*
X701Y1525D02*
X708Y1525D01*
X2295Y1525D02*
X2324Y1525D01*
X2496Y1525D02*
X2525Y1525D01*
X3192Y1525D02*
X3197Y1525D01*
X701Y1524D02*
X708Y1524D01*
X2298Y1524D02*
X2328Y1524D01*
X2492Y1524D02*
X2522Y1524D01*
X3192Y1524D02*
X3197Y1524D01*
X701Y1523D02*
X708Y1523D01*
X2301Y1523D02*
X2333Y1523D01*
X2487Y1523D02*
X2519Y1523D01*
X3192Y1523D02*
X3197Y1523D01*
X701Y1522D02*
X708Y1522D01*
X2304Y1522D02*
X2337Y1522D01*
X2483Y1522D02*
X2516Y1522D01*
X3192Y1522D02*
X3197Y1522D01*
X701Y1521D02*
X708Y1521D01*
X2307Y1521D02*
X2342Y1521D01*
X2478Y1521D02*
X2513Y1521D01*
X3192Y1521D02*
X3197Y1521D01*
X701Y1520D02*
X708Y1520D01*
X2311Y1520D02*
X2347Y1520D01*
X2472Y1520D02*
X2509Y1520D01*
X3192Y1520D02*
X3197Y1520D01*
X701Y1519D02*
X708Y1519D01*
X2314Y1519D02*
X2353Y1519D01*
X2467Y1519D02*
X2506Y1519D01*
X3192Y1519D02*
X3198Y1519D01*
X701Y1518D02*
X708Y1518D01*
X2318Y1518D02*
X2358Y1518D01*
X2462Y1518D02*
X2502Y1518D01*
X3192Y1518D02*
X3198Y1518D01*
X701Y1517D02*
X708Y1517D01*
X2322Y1517D02*
X2361Y1517D01*
X2459Y1517D02*
X2498Y1517D01*
X3192Y1517D02*
X3198Y1517D01*
X701Y1516D02*
X708Y1516D01*
X2325Y1516D02*
X2366Y1516D01*
X2374Y1516D02*
X2377Y1516D01*
X2443Y1516D02*
X2446Y1516D01*
X2454Y1516D02*
X2494Y1516D01*
X3192Y1516D02*
X3198Y1516D01*
X701Y1515D02*
X708Y1515D01*
X2330Y1515D02*
X2390Y1515D01*
X2430Y1515D02*
X2490Y1515D01*
X3192Y1515D02*
X3198Y1515D01*
X701Y1514D02*
X708Y1514D01*
X2334Y1514D02*
X2486Y1514D01*
X3192Y1514D02*
X3199Y1514D01*
X701Y1513D02*
X708Y1513D01*
X2339Y1513D02*
X2481Y1513D01*
X3192Y1513D02*
X3199Y1513D01*
X701Y1512D02*
X708Y1512D01*
X2344Y1512D02*
X2476Y1512D01*
X3192Y1512D02*
X3199Y1512D01*
X701Y1511D02*
X708Y1511D01*
X2349Y1511D02*
X2471Y1511D01*
X3192Y1511D02*
X3199Y1511D01*
X701Y1510D02*
X708Y1510D01*
X2355Y1510D02*
X2465Y1510D01*
X3192Y1510D02*
X3199Y1510D01*
X701Y1509D02*
X708Y1509D01*
X2362Y1509D02*
X2458Y1509D01*
X3192Y1509D02*
X3199Y1509D01*
X701Y1508D02*
X708Y1508D01*
X2370Y1508D02*
X2450Y1508D01*
X3192Y1508D02*
X3199Y1508D01*
X701Y1507D02*
X708Y1507D01*
X2380Y1507D02*
X2440Y1507D01*
X3192Y1507D02*
X3199Y1507D01*
X701Y1506D02*
X708Y1506D01*
X2395Y1506D02*
X2425Y1506D01*
X3192Y1506D02*
X3199Y1506D01*
X701Y1505D02*
X708Y1505D01*
X3192Y1505D02*
X3199Y1505D01*
X701Y1504D02*
X708Y1504D01*
X3192Y1504D02*
X3199Y1504D01*
X701Y1503D02*
X708Y1503D01*
X3192Y1503D02*
X3199Y1503D01*
X701Y1502D02*
X708Y1502D01*
X3192Y1502D02*
X3199Y1502D01*
X701Y1501D02*
X708Y1501D01*
X3192Y1501D02*
X3199Y1501D01*
X701Y1500D02*
X708Y1500D01*
X3192Y1500D02*
X3199Y1500D01*
X701Y1499D02*
X708Y1499D01*
X3192Y1499D02*
X3199Y1499D01*
X701Y1498D02*
X708Y1498D01*
X3192Y1498D02*
X3199Y1498D01*
X701Y1497D02*
X708Y1497D01*
X3192Y1497D02*
X3199Y1497D01*
X701Y1496D02*
X708Y1496D01*
X3192Y1496D02*
X3199Y1496D01*
X701Y1495D02*
X708Y1495D01*
X3192Y1495D02*
X3199Y1495D01*
X701Y1494D02*
X708Y1494D01*
X3192Y1494D02*
X3199Y1494D01*
X701Y1493D02*
X708Y1493D01*
X3192Y1493D02*
X3199Y1493D01*
X701Y1492D02*
X708Y1492D01*
X3192Y1492D02*
X3199Y1492D01*
X701Y1491D02*
X708Y1491D01*
X3192Y1491D02*
X3199Y1491D01*
X701Y1490D02*
X708Y1490D01*
X3192Y1490D02*
X3199Y1490D01*
X701Y1489D02*
X708Y1489D01*
X3192Y1489D02*
X3199Y1489D01*
X701Y1488D02*
X708Y1488D01*
X3192Y1488D02*
X3199Y1488D01*
X701Y1487D02*
X708Y1487D01*
X3192Y1487D02*
X3199Y1487D01*
X702Y1486D02*
X708Y1486D01*
X3192Y1486D02*
X3199Y1486D01*
X702Y1485D02*
X708Y1485D01*
X3192Y1485D02*
X3199Y1485D01*
X702Y1484D02*
X708Y1484D01*
X3192Y1484D02*
X3199Y1484D01*
X702Y1483D02*
X708Y1483D01*
X3192Y1483D02*
X3199Y1483D01*
X702Y1482D02*
X708Y1482D01*
X3192Y1482D02*
X3199Y1482D01*
X703Y1481D02*
X708Y1481D01*
X3192Y1481D02*
X3199Y1481D01*
X703Y1480D02*
X708Y1480D01*
X3192Y1480D02*
X3199Y1480D01*
X703Y1479D02*
X708Y1479D01*
X3192Y1479D02*
X3199Y1479D01*
X703Y1478D02*
X708Y1478D01*
X3192Y1478D02*
X3199Y1478D01*
X703Y1477D02*
X708Y1477D01*
X3192Y1477D02*
X3199Y1477D01*
X703Y1476D02*
X708Y1476D01*
X3192Y1476D02*
X3199Y1476D01*
X703Y1475D02*
X708Y1475D01*
X3192Y1475D02*
X3199Y1475D01*
X703Y1474D02*
X708Y1474D01*
X3192Y1474D02*
X3199Y1474D01*
X703Y1473D02*
X708Y1473D01*
X3192Y1473D02*
X3199Y1473D01*
X703Y1472D02*
X708Y1472D01*
X3192Y1472D02*
X3199Y1472D01*
X703Y1471D02*
X708Y1471D01*
X3192Y1471D02*
X3199Y1471D01*
X703Y1470D02*
X708Y1470D01*
X3192Y1470D02*
X3199Y1470D01*
X702Y1469D02*
X708Y1469D01*
X3192Y1469D02*
X3199Y1469D01*
X702Y1468D02*
X708Y1468D01*
X3192Y1468D02*
X3199Y1468D01*
X702Y1467D02*
X708Y1467D01*
X3192Y1467D02*
X3199Y1467D01*
X702Y1466D02*
X708Y1466D01*
X3192Y1466D02*
X3199Y1466D01*
X702Y1465D02*
X708Y1465D01*
X3192Y1465D02*
X3199Y1465D01*
X701Y1464D02*
X708Y1464D01*
X3192Y1464D02*
X3199Y1464D01*
X701Y1463D02*
X708Y1463D01*
X3192Y1463D02*
X3199Y1463D01*
X701Y1462D02*
X708Y1462D01*
X3192Y1462D02*
X3199Y1462D01*
X701Y1461D02*
X708Y1461D01*
X3192Y1461D02*
X3199Y1461D01*
X701Y1460D02*
X708Y1460D01*
X3192Y1460D02*
X3199Y1460D01*
X701Y1459D02*
X708Y1459D01*
X3192Y1459D02*
X3199Y1459D01*
X701Y1458D02*
X708Y1458D01*
X3192Y1458D02*
X3199Y1458D01*
X701Y1457D02*
X708Y1457D01*
X3192Y1457D02*
X3199Y1457D01*
X701Y1456D02*
X708Y1456D01*
X3192Y1456D02*
X3199Y1456D01*
X701Y1455D02*
X708Y1455D01*
X3192Y1455D02*
X3199Y1455D01*
X701Y1454D02*
X708Y1454D01*
X3192Y1454D02*
X3199Y1454D01*
X701Y1453D02*
X708Y1453D01*
X3192Y1453D02*
X3199Y1453D01*
X701Y1452D02*
X708Y1452D01*
X3192Y1452D02*
X3199Y1452D01*
X701Y1451D02*
X708Y1451D01*
X3192Y1451D02*
X3199Y1451D01*
X701Y1450D02*
X708Y1450D01*
X3192Y1450D02*
X3199Y1450D01*
X701Y1449D02*
X708Y1449D01*
X3192Y1449D02*
X3199Y1449D01*
X701Y1448D02*
X708Y1448D01*
X3192Y1448D02*
X3199Y1448D01*
X701Y1447D02*
X708Y1447D01*
X3192Y1447D02*
X3199Y1447D01*
X701Y1446D02*
X708Y1446D01*
X3192Y1446D02*
X3199Y1446D01*
X701Y1445D02*
X708Y1445D01*
X3192Y1445D02*
X3199Y1445D01*
X701Y1444D02*
X708Y1444D01*
X3192Y1444D02*
X3199Y1444D01*
X701Y1443D02*
X708Y1443D01*
X3192Y1443D02*
X3199Y1443D01*
X701Y1442D02*
X708Y1442D01*
X3192Y1442D02*
X3199Y1442D01*
X701Y1441D02*
X708Y1441D01*
X3192Y1441D02*
X3199Y1441D01*
X701Y1440D02*
X708Y1440D01*
X3192Y1440D02*
X3199Y1440D01*
X701Y1439D02*
X708Y1439D01*
X3192Y1439D02*
X3199Y1439D01*
X701Y1438D02*
X708Y1438D01*
X3192Y1438D02*
X3199Y1438D01*
X701Y1437D02*
X708Y1437D01*
X3192Y1437D02*
X3199Y1437D01*
X701Y1436D02*
X708Y1436D01*
X3192Y1436D02*
X3198Y1436D01*
X701Y1435D02*
X708Y1435D01*
X3192Y1435D02*
X3198Y1435D01*
X701Y1434D02*
X708Y1434D01*
X3192Y1434D02*
X3198Y1434D01*
X701Y1433D02*
X708Y1433D01*
X3192Y1433D02*
X3198Y1433D01*
X701Y1432D02*
X708Y1432D01*
X3192Y1432D02*
X3198Y1432D01*
X701Y1431D02*
X708Y1431D01*
X3192Y1431D02*
X3197Y1431D01*
X701Y1430D02*
X708Y1430D01*
X3192Y1430D02*
X3197Y1430D01*
X701Y1429D02*
X708Y1429D01*
X3192Y1429D02*
X3197Y1429D01*
X701Y1428D02*
X708Y1428D01*
X3192Y1428D02*
X3197Y1428D01*
X701Y1427D02*
X708Y1427D01*
X3192Y1427D02*
X3197Y1427D01*
X701Y1426D02*
X708Y1426D01*
X3192Y1426D02*
X3197Y1426D01*
X701Y1425D02*
X708Y1425D01*
X3192Y1425D02*
X3197Y1425D01*
X701Y1424D02*
X708Y1424D01*
X3192Y1424D02*
X3197Y1424D01*
X701Y1423D02*
X708Y1423D01*
X3192Y1423D02*
X3197Y1423D01*
X701Y1422D02*
X708Y1422D01*
X3192Y1422D02*
X3197Y1422D01*
X701Y1421D02*
X708Y1421D01*
X3192Y1421D02*
X3197Y1421D01*
X701Y1420D02*
X708Y1420D01*
X3192Y1420D02*
X3197Y1420D01*
X701Y1419D02*
X708Y1419D01*
X3192Y1419D02*
X3198Y1419D01*
X701Y1418D02*
X708Y1418D01*
X3192Y1418D02*
X3198Y1418D01*
X701Y1417D02*
X708Y1417D01*
X3192Y1417D02*
X3198Y1417D01*
X701Y1416D02*
X708Y1416D01*
X3192Y1416D02*
X3198Y1416D01*
X701Y1415D02*
X708Y1415D01*
X3192Y1415D02*
X3198Y1415D01*
X701Y1414D02*
X708Y1414D01*
X3192Y1414D02*
X3199Y1414D01*
X701Y1413D02*
X708Y1413D01*
X3192Y1413D02*
X3199Y1413D01*
X701Y1412D02*
X708Y1412D01*
X3192Y1412D02*
X3199Y1412D01*
X701Y1411D02*
X708Y1411D01*
X3192Y1411D02*
X3199Y1411D01*
X701Y1410D02*
X708Y1410D01*
X3192Y1410D02*
X3199Y1410D01*
X701Y1409D02*
X708Y1409D01*
X3192Y1409D02*
X3199Y1409D01*
X701Y1408D02*
X708Y1408D01*
X3192Y1408D02*
X3199Y1408D01*
X701Y1407D02*
X708Y1407D01*
X3192Y1407D02*
X3199Y1407D01*
X701Y1406D02*
X708Y1406D01*
X3192Y1406D02*
X3199Y1406D01*
X701Y1405D02*
X708Y1405D01*
X3192Y1405D02*
X3199Y1405D01*
X701Y1404D02*
X708Y1404D01*
X3192Y1404D02*
X3199Y1404D01*
X701Y1403D02*
X708Y1403D01*
X3192Y1403D02*
X3199Y1403D01*
X701Y1402D02*
X708Y1402D01*
X3192Y1402D02*
X3199Y1402D01*
X701Y1401D02*
X708Y1401D01*
X3192Y1401D02*
X3199Y1401D01*
X701Y1400D02*
X708Y1400D01*
X3192Y1400D02*
X3199Y1400D01*
X701Y1399D02*
X708Y1399D01*
X3192Y1399D02*
X3199Y1399D01*
X701Y1398D02*
X708Y1398D01*
X3192Y1398D02*
X3199Y1398D01*
X701Y1397D02*
X708Y1397D01*
X3192Y1397D02*
X3199Y1397D01*
X701Y1396D02*
X708Y1396D01*
X3192Y1396D02*
X3199Y1396D01*
X701Y1395D02*
X708Y1395D01*
X3192Y1395D02*
X3199Y1395D01*
X701Y1394D02*
X708Y1394D01*
X3192Y1394D02*
X3199Y1394D01*
X701Y1393D02*
X708Y1393D01*
X3192Y1393D02*
X3199Y1393D01*
X701Y1392D02*
X708Y1392D01*
X3192Y1392D02*
X3199Y1392D01*
X701Y1391D02*
X708Y1391D01*
X3192Y1391D02*
X3199Y1391D01*
X701Y1390D02*
X708Y1390D01*
X3192Y1390D02*
X3199Y1390D01*
X701Y1389D02*
X708Y1389D01*
X3192Y1389D02*
X3199Y1389D01*
X701Y1388D02*
X708Y1388D01*
X3192Y1388D02*
X3199Y1388D01*
X701Y1387D02*
X708Y1387D01*
X3192Y1387D02*
X3199Y1387D01*
X702Y1386D02*
X708Y1386D01*
X3192Y1386D02*
X3199Y1386D01*
X702Y1385D02*
X708Y1385D01*
X3192Y1385D02*
X3199Y1385D01*
X702Y1384D02*
X708Y1384D01*
X3192Y1384D02*
X3199Y1384D01*
X702Y1383D02*
X708Y1383D01*
X3192Y1383D02*
X3199Y1383D01*
X702Y1382D02*
X708Y1382D01*
X3192Y1382D02*
X3199Y1382D01*
X703Y1381D02*
X708Y1381D01*
X3192Y1381D02*
X3199Y1381D01*
X703Y1380D02*
X708Y1380D01*
X3192Y1380D02*
X3199Y1380D01*
X703Y1379D02*
X708Y1379D01*
X3192Y1379D02*
X3199Y1379D01*
X703Y1378D02*
X708Y1378D01*
X3192Y1378D02*
X3199Y1378D01*
X703Y1377D02*
X708Y1377D01*
X3192Y1377D02*
X3199Y1377D01*
X703Y1376D02*
X708Y1376D01*
X3192Y1376D02*
X3199Y1376D01*
X703Y1375D02*
X708Y1375D01*
X3192Y1375D02*
X3199Y1375D01*
X703Y1374D02*
X708Y1374D01*
X3192Y1374D02*
X3199Y1374D01*
X703Y1373D02*
X708Y1373D01*
X3192Y1373D02*
X3199Y1373D01*
X703Y1372D02*
X708Y1372D01*
X3192Y1372D02*
X3199Y1372D01*
X703Y1371D02*
X708Y1371D01*
X3192Y1371D02*
X3199Y1371D01*
X703Y1370D02*
X708Y1370D01*
X3192Y1370D02*
X3199Y1370D01*
X702Y1369D02*
X708Y1369D01*
X3192Y1369D02*
X3199Y1369D01*
X702Y1368D02*
X708Y1368D01*
X3192Y1368D02*
X3199Y1368D01*
X702Y1367D02*
X708Y1367D01*
X3192Y1367D02*
X3199Y1367D01*
X702Y1366D02*
X708Y1366D01*
X3192Y1366D02*
X3199Y1366D01*
X702Y1365D02*
X708Y1365D01*
X3192Y1365D02*
X3199Y1365D01*
X701Y1364D02*
X708Y1364D01*
X3192Y1364D02*
X3199Y1364D01*
X701Y1363D02*
X708Y1363D01*
X3192Y1363D02*
X3199Y1363D01*
X701Y1362D02*
X708Y1362D01*
X3192Y1362D02*
X3199Y1362D01*
X701Y1361D02*
X708Y1361D01*
X3192Y1361D02*
X3199Y1361D01*
X701Y1360D02*
X708Y1360D01*
X3192Y1360D02*
X3199Y1360D01*
X701Y1359D02*
X708Y1359D01*
X3192Y1359D02*
X3199Y1359D01*
X701Y1358D02*
X708Y1358D01*
X3192Y1358D02*
X3199Y1358D01*
X701Y1357D02*
X708Y1357D01*
X3192Y1357D02*
X3199Y1357D01*
X701Y1356D02*
X708Y1356D01*
X3192Y1356D02*
X3199Y1356D01*
X701Y1355D02*
X708Y1355D01*
X3192Y1355D02*
X3199Y1355D01*
X701Y1354D02*
X708Y1354D01*
X3192Y1354D02*
X3199Y1354D01*
X701Y1353D02*
X708Y1353D01*
X3192Y1353D02*
X3199Y1353D01*
X701Y1352D02*
X708Y1352D01*
X3192Y1352D02*
X3199Y1352D01*
X701Y1351D02*
X708Y1351D01*
X3192Y1351D02*
X3199Y1351D01*
X701Y1350D02*
X708Y1350D01*
X3192Y1350D02*
X3199Y1350D01*
X701Y1349D02*
X708Y1349D01*
X3192Y1349D02*
X3199Y1349D01*
X701Y1348D02*
X708Y1348D01*
X3192Y1348D02*
X3199Y1348D01*
X701Y1347D02*
X708Y1347D01*
X3192Y1347D02*
X3199Y1347D01*
X701Y1346D02*
X708Y1346D01*
X3192Y1346D02*
X3199Y1346D01*
X701Y1345D02*
X708Y1345D01*
X3192Y1345D02*
X3199Y1345D01*
X701Y1344D02*
X708Y1344D01*
X3192Y1344D02*
X3199Y1344D01*
X701Y1343D02*
X708Y1343D01*
X3192Y1343D02*
X3199Y1343D01*
X701Y1342D02*
X708Y1342D01*
X3192Y1342D02*
X3199Y1342D01*
X701Y1341D02*
X708Y1341D01*
X3192Y1341D02*
X3199Y1341D01*
X701Y1340D02*
X708Y1340D01*
X3192Y1340D02*
X3199Y1340D01*
X701Y1339D02*
X708Y1339D01*
X3192Y1339D02*
X3199Y1339D01*
X701Y1338D02*
X708Y1338D01*
X3192Y1338D02*
X3199Y1338D01*
X701Y1337D02*
X708Y1337D01*
X3192Y1337D02*
X3199Y1337D01*
X701Y1336D02*
X708Y1336D01*
X3192Y1336D02*
X3198Y1336D01*
X701Y1335D02*
X708Y1335D01*
X3192Y1335D02*
X3198Y1335D01*
X701Y1334D02*
X708Y1334D01*
X3192Y1334D02*
X3198Y1334D01*
X701Y1333D02*
X708Y1333D01*
X3192Y1333D02*
X3198Y1333D01*
X701Y1332D02*
X708Y1332D01*
X3192Y1332D02*
X3198Y1332D01*
X701Y1331D02*
X708Y1331D01*
X3192Y1331D02*
X3197Y1331D01*
X701Y1330D02*
X708Y1330D01*
X3192Y1330D02*
X3197Y1330D01*
X701Y1329D02*
X708Y1329D01*
X3192Y1329D02*
X3197Y1329D01*
X701Y1328D02*
X708Y1328D01*
X3192Y1328D02*
X3197Y1328D01*
X701Y1327D02*
X708Y1327D01*
X3192Y1327D02*
X3197Y1327D01*
X701Y1326D02*
X708Y1326D01*
X3192Y1326D02*
X3197Y1326D01*
X701Y1325D02*
X708Y1325D01*
X3192Y1325D02*
X3197Y1325D01*
X701Y1324D02*
X708Y1324D01*
X3192Y1324D02*
X3197Y1324D01*
X701Y1323D02*
X708Y1323D01*
X3192Y1323D02*
X3197Y1323D01*
X701Y1322D02*
X708Y1322D01*
X3192Y1322D02*
X3197Y1322D01*
X701Y1321D02*
X708Y1321D01*
X3192Y1321D02*
X3197Y1321D01*
X701Y1320D02*
X708Y1320D01*
X3192Y1320D02*
X3197Y1320D01*
X701Y1319D02*
X708Y1319D01*
X3192Y1319D02*
X3198Y1319D01*
X701Y1318D02*
X708Y1318D01*
X3192Y1318D02*
X3198Y1318D01*
X701Y1317D02*
X708Y1317D01*
X3192Y1317D02*
X3198Y1317D01*
X701Y1316D02*
X708Y1316D01*
X3192Y1316D02*
X3198Y1316D01*
X701Y1315D02*
X708Y1315D01*
X3192Y1315D02*
X3198Y1315D01*
X701Y1314D02*
X708Y1314D01*
X3192Y1314D02*
X3199Y1314D01*
X701Y1313D02*
X708Y1313D01*
X3192Y1313D02*
X3199Y1313D01*
X701Y1312D02*
X708Y1312D01*
X3192Y1312D02*
X3199Y1312D01*
X701Y1311D02*
X708Y1311D01*
X3192Y1311D02*
X3199Y1311D01*
X701Y1310D02*
X708Y1310D01*
X3192Y1310D02*
X3199Y1310D01*
X701Y1309D02*
X708Y1309D01*
X3192Y1309D02*
X3199Y1309D01*
X701Y1308D02*
X708Y1308D01*
X3192Y1308D02*
X3199Y1308D01*
X701Y1307D02*
X708Y1307D01*
X3192Y1307D02*
X3199Y1307D01*
X701Y1306D02*
X708Y1306D01*
X3192Y1306D02*
X3199Y1306D01*
X701Y1305D02*
X708Y1305D01*
X3192Y1305D02*
X3199Y1305D01*
X701Y1304D02*
X708Y1304D01*
X3192Y1304D02*
X3199Y1304D01*
X701Y1303D02*
X708Y1303D01*
X3192Y1303D02*
X3199Y1303D01*
X701Y1302D02*
X708Y1302D01*
X3192Y1302D02*
X3199Y1302D01*
X701Y1301D02*
X708Y1301D01*
X3192Y1301D02*
X3199Y1301D01*
X701Y1300D02*
X708Y1300D01*
X3192Y1300D02*
X3199Y1300D01*
X701Y1299D02*
X708Y1299D01*
X3192Y1299D02*
X3199Y1299D01*
X701Y1298D02*
X708Y1298D01*
X3192Y1298D02*
X3199Y1298D01*
X701Y1297D02*
X708Y1297D01*
X3192Y1297D02*
X3199Y1297D01*
X701Y1296D02*
X708Y1296D01*
X3192Y1296D02*
X3199Y1296D01*
X701Y1295D02*
X708Y1295D01*
X3192Y1295D02*
X3199Y1295D01*
X701Y1294D02*
X708Y1294D01*
X3192Y1294D02*
X3199Y1294D01*
X701Y1293D02*
X708Y1293D01*
X3192Y1293D02*
X3199Y1293D01*
X701Y1292D02*
X708Y1292D01*
X3192Y1292D02*
X3199Y1292D01*
X701Y1291D02*
X708Y1291D01*
X3192Y1291D02*
X3199Y1291D01*
X701Y1290D02*
X708Y1290D01*
X3192Y1290D02*
X3199Y1290D01*
X701Y1289D02*
X708Y1289D01*
X3192Y1289D02*
X3199Y1289D01*
X701Y1288D02*
X708Y1288D01*
X3192Y1288D02*
X3199Y1288D01*
X701Y1287D02*
X708Y1287D01*
X3192Y1287D02*
X3199Y1287D01*
X701Y1286D02*
X708Y1286D01*
X3192Y1286D02*
X3199Y1286D01*
X701Y1285D02*
X708Y1285D01*
X3192Y1285D02*
X3199Y1285D01*
X701Y1284D02*
X708Y1284D01*
X3192Y1284D02*
X3199Y1284D01*
X701Y1283D02*
X708Y1283D01*
X3192Y1283D02*
X3199Y1283D01*
X701Y1282D02*
X708Y1282D01*
X3192Y1282D02*
X3199Y1282D01*
X701Y1281D02*
X708Y1281D01*
X3192Y1281D02*
X3199Y1281D01*
X701Y1280D02*
X708Y1280D01*
X3192Y1280D02*
X3199Y1280D01*
X701Y1279D02*
X708Y1279D01*
X3192Y1279D02*
X3199Y1279D01*
X701Y1278D02*
X708Y1278D01*
X3192Y1278D02*
X3199Y1278D01*
X701Y1277D02*
X708Y1277D01*
X3192Y1277D02*
X3199Y1277D01*
X701Y1276D02*
X708Y1276D01*
X3192Y1276D02*
X3199Y1276D01*
X701Y1275D02*
X708Y1275D01*
X3192Y1275D02*
X3199Y1275D01*
X701Y1274D02*
X708Y1274D01*
X3192Y1274D02*
X3199Y1274D01*
X701Y1273D02*
X708Y1273D01*
X3192Y1273D02*
X3199Y1273D01*
X701Y1272D02*
X708Y1272D01*
X3192Y1272D02*
X3199Y1272D01*
X701Y1271D02*
X708Y1271D01*
X3192Y1271D02*
X3199Y1271D01*
X701Y1270D02*
X708Y1270D01*
X3192Y1270D02*
X3199Y1270D01*
X701Y1269D02*
X708Y1269D01*
X3192Y1269D02*
X3199Y1269D01*
X701Y1268D02*
X708Y1268D01*
X3192Y1268D02*
X3199Y1268D01*
X701Y1267D02*
X708Y1267D01*
X3192Y1267D02*
X3199Y1267D01*
X701Y1266D02*
X708Y1266D01*
X3192Y1266D02*
X3199Y1266D01*
X701Y1265D02*
X708Y1265D01*
X3192Y1265D02*
X3199Y1265D01*
X701Y1264D02*
X708Y1264D01*
X3192Y1264D02*
X3199Y1264D01*
X701Y1263D02*
X708Y1263D01*
X3192Y1263D02*
X3199Y1263D01*
X701Y1262D02*
X708Y1262D01*
X3192Y1262D02*
X3199Y1262D01*
X701Y1261D02*
X708Y1261D01*
X3192Y1261D02*
X3199Y1261D01*
X701Y1260D02*
X708Y1260D01*
X3192Y1260D02*
X3199Y1260D01*
X701Y1259D02*
X708Y1259D01*
X3192Y1259D02*
X3199Y1259D01*
X701Y1258D02*
X708Y1258D01*
X3192Y1258D02*
X3199Y1258D01*
X701Y1257D02*
X708Y1257D01*
X3192Y1257D02*
X3199Y1257D01*
X701Y1256D02*
X708Y1256D01*
X3192Y1256D02*
X3199Y1256D01*
X701Y1255D02*
X708Y1255D01*
X3192Y1255D02*
X3199Y1255D01*
X701Y1254D02*
X708Y1254D01*
X3192Y1254D02*
X3199Y1254D01*
X701Y1253D02*
X708Y1253D01*
X3192Y1253D02*
X3199Y1253D01*
X701Y1252D02*
X708Y1252D01*
X3192Y1252D02*
X3199Y1252D01*
X701Y1251D02*
X708Y1251D01*
X3192Y1251D02*
X3199Y1251D01*
X701Y1250D02*
X708Y1250D01*
X3192Y1250D02*
X3199Y1250D01*
X701Y1249D02*
X708Y1249D01*
X3192Y1249D02*
X3199Y1249D01*
X701Y1248D02*
X708Y1248D01*
X3192Y1248D02*
X3199Y1248D01*
X701Y1247D02*
X708Y1247D01*
X3192Y1247D02*
X3199Y1247D01*
X701Y1246D02*
X708Y1246D01*
X3192Y1246D02*
X3199Y1246D01*
X701Y1245D02*
X708Y1245D01*
X3192Y1245D02*
X3199Y1245D01*
X701Y1244D02*
X708Y1244D01*
X3192Y1244D02*
X3199Y1244D01*
X701Y1243D02*
X708Y1243D01*
X3192Y1243D02*
X3199Y1243D01*
X701Y1242D02*
X708Y1242D01*
X3192Y1242D02*
X3199Y1242D01*
X701Y1241D02*
X708Y1241D01*
X3192Y1241D02*
X3199Y1241D01*
X701Y1240D02*
X708Y1240D01*
X3192Y1240D02*
X3199Y1240D01*
X701Y1239D02*
X708Y1239D01*
X3192Y1239D02*
X3199Y1239D01*
X701Y1238D02*
X708Y1238D01*
X3192Y1238D02*
X3199Y1238D01*
X701Y1237D02*
X708Y1237D01*
X3192Y1237D02*
X3199Y1237D01*
X701Y1236D02*
X708Y1236D01*
X3192Y1236D02*
X3199Y1236D01*
X701Y1235D02*
X708Y1235D01*
X3192Y1235D02*
X3199Y1235D01*
X701Y1234D02*
X708Y1234D01*
X3192Y1234D02*
X3199Y1234D01*
X701Y1233D02*
X708Y1233D01*
X3192Y1233D02*
X3199Y1233D01*
X701Y1232D02*
X708Y1232D01*
X3192Y1232D02*
X3199Y1232D01*
X701Y1231D02*
X708Y1231D01*
X3192Y1231D02*
X3199Y1231D01*
X701Y1230D02*
X708Y1230D01*
X3192Y1230D02*
X3199Y1230D01*
X701Y1229D02*
X708Y1229D01*
X3192Y1229D02*
X3199Y1229D01*
X701Y1228D02*
X708Y1228D01*
X3192Y1228D02*
X3199Y1228D01*
X701Y1227D02*
X708Y1227D01*
X3192Y1227D02*
X3199Y1227D01*
X701Y1226D02*
X708Y1226D01*
X3192Y1226D02*
X3199Y1226D01*
X701Y1225D02*
X708Y1225D01*
X3192Y1225D02*
X3199Y1225D01*
X701Y1224D02*
X708Y1224D01*
X3192Y1224D02*
X3199Y1224D01*
X701Y1223D02*
X708Y1223D01*
X3192Y1223D02*
X3199Y1223D01*
X701Y1222D02*
X708Y1222D01*
X3192Y1222D02*
X3199Y1222D01*
X701Y1221D02*
X708Y1221D01*
X3192Y1221D02*
X3199Y1221D01*
X701Y1220D02*
X708Y1220D01*
X3192Y1220D02*
X3199Y1220D01*
X701Y1219D02*
X708Y1219D01*
X3192Y1219D02*
X3199Y1219D01*
X701Y1218D02*
X708Y1218D01*
X3192Y1218D02*
X3199Y1218D01*
X701Y1217D02*
X708Y1217D01*
X3192Y1217D02*
X3199Y1217D01*
X701Y1216D02*
X708Y1216D01*
X3192Y1216D02*
X3199Y1216D01*
X701Y1215D02*
X708Y1215D01*
X3192Y1215D02*
X3199Y1215D01*
X701Y1214D02*
X708Y1214D01*
X3192Y1214D02*
X3199Y1214D01*
X701Y1213D02*
X708Y1213D01*
X3192Y1213D02*
X3199Y1213D01*
X701Y1212D02*
X708Y1212D01*
X3192Y1212D02*
X3199Y1212D01*
X701Y1211D02*
X708Y1211D01*
X3192Y1211D02*
X3199Y1211D01*
X701Y1210D02*
X708Y1210D01*
X3192Y1210D02*
X3199Y1210D01*
X701Y1209D02*
X708Y1209D01*
X3192Y1209D02*
X3199Y1209D01*
X701Y1208D02*
X708Y1208D01*
X3192Y1208D02*
X3199Y1208D01*
X701Y1207D02*
X708Y1207D01*
X3192Y1207D02*
X3199Y1207D01*
X701Y1206D02*
X708Y1206D01*
X3192Y1206D02*
X3199Y1206D01*
X701Y1205D02*
X708Y1205D01*
X3192Y1205D02*
X3199Y1205D01*
X701Y1204D02*
X708Y1204D01*
X3192Y1204D02*
X3199Y1204D01*
X701Y1203D02*
X708Y1203D01*
X3192Y1203D02*
X3199Y1203D01*
X701Y1202D02*
X708Y1202D01*
X3192Y1202D02*
X3199Y1202D01*
X701Y1201D02*
X708Y1201D01*
X3192Y1201D02*
X3199Y1201D01*
X701Y1200D02*
X708Y1200D01*
X3192Y1200D02*
X3199Y1200D01*
X701Y1199D02*
X707Y1199D01*
X3193Y1199D02*
X3199Y1199D01*
X702Y1198D02*
X707Y1198D01*
X3193Y1198D02*
X3198Y1198D01*
X703Y1197D02*
X705Y1197D01*
X3194Y1197D02*
X3197Y1197D01*
D02*
G04 End of Silk0*
M02*