G04 MADE WITH FRITZING*
G04 WWW.FRITZING.ORG*
G04 DOUBLE SIDED*
G04 HOLES PLATED*
G04 CONTOUR ON CENTER OF CONTOUR VECTOR*
%ASAXBY*%
%FSLAX23Y23*%
%MOIN*%
%OFA0B0*%
%SFA1.0B1.0*%
%ADD10C,0.070000*%
%ADD11C,0.135984*%
%ADD12C,0.084000*%
%ADD13R,0.031654X0.062362*%
%ADD14R,0.041496X0.041102*%
%ADD15R,0.041102X0.041496*%
%ADD16R,0.072992X0.071024*%
%ADD17R,0.001000X0.001000*%
%LNMASK1*%
G90*
G70*
G54D10*
X2450Y1550D03*
X2410Y2610D03*
X2370Y1550D03*
X2450Y1550D03*
X2410Y2610D03*
X2370Y1550D03*
X2450Y1550D03*
X2410Y2610D03*
X2370Y1550D03*
G54D11*
X198Y198D03*
X197Y2804D03*
X3704Y2803D03*
X3703Y198D03*
G54D12*
X3240Y1325D03*
X3340Y1375D03*
X3240Y1425D03*
X3240Y1525D03*
X3240Y1625D03*
X3340Y1475D03*
X3340Y1575D03*
X3340Y1675D03*
G54D11*
X3590Y1725D03*
X3590Y1275D03*
G54D12*
X3240Y1325D03*
X3340Y1375D03*
X3240Y1425D03*
X3240Y1525D03*
X3240Y1625D03*
X3340Y1475D03*
X3340Y1575D03*
X3340Y1675D03*
G54D11*
X3590Y1725D03*
X3590Y1275D03*
G54D12*
X661Y1675D03*
X561Y1625D03*
X661Y1575D03*
X661Y1475D03*
X661Y1375D03*
X561Y1525D03*
X561Y1425D03*
X561Y1325D03*
G54D11*
X311Y1275D03*
X311Y1725D03*
G54D12*
X661Y1675D03*
X561Y1625D03*
X661Y1575D03*
X661Y1475D03*
X661Y1375D03*
X561Y1525D03*
X561Y1425D03*
X561Y1325D03*
G54D11*
X311Y1275D03*
X311Y1725D03*
G54D13*
X1551Y1568D03*
X1601Y1568D03*
X1651Y1568D03*
X1701Y1568D03*
X1751Y1568D03*
X1801Y1568D03*
X1851Y1568D03*
X1901Y1568D03*
X1951Y1568D03*
X2001Y1568D03*
X1551Y1184D03*
X1601Y1184D03*
X1651Y1184D03*
X1701Y1184D03*
X1751Y1184D03*
X1801Y1184D03*
X1851Y1184D03*
X1901Y1184D03*
X1951Y1184D03*
X2001Y1184D03*
G54D14*
X2600Y2450D03*
X2600Y2386D03*
X1300Y2450D03*
X1300Y2385D03*
X650Y2450D03*
X650Y2385D03*
X3250Y2450D03*
X3250Y2385D03*
G54D15*
X350Y2450D03*
X413Y2450D03*
G54D14*
X3250Y2600D03*
X3250Y2537D03*
X2150Y1900D03*
X2150Y1837D03*
G54D15*
X2450Y1300D03*
X2513Y1300D03*
X2800Y1300D03*
X2863Y1300D03*
G54D14*
X300Y750D03*
X300Y687D03*
X300Y1000D03*
X300Y937D03*
G54D16*
X3151Y301D03*
X3348Y301D03*
X3348Y850D03*
X3151Y850D03*
X2501Y301D03*
X2698Y301D03*
X2698Y850D03*
X2501Y850D03*
X1851Y301D03*
X2048Y301D03*
X2048Y850D03*
X1851Y850D03*
X1201Y301D03*
X1398Y301D03*
X1398Y850D03*
X1201Y850D03*
X551Y301D03*
X748Y301D03*
X748Y850D03*
X551Y850D03*
X1851Y2151D03*
X2048Y2151D03*
X2048Y2700D03*
X1851Y2700D03*
G54D17*
X3298Y1717D02*
X3381Y1717D01*
X3298Y1716D02*
X3381Y1716D01*
X3298Y1715D02*
X3381Y1715D01*
X3298Y1714D02*
X3381Y1714D01*
X3298Y1713D02*
X3381Y1713D01*
X3298Y1712D02*
X3381Y1712D01*
X3298Y1711D02*
X3381Y1711D01*
X3298Y1710D02*
X3381Y1710D01*
X3298Y1709D02*
X3381Y1709D01*
X3298Y1708D02*
X3381Y1708D01*
X3298Y1707D02*
X3381Y1707D01*
X3298Y1706D02*
X3381Y1706D01*
X3298Y1705D02*
X3381Y1705D01*
X3298Y1704D02*
X3381Y1704D01*
X3298Y1703D02*
X3381Y1703D01*
X3298Y1702D02*
X3381Y1702D01*
X3298Y1701D02*
X3381Y1701D01*
X3298Y1700D02*
X3381Y1700D01*
X3298Y1699D02*
X3381Y1699D01*
X3298Y1698D02*
X3381Y1698D01*
X3298Y1697D02*
X3381Y1697D01*
X3298Y1696D02*
X3381Y1696D01*
X3298Y1695D02*
X3381Y1695D01*
X3298Y1694D02*
X3381Y1694D01*
X3298Y1693D02*
X3381Y1693D01*
X3298Y1692D02*
X3381Y1692D01*
X3298Y1691D02*
X3381Y1691D01*
X3298Y1690D02*
X3337Y1690D01*
X3342Y1690D02*
X3381Y1690D01*
X3298Y1689D02*
X3333Y1689D01*
X3346Y1689D02*
X3381Y1689D01*
X3298Y1688D02*
X3331Y1688D01*
X3348Y1688D02*
X3381Y1688D01*
X3298Y1687D02*
X3330Y1687D01*
X3349Y1687D02*
X3381Y1687D01*
X3298Y1686D02*
X3329Y1686D01*
X3350Y1686D02*
X3381Y1686D01*
X3298Y1685D02*
X3328Y1685D01*
X3351Y1685D02*
X3381Y1685D01*
X3298Y1684D02*
X3327Y1684D01*
X3352Y1684D02*
X3381Y1684D01*
X3298Y1683D02*
X3326Y1683D01*
X3353Y1683D02*
X3381Y1683D01*
X3298Y1682D02*
X3326Y1682D01*
X3353Y1682D02*
X3381Y1682D01*
X3298Y1681D02*
X3325Y1681D01*
X3354Y1681D02*
X3381Y1681D01*
X3298Y1680D02*
X3325Y1680D01*
X3354Y1680D02*
X3381Y1680D01*
X3298Y1679D02*
X3325Y1679D01*
X3354Y1679D02*
X3381Y1679D01*
X3298Y1678D02*
X3324Y1678D01*
X3354Y1678D02*
X3381Y1678D01*
X3298Y1677D02*
X3324Y1677D01*
X3354Y1677D02*
X3381Y1677D01*
X3298Y1676D02*
X3324Y1676D01*
X3355Y1676D02*
X3381Y1676D01*
X3298Y1675D02*
X3324Y1675D01*
X3355Y1675D02*
X3381Y1675D01*
X3298Y1674D02*
X3324Y1674D01*
X3354Y1674D02*
X3381Y1674D01*
X3298Y1673D02*
X3324Y1673D01*
X3354Y1673D02*
X3381Y1673D01*
X3298Y1672D02*
X3325Y1672D01*
X3354Y1672D02*
X3381Y1672D01*
X3298Y1671D02*
X3325Y1671D01*
X3354Y1671D02*
X3381Y1671D01*
X3298Y1670D02*
X3325Y1670D01*
X3354Y1670D02*
X3381Y1670D01*
X3298Y1669D02*
X3326Y1669D01*
X3353Y1669D02*
X3381Y1669D01*
X3298Y1668D02*
X3326Y1668D01*
X3353Y1668D02*
X3381Y1668D01*
X3298Y1667D02*
X3327Y1667D01*
X3352Y1667D02*
X3381Y1667D01*
X3298Y1666D02*
X3328Y1666D01*
X3351Y1666D02*
X3381Y1666D01*
X3298Y1665D02*
X3329Y1665D01*
X3350Y1665D02*
X3381Y1665D01*
X3298Y1664D02*
X3330Y1664D01*
X3349Y1664D02*
X3381Y1664D01*
X3298Y1663D02*
X3331Y1663D01*
X3348Y1663D02*
X3381Y1663D01*
X3298Y1662D02*
X3333Y1662D01*
X3346Y1662D02*
X3381Y1662D01*
X3298Y1661D02*
X3337Y1661D01*
X3342Y1661D02*
X3381Y1661D01*
X3298Y1660D02*
X3381Y1660D01*
X3298Y1659D02*
X3381Y1659D01*
X3298Y1658D02*
X3381Y1658D01*
X3298Y1657D02*
X3381Y1657D01*
X3298Y1656D02*
X3381Y1656D01*
X3298Y1655D02*
X3381Y1655D01*
X3298Y1654D02*
X3381Y1654D01*
X3298Y1653D02*
X3381Y1653D01*
X3298Y1652D02*
X3381Y1652D01*
X3298Y1651D02*
X3381Y1651D01*
X3298Y1650D02*
X3381Y1650D01*
X3298Y1649D02*
X3381Y1649D01*
X3298Y1648D02*
X3381Y1648D01*
X3298Y1647D02*
X3381Y1647D01*
X3298Y1646D02*
X3381Y1646D01*
X3298Y1645D02*
X3381Y1645D01*
X3298Y1644D02*
X3381Y1644D01*
X3298Y1643D02*
X3381Y1643D01*
X3298Y1642D02*
X3381Y1642D01*
X3298Y1641D02*
X3381Y1641D01*
X3298Y1640D02*
X3381Y1640D01*
X3298Y1639D02*
X3381Y1639D01*
X3298Y1638D02*
X3381Y1638D01*
X3298Y1637D02*
X3381Y1637D01*
X3298Y1636D02*
X3381Y1636D01*
X3298Y1635D02*
X3381Y1635D01*
X3298Y1634D02*
X3381Y1634D01*
X519Y1367D02*
X602Y1367D01*
X519Y1366D02*
X602Y1366D01*
X519Y1365D02*
X602Y1365D01*
X519Y1364D02*
X602Y1364D01*
X519Y1363D02*
X602Y1363D01*
X519Y1362D02*
X602Y1362D01*
X519Y1361D02*
X602Y1361D01*
X519Y1360D02*
X602Y1360D01*
X519Y1359D02*
X602Y1359D01*
X519Y1358D02*
X602Y1358D01*
X519Y1357D02*
X602Y1357D01*
X519Y1356D02*
X602Y1356D01*
X519Y1355D02*
X602Y1355D01*
X519Y1354D02*
X602Y1354D01*
X519Y1353D02*
X602Y1353D01*
X519Y1352D02*
X602Y1352D01*
X519Y1351D02*
X602Y1351D01*
X519Y1350D02*
X602Y1350D01*
X519Y1349D02*
X602Y1349D01*
X519Y1348D02*
X602Y1348D01*
X519Y1347D02*
X602Y1347D01*
X519Y1346D02*
X602Y1346D01*
X519Y1345D02*
X602Y1345D01*
X519Y1344D02*
X602Y1344D01*
X519Y1343D02*
X602Y1343D01*
X519Y1342D02*
X602Y1342D01*
X519Y1341D02*
X602Y1341D01*
X519Y1340D02*
X558Y1340D01*
X563Y1340D02*
X602Y1340D01*
X519Y1339D02*
X554Y1339D01*
X567Y1339D02*
X602Y1339D01*
X519Y1338D02*
X552Y1338D01*
X569Y1338D02*
X602Y1338D01*
X519Y1337D02*
X551Y1337D01*
X570Y1337D02*
X602Y1337D01*
X519Y1336D02*
X550Y1336D01*
X571Y1336D02*
X602Y1336D01*
X519Y1335D02*
X549Y1335D01*
X572Y1335D02*
X602Y1335D01*
X519Y1334D02*
X548Y1334D01*
X573Y1334D02*
X602Y1334D01*
X519Y1333D02*
X547Y1333D01*
X574Y1333D02*
X602Y1333D01*
X519Y1332D02*
X547Y1332D01*
X574Y1332D02*
X602Y1332D01*
X519Y1331D02*
X546Y1331D01*
X575Y1331D02*
X602Y1331D01*
X519Y1330D02*
X546Y1330D01*
X575Y1330D02*
X602Y1330D01*
X519Y1329D02*
X546Y1329D01*
X575Y1329D02*
X602Y1329D01*
X519Y1328D02*
X546Y1328D01*
X575Y1328D02*
X602Y1328D01*
X519Y1327D02*
X545Y1327D01*
X576Y1327D02*
X602Y1327D01*
X519Y1326D02*
X545Y1326D01*
X576Y1326D02*
X602Y1326D01*
X519Y1325D02*
X545Y1325D01*
X576Y1325D02*
X602Y1325D01*
X519Y1324D02*
X545Y1324D01*
X576Y1324D02*
X602Y1324D01*
X519Y1323D02*
X546Y1323D01*
X575Y1323D02*
X602Y1323D01*
X519Y1322D02*
X546Y1322D01*
X575Y1322D02*
X602Y1322D01*
X519Y1321D02*
X546Y1321D01*
X575Y1321D02*
X602Y1321D01*
X519Y1320D02*
X546Y1320D01*
X575Y1320D02*
X602Y1320D01*
X519Y1319D02*
X547Y1319D01*
X574Y1319D02*
X602Y1319D01*
X519Y1318D02*
X547Y1318D01*
X574Y1318D02*
X602Y1318D01*
X519Y1317D02*
X548Y1317D01*
X573Y1317D02*
X602Y1317D01*
X519Y1316D02*
X549Y1316D01*
X572Y1316D02*
X602Y1316D01*
X519Y1315D02*
X550Y1315D01*
X571Y1315D02*
X602Y1315D01*
X519Y1314D02*
X551Y1314D01*
X570Y1314D02*
X602Y1314D01*
X519Y1313D02*
X552Y1313D01*
X569Y1313D02*
X602Y1313D01*
X519Y1312D02*
X554Y1312D01*
X567Y1312D02*
X602Y1312D01*
X519Y1311D02*
X558Y1311D01*
X563Y1311D02*
X602Y1311D01*
X519Y1310D02*
X602Y1310D01*
X519Y1309D02*
X602Y1309D01*
X519Y1308D02*
X602Y1308D01*
X519Y1307D02*
X602Y1307D01*
X519Y1306D02*
X602Y1306D01*
X519Y1305D02*
X602Y1305D01*
X519Y1304D02*
X602Y1304D01*
X519Y1303D02*
X602Y1303D01*
X519Y1302D02*
X602Y1302D01*
X519Y1301D02*
X602Y1301D01*
X519Y1300D02*
X602Y1300D01*
X519Y1299D02*
X602Y1299D01*
X519Y1298D02*
X602Y1298D01*
X519Y1297D02*
X602Y1297D01*
X519Y1296D02*
X602Y1296D01*
X519Y1295D02*
X602Y1295D01*
X519Y1294D02*
X602Y1294D01*
X519Y1293D02*
X602Y1293D01*
X519Y1292D02*
X602Y1292D01*
X519Y1291D02*
X602Y1291D01*
X519Y1290D02*
X602Y1290D01*
X519Y1289D02*
X602Y1289D01*
X519Y1288D02*
X602Y1288D01*
X519Y1287D02*
X602Y1287D01*
X519Y1286D02*
X602Y1286D01*
X519Y1285D02*
X602Y1285D01*
X519Y1284D02*
X602Y1284D01*
D02*
G04 End of Mask1*
M02*