G04 MADE WITH FRITZING*
G04 WWW.FRITZING.ORG*
G04 DOUBLE SIDED*
G04 HOLES PLATED*
G04 CONTOUR ON CENTER OF CONTOUR VECTOR*
%ASAXBY*%
%FSLAX23Y23*%
%MOIN*%
%OFA0B0*%
%SFA1.0B1.0*%
%ADD10C,0.060000*%
%ADD11C,0.074000*%
%ADD12R,0.021654X0.052362*%
%ADD13R,0.031496X0.031102*%
%ADD14R,0.031102X0.031496*%
%ADD15R,0.062992X0.061024*%
%ADD16C,0.012000*%
%ADD17R,0.001000X0.001000*%
%LNCOPPER1*%
G90*
G70*
G54D10*
X2450Y1550D03*
X2410Y2610D03*
X2370Y1550D03*
X2450Y1550D03*
X2410Y2610D03*
X2370Y1550D03*
X2450Y1550D03*
X2410Y2610D03*
X2370Y1550D03*
G54D11*
X3240Y1325D03*
X3340Y1375D03*
X3240Y1425D03*
X3240Y1525D03*
X3240Y1625D03*
X3340Y1475D03*
X3340Y1575D03*
X3340Y1675D03*
X3240Y1325D03*
X3340Y1375D03*
X3240Y1425D03*
X3240Y1525D03*
X3240Y1625D03*
X3340Y1475D03*
X3340Y1575D03*
X3340Y1675D03*
X661Y1675D03*
X561Y1625D03*
X661Y1575D03*
X661Y1475D03*
X661Y1375D03*
X561Y1525D03*
X561Y1425D03*
X561Y1325D03*
X661Y1675D03*
X561Y1625D03*
X661Y1575D03*
X661Y1475D03*
X661Y1375D03*
X561Y1525D03*
X561Y1425D03*
X561Y1325D03*
G54D12*
X1551Y1568D03*
X1601Y1568D03*
X1651Y1568D03*
X1701Y1568D03*
X1751Y1568D03*
X1801Y1568D03*
X1851Y1568D03*
X1901Y1568D03*
X1951Y1568D03*
X2001Y1568D03*
X1551Y1184D03*
X1601Y1184D03*
X1651Y1184D03*
X1701Y1184D03*
X1751Y1184D03*
X1801Y1184D03*
X1851Y1184D03*
X1901Y1184D03*
X1951Y1184D03*
X2001Y1184D03*
G54D13*
X2600Y2450D03*
X2600Y2386D03*
X1300Y2450D03*
X1300Y2385D03*
X650Y2450D03*
X650Y2385D03*
X3250Y2450D03*
X3250Y2385D03*
G54D14*
X350Y2450D03*
X413Y2450D03*
G54D13*
X3250Y2600D03*
X3250Y2537D03*
X2150Y1900D03*
X2150Y1837D03*
G54D14*
X2450Y1300D03*
X2513Y1300D03*
X2800Y1300D03*
X2863Y1300D03*
G54D13*
X300Y750D03*
X300Y687D03*
X300Y1000D03*
X300Y937D03*
G54D15*
X3151Y301D03*
X3348Y301D03*
X3348Y850D03*
X3151Y850D03*
X2501Y301D03*
X2698Y301D03*
X2698Y850D03*
X2501Y850D03*
X1851Y301D03*
X2048Y301D03*
X2048Y850D03*
X1851Y850D03*
X1201Y301D03*
X1398Y301D03*
X1398Y850D03*
X1201Y850D03*
X551Y301D03*
X748Y301D03*
X748Y850D03*
X551Y850D03*
X1851Y2151D03*
X2048Y2151D03*
X2048Y2700D03*
X1851Y2700D03*
G54D16*
X2400Y2025D02*
X3201Y1226D01*
D02*
X3201Y1226D02*
X3426Y1226D01*
D02*
X3426Y1226D02*
X3426Y1476D01*
D02*
X3426Y1476D02*
X3365Y1475D01*
D02*
X2150Y2026D02*
X2400Y2025D01*
D02*
X151Y1525D02*
X536Y1525D01*
D02*
X3001Y1300D02*
X2873Y1300D01*
D02*
X2252Y1549D02*
X2350Y1550D01*
D02*
X2410Y2701D02*
X2410Y2631D01*
D02*
X3251Y2701D02*
X3251Y2610D01*
D02*
X2250Y1401D02*
X2252Y1549D01*
D02*
X1550Y1401D02*
X2250Y1401D01*
D02*
X2151Y1650D02*
X2151Y1827D01*
D02*
X2252Y1549D02*
X2151Y1650D01*
D02*
X1551Y1547D02*
X1550Y1401D01*
D02*
X2150Y2026D02*
X2068Y2126D01*
D02*
X2150Y1910D02*
X2150Y2026D01*
D02*
X1550Y1601D02*
X1550Y1589D01*
D02*
X800Y1599D02*
X1550Y1601D01*
D02*
X680Y1492D02*
X800Y1599D01*
D02*
X1600Y1651D02*
X1601Y1589D01*
D02*
X800Y1651D02*
X1600Y1651D01*
D02*
X683Y1587D02*
X800Y1651D01*
D02*
X1851Y1900D02*
X1851Y1589D01*
D02*
X1501Y1901D02*
X1851Y1900D01*
D02*
X1500Y2350D02*
X1501Y1901D01*
D02*
X2601Y2351D02*
X1500Y2350D01*
D02*
X2601Y2376D02*
X2601Y2351D01*
D02*
X423Y2450D02*
X640Y2450D01*
D02*
X1290Y2450D02*
X661Y2450D01*
D02*
X1300Y1850D02*
X1799Y1850D01*
D02*
X1799Y1850D02*
X1801Y1589D01*
D02*
X1300Y2375D02*
X1300Y1850D01*
D02*
X2590Y2450D02*
X1311Y2450D01*
D02*
X2401Y2200D02*
X2301Y2300D01*
D02*
X2301Y2300D02*
X1600Y2300D01*
D02*
X1600Y2300D02*
X1600Y1951D01*
D02*
X3251Y2200D02*
X2401Y2200D01*
D02*
X3250Y2375D02*
X3251Y2200D01*
D02*
X1901Y1950D02*
X1901Y1589D01*
D02*
X1600Y1951D02*
X1901Y1950D01*
D02*
X3001Y1300D02*
X3151Y1151D01*
D02*
X3151Y1151D02*
X3476Y1150D01*
D02*
X2523Y1300D02*
X2790Y1300D01*
D02*
X450Y1050D02*
X450Y750D01*
D02*
X561Y1200D02*
X450Y1050D01*
D02*
X450Y750D02*
X851Y750D01*
D02*
X851Y750D02*
X851Y1050D01*
D02*
X851Y1050D02*
X1650Y1050D01*
D02*
X3476Y1576D02*
X3365Y1575D01*
D02*
X3476Y1150D02*
X3476Y1576D01*
D02*
X1650Y1050D02*
X1651Y1164D01*
D02*
X561Y1300D02*
X561Y1200D01*
D02*
X1750Y1800D02*
X1751Y1589D01*
D02*
X1101Y1800D02*
X1750Y1800D01*
D02*
X651Y2250D02*
X1101Y1800D01*
D02*
X650Y2375D02*
X651Y2250D01*
D02*
X1600Y1099D02*
X751Y1099D01*
D02*
X1601Y1164D02*
X1600Y1099D01*
D02*
X751Y1099D02*
X748Y875D01*
D02*
X1650Y850D02*
X1424Y850D01*
D02*
X1799Y1000D02*
X1650Y850D01*
D02*
X1801Y1164D02*
X1799Y1000D01*
D02*
X1951Y1164D02*
X1949Y1052D01*
D02*
X1551Y1151D02*
X1551Y1164D01*
D02*
X750Y1150D02*
X1551Y1151D01*
D02*
X2950Y1050D02*
X3126Y875D01*
D02*
X1949Y1052D02*
X2950Y1050D01*
D02*
X2350Y1000D02*
X2476Y875D01*
D02*
X1851Y875D02*
X1851Y1164D01*
D02*
X1900Y1001D02*
X2350Y1000D01*
D02*
X1901Y1164D02*
X1900Y1001D01*
D02*
X750Y1375D02*
X750Y1150D01*
D02*
X686Y1375D02*
X750Y1375D01*
D02*
X1702Y1001D02*
X1701Y1164D01*
D02*
X952Y999D02*
X1702Y1001D01*
D02*
X952Y649D02*
X952Y999D01*
D02*
X301Y650D02*
X952Y649D01*
D02*
X300Y677D02*
X301Y650D01*
D02*
X300Y927D02*
X300Y760D01*
D02*
X450Y1425D02*
X536Y1425D01*
D02*
X3348Y200D02*
X3552Y200D01*
D02*
X2698Y200D02*
X3348Y200D01*
D02*
X2048Y200D02*
X2698Y200D01*
D02*
X3552Y1099D02*
X2000Y1099D01*
D02*
X1201Y201D02*
X2048Y200D01*
D02*
X551Y201D02*
X1201Y201D01*
D02*
X2000Y1099D02*
X2001Y1164D01*
D02*
X400Y201D02*
X551Y201D01*
D02*
X151Y450D02*
X400Y201D01*
D02*
X3552Y200D02*
X3552Y1099D01*
D02*
X151Y1525D02*
X151Y450D01*
D02*
X151Y2450D02*
X151Y1525D01*
D02*
X340Y2450D02*
X151Y2450D01*
D02*
X2440Y1300D02*
X1750Y1300D01*
D02*
X1750Y1300D02*
X1751Y1205D01*
D02*
X449Y1199D02*
X450Y1425D01*
D02*
X301Y1050D02*
X449Y1199D01*
D02*
X300Y1010D02*
X301Y1050D01*
D02*
X2001Y2050D02*
X2001Y1589D01*
D02*
X1851Y2051D02*
X2001Y2050D01*
D02*
X1851Y2126D02*
X1851Y2051D01*
D02*
X1951Y2000D02*
X1951Y1589D01*
D02*
X1700Y2000D02*
X1951Y2000D01*
D02*
X2399Y2100D02*
X2251Y2250D01*
D02*
X2251Y2250D02*
X1700Y2250D01*
D02*
X1700Y2250D02*
X1700Y2000D01*
D02*
X3340Y2100D02*
X2399Y2100D01*
D02*
X3340Y1700D02*
X3340Y2100D01*
D02*
X800Y1849D02*
X561Y1849D01*
D02*
X1001Y1750D02*
X800Y1849D01*
D02*
X1700Y1750D02*
X1001Y1750D01*
D02*
X1701Y1589D02*
X1700Y1750D01*
D02*
X561Y1849D02*
X561Y1650D01*
D02*
X800Y1699D02*
X686Y1679D01*
D02*
X1650Y1700D02*
X800Y1699D01*
D02*
X1651Y1589D02*
X1650Y1700D01*
D02*
X1201Y201D02*
X1201Y276D01*
D02*
X551Y201D02*
X551Y276D01*
D02*
X2410Y2701D02*
X2074Y2700D01*
D02*
X3251Y2701D02*
X2410Y2701D01*
D02*
X3550Y2701D02*
X3251Y2701D01*
D02*
X3750Y2501D02*
X3550Y2701D01*
D02*
X3750Y1099D02*
X3750Y2501D01*
D02*
X3552Y1099D02*
X3750Y1099D01*
D02*
X3250Y2527D02*
X3250Y2460D01*
D02*
X3348Y200D02*
X3348Y276D01*
D02*
X2698Y200D02*
X2698Y276D01*
D02*
X2048Y200D02*
X2048Y276D01*
G54D17*
X3303Y1712D02*
X3376Y1712D01*
X3303Y1711D02*
X3376Y1711D01*
X3303Y1710D02*
X3376Y1710D01*
X3303Y1709D02*
X3376Y1709D01*
X3303Y1708D02*
X3376Y1708D01*
X3303Y1707D02*
X3376Y1707D01*
X3303Y1706D02*
X3376Y1706D01*
X3303Y1705D02*
X3376Y1705D01*
X3303Y1704D02*
X3376Y1704D01*
X3303Y1703D02*
X3376Y1703D01*
X3303Y1702D02*
X3376Y1702D01*
X3303Y1701D02*
X3376Y1701D01*
X3303Y1700D02*
X3376Y1700D01*
X3303Y1699D02*
X3376Y1699D01*
X3303Y1698D02*
X3376Y1698D01*
X3303Y1697D02*
X3376Y1697D01*
X3303Y1696D02*
X3376Y1696D01*
X3303Y1695D02*
X3337Y1695D01*
X3342Y1695D02*
X3376Y1695D01*
X3303Y1694D02*
X3332Y1694D01*
X3346Y1694D02*
X3376Y1694D01*
X3303Y1693D02*
X3330Y1693D01*
X3349Y1693D02*
X3376Y1693D01*
X3303Y1692D02*
X3328Y1692D01*
X3351Y1692D02*
X3376Y1692D01*
X3303Y1691D02*
X3327Y1691D01*
X3352Y1691D02*
X3376Y1691D01*
X3303Y1690D02*
X3326Y1690D01*
X3353Y1690D02*
X3376Y1690D01*
X3303Y1689D02*
X3325Y1689D01*
X3354Y1689D02*
X3376Y1689D01*
X3303Y1688D02*
X3324Y1688D01*
X3355Y1688D02*
X3376Y1688D01*
X3303Y1687D02*
X3323Y1687D01*
X3356Y1687D02*
X3376Y1687D01*
X3303Y1686D02*
X3322Y1686D01*
X3357Y1686D02*
X3376Y1686D01*
X3303Y1685D02*
X3322Y1685D01*
X3357Y1685D02*
X3376Y1685D01*
X3303Y1684D02*
X3321Y1684D01*
X3358Y1684D02*
X3376Y1684D01*
X3303Y1683D02*
X3321Y1683D01*
X3358Y1683D02*
X3376Y1683D01*
X3303Y1682D02*
X3320Y1682D01*
X3358Y1682D02*
X3376Y1682D01*
X3303Y1681D02*
X3320Y1681D01*
X3359Y1681D02*
X3376Y1681D01*
X3303Y1680D02*
X3320Y1680D01*
X3359Y1680D02*
X3376Y1680D01*
X3303Y1679D02*
X3320Y1679D01*
X3359Y1679D02*
X3376Y1679D01*
X3303Y1678D02*
X3319Y1678D01*
X3359Y1678D02*
X3376Y1678D01*
X3303Y1677D02*
X3319Y1677D01*
X3359Y1677D02*
X3376Y1677D01*
X3303Y1676D02*
X3319Y1676D01*
X3360Y1676D02*
X3376Y1676D01*
X3303Y1675D02*
X3319Y1675D01*
X3360Y1675D02*
X3376Y1675D01*
X3303Y1674D02*
X3319Y1674D01*
X3359Y1674D02*
X3376Y1674D01*
X3303Y1673D02*
X3319Y1673D01*
X3359Y1673D02*
X3376Y1673D01*
X3303Y1672D02*
X3320Y1672D01*
X3359Y1672D02*
X3376Y1672D01*
X3303Y1671D02*
X3320Y1671D01*
X3359Y1671D02*
X3376Y1671D01*
X3303Y1670D02*
X3320Y1670D01*
X3359Y1670D02*
X3376Y1670D01*
X3303Y1669D02*
X3320Y1669D01*
X3358Y1669D02*
X3376Y1669D01*
X3303Y1668D02*
X3321Y1668D01*
X3358Y1668D02*
X3376Y1668D01*
X3303Y1667D02*
X3321Y1667D01*
X3358Y1667D02*
X3376Y1667D01*
X3303Y1666D02*
X3322Y1666D01*
X3357Y1666D02*
X3376Y1666D01*
X3303Y1665D02*
X3322Y1665D01*
X3356Y1665D02*
X3376Y1665D01*
X3303Y1664D02*
X3323Y1664D01*
X3356Y1664D02*
X3376Y1664D01*
X3303Y1663D02*
X3324Y1663D01*
X3355Y1663D02*
X3376Y1663D01*
X3303Y1662D02*
X3325Y1662D01*
X3354Y1662D02*
X3376Y1662D01*
X3303Y1661D02*
X3326Y1661D01*
X3353Y1661D02*
X3376Y1661D01*
X3303Y1660D02*
X3327Y1660D01*
X3352Y1660D02*
X3376Y1660D01*
X3303Y1659D02*
X3328Y1659D01*
X3351Y1659D02*
X3376Y1659D01*
X3303Y1658D02*
X3330Y1658D01*
X3349Y1658D02*
X3376Y1658D01*
X3303Y1657D02*
X3332Y1657D01*
X3346Y1657D02*
X3376Y1657D01*
X3303Y1656D02*
X3337Y1656D01*
X3342Y1656D02*
X3376Y1656D01*
X3303Y1655D02*
X3376Y1655D01*
X3303Y1654D02*
X3376Y1654D01*
X3303Y1653D02*
X3376Y1653D01*
X3303Y1652D02*
X3376Y1652D01*
X3303Y1651D02*
X3376Y1651D01*
X3303Y1650D02*
X3376Y1650D01*
X3303Y1649D02*
X3376Y1649D01*
X3303Y1648D02*
X3376Y1648D01*
X3303Y1647D02*
X3376Y1647D01*
X3303Y1646D02*
X3376Y1646D01*
X3303Y1645D02*
X3376Y1645D01*
X3303Y1644D02*
X3376Y1644D01*
X3303Y1643D02*
X3376Y1643D01*
X3303Y1642D02*
X3376Y1642D01*
X3303Y1641D02*
X3376Y1641D01*
X3303Y1640D02*
X3376Y1640D01*
X3303Y1639D02*
X3376Y1639D01*
X524Y1362D02*
X597Y1362D01*
X524Y1361D02*
X597Y1361D01*
X524Y1360D02*
X597Y1360D01*
X524Y1359D02*
X597Y1359D01*
X524Y1358D02*
X597Y1358D01*
X524Y1357D02*
X597Y1357D01*
X524Y1356D02*
X597Y1356D01*
X524Y1355D02*
X597Y1355D01*
X524Y1354D02*
X597Y1354D01*
X524Y1353D02*
X597Y1353D01*
X524Y1352D02*
X597Y1352D01*
X524Y1351D02*
X597Y1351D01*
X524Y1350D02*
X597Y1350D01*
X524Y1349D02*
X597Y1349D01*
X524Y1348D02*
X597Y1348D01*
X524Y1347D02*
X597Y1347D01*
X524Y1346D02*
X597Y1346D01*
X524Y1345D02*
X558Y1345D01*
X563Y1345D02*
X597Y1345D01*
X524Y1344D02*
X553Y1344D01*
X568Y1344D02*
X597Y1344D01*
X524Y1343D02*
X551Y1343D01*
X570Y1343D02*
X597Y1343D01*
X524Y1342D02*
X549Y1342D01*
X572Y1342D02*
X597Y1342D01*
X524Y1341D02*
X548Y1341D01*
X573Y1341D02*
X597Y1341D01*
X524Y1340D02*
X547Y1340D01*
X574Y1340D02*
X597Y1340D01*
X524Y1339D02*
X546Y1339D01*
X575Y1339D02*
X597Y1339D01*
X524Y1338D02*
X545Y1338D01*
X576Y1338D02*
X597Y1338D01*
X524Y1337D02*
X544Y1337D01*
X577Y1337D02*
X597Y1337D01*
X524Y1336D02*
X543Y1336D01*
X578Y1336D02*
X597Y1336D01*
X524Y1335D02*
X543Y1335D01*
X578Y1335D02*
X597Y1335D01*
X524Y1334D02*
X542Y1334D01*
X579Y1334D02*
X597Y1334D01*
X524Y1333D02*
X542Y1333D01*
X579Y1333D02*
X597Y1333D01*
X524Y1332D02*
X542Y1332D01*
X580Y1332D02*
X597Y1332D01*
X524Y1331D02*
X541Y1331D01*
X580Y1331D02*
X597Y1331D01*
X524Y1330D02*
X541Y1330D01*
X580Y1330D02*
X597Y1330D01*
X524Y1329D02*
X541Y1329D01*
X580Y1329D02*
X597Y1329D01*
X524Y1328D02*
X541Y1328D01*
X580Y1328D02*
X597Y1328D01*
X524Y1327D02*
X540Y1327D01*
X581Y1327D02*
X597Y1327D01*
X524Y1326D02*
X540Y1326D01*
X581Y1326D02*
X597Y1326D01*
X524Y1325D02*
X540Y1325D01*
X581Y1325D02*
X597Y1325D01*
X524Y1324D02*
X540Y1324D01*
X581Y1324D02*
X597Y1324D01*
X524Y1323D02*
X541Y1323D01*
X580Y1323D02*
X597Y1323D01*
X524Y1322D02*
X541Y1322D01*
X580Y1322D02*
X597Y1322D01*
X524Y1321D02*
X541Y1321D01*
X580Y1321D02*
X597Y1321D01*
X524Y1320D02*
X541Y1320D01*
X580Y1320D02*
X597Y1320D01*
X524Y1319D02*
X542Y1319D01*
X579Y1319D02*
X597Y1319D01*
X524Y1318D02*
X542Y1318D01*
X579Y1318D02*
X597Y1318D01*
X524Y1317D02*
X542Y1317D01*
X579Y1317D02*
X597Y1317D01*
X524Y1316D02*
X543Y1316D01*
X578Y1316D02*
X597Y1316D01*
X524Y1315D02*
X543Y1315D01*
X578Y1315D02*
X597Y1315D01*
X524Y1314D02*
X544Y1314D01*
X577Y1314D02*
X597Y1314D01*
X524Y1313D02*
X545Y1313D01*
X576Y1313D02*
X597Y1313D01*
X524Y1312D02*
X546Y1312D01*
X575Y1312D02*
X597Y1312D01*
X524Y1311D02*
X547Y1311D01*
X574Y1311D02*
X597Y1311D01*
X524Y1310D02*
X548Y1310D01*
X573Y1310D02*
X597Y1310D01*
X524Y1309D02*
X549Y1309D01*
X572Y1309D02*
X597Y1309D01*
X524Y1308D02*
X551Y1308D01*
X570Y1308D02*
X597Y1308D01*
X524Y1307D02*
X554Y1307D01*
X567Y1307D02*
X597Y1307D01*
X524Y1306D02*
X558Y1306D01*
X563Y1306D02*
X597Y1306D01*
X524Y1305D02*
X597Y1305D01*
X524Y1304D02*
X597Y1304D01*
X524Y1303D02*
X597Y1303D01*
X524Y1302D02*
X597Y1302D01*
X524Y1301D02*
X597Y1301D01*
X524Y1300D02*
X597Y1300D01*
X524Y1299D02*
X597Y1299D01*
X524Y1298D02*
X597Y1298D01*
X524Y1297D02*
X597Y1297D01*
X524Y1296D02*
X597Y1296D01*
X524Y1295D02*
X597Y1295D01*
X524Y1294D02*
X597Y1294D01*
X524Y1293D02*
X597Y1293D01*
X524Y1292D02*
X597Y1292D01*
X524Y1291D02*
X597Y1291D01*
X524Y1290D02*
X597Y1290D01*
X524Y1289D02*
X597Y1289D01*
D02*
G04 End of Copper1*
M02*