; NON-PLATED HOLES START AT T1
; THROUGH (PLATED) HOLES START AT T100
M48
INCH
T1C0.125984
T100C0.030000
T101C0.039370
%
T1
X001968Y028039
X001982Y001976
X003110Y017250
X003110Y012750
X035899Y017250
X035899Y012750
X037033Y001979
X037036Y028029
T100
X024504Y015503
X023704Y015503
X024104Y026103
T101
X006610Y015750
X033399Y014750
X005610Y014250
X032399Y016250
X032399Y013250
X006610Y014750
X033399Y016750
X033399Y013750
X005610Y016250
X005610Y013250
X032399Y015250
X006610Y016750
X006610Y013750
X033399Y015750
X005610Y015250
X032399Y014250
T00
M30
