G04 MADE WITH FRITZING*
G04 WWW.FRITZING.ORG*
G04 DOUBLE SIDED*
G04 HOLES PLATED*
G04 CONTOUR ON CENTER OF CONTOUR VECTOR*
%ASAXBY*%
%FSLAX23Y23*%
%MOIN*%
%OFA0B0*%
%SFA1.0B1.0*%
%ADD11R,0.021654X0.052362*%
%ADD12R,0.031496X0.031102*%
%ADD13R,0.031102X0.031496*%
%ADD14R,0.062992X0.061024*%
%LNPASTEMASK1*%
G90*
G70*
G54D11*
X1551Y1568D03*
X1601Y1568D03*
X1651Y1568D03*
X1701Y1568D03*
X1751Y1568D03*
X1801Y1568D03*
X1851Y1568D03*
X1901Y1568D03*
X1951Y1568D03*
X2001Y1568D03*
X1551Y1184D03*
X1601Y1184D03*
X1651Y1184D03*
X1701Y1184D03*
X1751Y1184D03*
X1801Y1184D03*
X1851Y1184D03*
X1901Y1184D03*
X1951Y1184D03*
X2001Y1184D03*
G54D12*
X2600Y2450D03*
X2600Y2386D03*
X1300Y2450D03*
X1300Y2385D03*
X650Y2450D03*
X650Y2385D03*
X3250Y2450D03*
X3250Y2385D03*
G54D13*
X350Y2450D03*
X413Y2450D03*
G54D12*
X3250Y2600D03*
X3250Y2537D03*
X2150Y1900D03*
X2150Y1837D03*
G54D13*
X2450Y1300D03*
X2513Y1300D03*
X2800Y1300D03*
X2863Y1300D03*
G54D12*
X300Y750D03*
X300Y687D03*
X300Y1000D03*
X300Y937D03*
G54D14*
X3151Y301D03*
X3348Y301D03*
X3348Y850D03*
X3151Y850D03*
X2501Y301D03*
X2698Y301D03*
X2698Y850D03*
X2501Y850D03*
X1851Y301D03*
X2048Y301D03*
X2048Y850D03*
X1851Y850D03*
X1201Y301D03*
X1398Y301D03*
X1398Y850D03*
X1201Y850D03*
X551Y301D03*
X748Y301D03*
X748Y850D03*
X551Y850D03*
X1851Y2151D03*
X2048Y2151D03*
X2048Y2700D03*
X1851Y2700D03*
G04 End of PasteMask1*
M02*