<?xml version="1.0" encoding="UTF-8" standalone="no"?>
<!-- Created with Fritzing (http://www.fritzing.org/) -->

<svg
   xmlns:dc="http://purl.org/dc/elements/1.1/"
   xmlns:cc="http://creativecommons.org/ns#"
   xmlns:rdf="http://www.w3.org/1999/02/22-rdf-syntax-ns#"
   xmlns:svg="http://www.w3.org/2000/svg"
   xmlns="http://www.w3.org/2000/svg"
   xmlns:sodipodi="http://sodipodi.sourceforge.net/DTD/sodipodi-0.dtd"
   xmlns:inkscape="http://www.inkscape.org/namespaces/inkscape"
   sodipodi:docname="etching-master.svg"
   inkscape:version="0.91 r13725"
   id="svg2"
   viewBox="0 0 280.8 216"
   height="3in"
   width="3.9in"
   y="0in"
   x="0in"
   version="1.2">
  <sodipodi:namedview
     inkscape:current-layer="svg2"
     inkscape:window-maximized="0"
     inkscape:window-y="572"
     inkscape:window-x="908"
     inkscape:cy="132.17134"
     inkscape:cx="139.43851"
     inkscape:zoom="2.3852263"
     showgrid="false"
     id="namedview1811"
     inkscape:window-height="1037"
     inkscape:window-width="2009"
     inkscape:pageshadow="2"
     inkscape:pageopacity="0"
     guidetolerance="10"
     gridtolerance="10"
     objecttolerance="10"
     borderopacity="1"
     bordercolor="#666666"
     pagecolor="#ffffff" />
  <metadata
     id="metadata1815">
    <rdf:RDF>
      <cc:Work
         rdf:about="">
        <dc:format>image/svg+xml</dc:format>
        <dc:type
           rdf:resource="http://purl.org/dc/dcmitype/StillImage" />
        <dc:title />
      </cc:Work>
    </rdf:RDF>
  </metadata>
  <defs
     id="defs1813" />
  <g
     id="g6"
     transform="translate(0,-625.89001)"
     style="stroke:#000000;stroke-opacity:1;stroke-width:0.28346456;stroke-miterlimit:4;stroke-dasharray:none">
    <g
       id="board"
       style="stroke:#000000;stroke-opacity:1;stroke-width:0.28346456;stroke-miterlimit:4;stroke-dasharray:none">
      <g
         id="g9"
         style="fill:none;stroke:#000000;stroke-opacity:1;stroke-width:0.28346456;stroke-miterlimit:4;stroke-dasharray:none">
        <path
           style="fill:none;fill-opacity:0.2;stroke:#000000;stroke-opacity:1;stroke-width:0.28346456;stroke-miterlimit:4;stroke-dasharray:none"
           d="m 14.1732,625.89001 252.45359,0 c 7.85195,0 14.1732,6.32125 14.1732,14.1732 l 0,187.6536 c 0,7.85196 -6.32125,14.1732 -14.1732,14.1732 l -252.45359,0 C 6.321247,841.89001 0,835.56877 0,827.71681 l 0,-187.6536 c 0,-7.85195 6.321247,-14.1732 14.1732,-14.1732 z"
           id="boardoutline" />
      </g>
    </g>
  </g>
  <g
     partID="854240130"
     id="g120"
     style="stroke:#000000;stroke-opacity:1;fill:none;stroke-width:0.28346456;stroke-miterlimit:4;stroke-dasharray:none">
    <g
       transform="translate(8.13851,195.636)"
       id="g122"
       style="stroke:#000000;stroke-opacity:1;fill:none;stroke-width:0.28346456;stroke-miterlimit:4;stroke-dasharray:none">
      <g
         id="g124"
         style="stroke:#000000;stroke-opacity:1;fill:none;stroke-width:0.28346456;stroke-miterlimit:4;stroke-dasharray:none">
        <circle
           cx="6.13542"
           cy="6.13542"
           id="nonconn0"
           r="4.53542"
           style="stroke:#000000;stroke-opacity:1;fill:none;stroke-width:0.28346456;stroke-miterlimit:4;stroke-dasharray:none"
           stroke-width="0"
           stroke="#f9a435"
           fill="black" />
      </g>
    </g>
  </g>
  <g
     partID="854240160"
     id="g127"
     style="stroke:#000000;stroke-opacity:1;fill:none;stroke-width:0.28346456;stroke-miterlimit:4;stroke-dasharray:none">
    <g
       transform="translate(8.03795,7.98297)"
       id="g129"
       style="stroke:#000000;stroke-opacity:1;fill:none;stroke-width:0.28346456;stroke-miterlimit:4;stroke-dasharray:none">
      <g
         id="g131"
         style="stroke:#000000;stroke-opacity:1;fill:none;stroke-width:0.28346456;stroke-miterlimit:4;stroke-dasharray:none">
        <circle
           cx="6.13543"
           cy="6.13543"
           id="circle133"
           r="4.53543"
           style="stroke:#000000;stroke-opacity:1;fill:none;stroke-width:0.28346456;stroke-miterlimit:4;stroke-dasharray:none"
           stroke-width="0"
           stroke="#f9a435"
           fill="black" />
      </g>
    </g>
  </g>
  <g
     partID="854240190"
     id="g135"
     style="stroke:#000000;stroke-opacity:1;fill:none;stroke-width:0.28346456;stroke-miterlimit:4;stroke-dasharray:none">
    <g
       transform="translate(260.53,8.04937)"
       id="g137"
       style="stroke:#000000;stroke-opacity:1;fill:none;stroke-width:0.28346456;stroke-miterlimit:4;stroke-dasharray:none">
      <g
         id="g139"
         style="stroke:#000000;stroke-opacity:1;fill:none;stroke-width:0.28346456;stroke-miterlimit:4;stroke-dasharray:none">
        <circle
           cx="6.13543"
           cy="6.13543"
           id="circle141"
           r="4.53543"
           style="stroke:#000000;stroke-opacity:1;fill:none;stroke-width:0.28346456;stroke-miterlimit:4;stroke-dasharray:none"
           stroke-width="0"
           stroke="#f9a435"
           fill="black" />
      </g>
    </g>
  </g>
  <g
     partID="854240220"
     id="g143"
     style="stroke-width:0.28346456;stroke-miterlimit:4;stroke-dasharray:none;stroke:#000000;stroke-opacity:1">
    <g
       transform="translate(260.504,195.612)"
       id="g145"
       style="stroke-width:0.28346456;stroke-miterlimit:4;stroke-dasharray:none;stroke:#000000;stroke-opacity:1">
      <g
         id="g147"
         style="stroke-width:0.28346456;stroke-miterlimit:4;stroke-dasharray:none;stroke:#000000;stroke-opacity:1">
        <circle
           cx="6.13543"
           cy="6.13543"
           id="circle149"
           r="4.53543"
           style="stroke:#000000;stroke-opacity:1;fill:none;stroke-width:0.28346456;stroke-miterlimit:4;stroke-dasharray:none"
           stroke-width="0"
           stroke="#f9a435"
           fill="black" />
      </g>
    </g>
  </g>
  <g
     partID="854308510"
     id="g326"
     style="stroke:#000000;stroke-opacity:1;stroke-width:0.28346456;stroke-miterlimit:4;stroke-dasharray:none">
    <g
       transform="translate(95.3346,37.8925)"
       id="g328"
       style="stroke:#000000;stroke-opacity:1;stroke-width:0.28346456;stroke-miterlimit:4;stroke-dasharray:none">
      <g
         transform="matrix(0,1,-1,0,0,0)"
         id="g330"
         style="stroke:#000000;stroke-opacity:1;stroke-width:0.28346456;stroke-miterlimit:4;stroke-dasharray:none">
        <g
           transform="matrix(1, 0, 0, 1, -0.000978198, -0.849744)"
           id="g332"
           style="stroke:#000000;stroke-opacity:1;stroke-width:0.28346456;stroke-miterlimit:4;stroke-dasharray:none">
          <g
             id="g334"
             style="stroke:#000000;stroke-opacity:1;stroke-width:0.28346456;stroke-miterlimit:4;stroke-dasharray:none">
            <g
               gorn="0.4.0.0"
               id="g336"
               style="stroke:#000000;stroke-opacity:1;stroke-width:0.28346456;stroke-miterlimit:4;stroke-dasharray:none">
              <rect
                 height="2.26772"
                 x="0.566929"
                 id="rect338"
                 gorn="0.4.0.0.0"
                 y="1.41732"
                 width="2.23937"
                 style="stroke:#000000;stroke-opacity:1;stroke-width:0.28346456;stroke-miterlimit:4;stroke-dasharray:none"
                 stroke="none"
                 fill-opacity="1"
                 fill="#f7bf13" />
              <rect
                 height="2.26772"
                 x="5.24409"
                 id="rect340"
                 gorn="0.4.0.0.1"
                 y="1.41732"
                 width="2.23937"
                 style="stroke:#000000;stroke-opacity:1;stroke-width:0.28346456;stroke-miterlimit:4;stroke-dasharray:none"
                 stroke="none"
                 fill-opacity="1"
                 fill="#f7bf13" />
            </g>
          </g>
        </g>
      </g>
    </g>
  </g>
  <g
     partID="854309250"
     id="g342"
     style="stroke:#000000;stroke-opacity:1;stroke-width:0.28346456;stroke-miterlimit:4;stroke-dasharray:none">
    <g
       transform="translate(48.5345,37.8925)"
       id="g344"
       style="stroke:#000000;stroke-opacity:1;stroke-width:0.28346456;stroke-miterlimit:4;stroke-dasharray:none">
      <g
         transform="matrix(0,1,-1,0,0,0)"
         id="g346"
         style="stroke:#000000;stroke-opacity:1;stroke-width:0.28346456;stroke-miterlimit:4;stroke-dasharray:none">
        <g
           transform="matrix(1, 0, 0, 1, -0.000978198, -0.849744)"
           id="g348"
           style="stroke:#000000;stroke-opacity:1;stroke-width:0.28346456;stroke-miterlimit:4;stroke-dasharray:none">
          <g
             id="g350"
             style="stroke:#000000;stroke-opacity:1;stroke-width:0.28346456;stroke-miterlimit:4;stroke-dasharray:none">
            <g
               gorn="0.4.0.0"
               id="g352"
               style="stroke:#000000;stroke-opacity:1;stroke-width:0.28346456;stroke-miterlimit:4;stroke-dasharray:none">
              <rect
                 height="2.26772"
                 x="0.566929"
                 id="rect354"
                 gorn="0.4.0.0.0"
                 y="1.41732"
                 width="2.23937"
                 style="stroke:#000000;stroke-opacity:1;stroke-width:0.28346456;stroke-miterlimit:4;stroke-dasharray:none"
                 stroke="none"
                 fill-opacity="1"
                 fill="#f7bf13" />
              <rect
                 height="2.26772"
                 x="5.24409"
                 id="rect356"
                 gorn="0.4.0.0.1"
                 y="1.41732"
                 width="2.23937"
                 style="stroke:#000000;stroke-opacity:1;stroke-width:0.28346456;stroke-miterlimit:4;stroke-dasharray:none"
                 stroke="none"
                 fill-opacity="1"
                 fill="#f7bf13" />
            </g>
          </g>
        </g>
      </g>
    </g>
  </g>
  <g
     partID="854310270"
     id="g358"
     style="stroke:#000000;stroke-opacity:1;stroke-width:0.28346456;stroke-miterlimit:4;stroke-dasharray:none">
    <g
       transform="translate(235.735,37.8925)"
       id="g360"
       style="stroke:#000000;stroke-opacity:1;stroke-width:0.28346456;stroke-miterlimit:4;stroke-dasharray:none">
      <g
         transform="matrix(0,1,-1,0,0,0)"
         id="g362"
         style="stroke:#000000;stroke-opacity:1;stroke-width:0.28346456;stroke-miterlimit:4;stroke-dasharray:none">
        <g
           transform="matrix(1, 0, 0, 1, -0.000978198, -0.849744)"
           id="g364"
           style="stroke:#000000;stroke-opacity:1;stroke-width:0.28346456;stroke-miterlimit:4;stroke-dasharray:none">
          <g
             id="g366"
             style="stroke:#000000;stroke-opacity:1;stroke-width:0.28346456;stroke-miterlimit:4;stroke-dasharray:none">
            <g
               gorn="0.4.0.0"
               id="g368"
               style="stroke:#000000;stroke-opacity:1;stroke-width:0.28346456;stroke-miterlimit:4;stroke-dasharray:none">
              <rect
                 height="2.26772"
                 x="0.566929"
                 id="rect370"
                 gorn="0.4.0.0.0"
                 y="1.41732"
                 width="2.23937"
                 style="stroke:#000000;stroke-opacity:1;stroke-width:0.28346456;stroke-miterlimit:4;stroke-dasharray:none"
                 stroke="none"
                 fill-opacity="1"
                 fill="#f7bf13" />
              <rect
                 height="2.26772"
                 x="5.24409"
                 id="rect372"
                 gorn="0.4.0.0.1"
                 y="1.41732"
                 width="2.23937"
                 style="stroke:#000000;stroke-opacity:1;stroke-width:0.28346456;stroke-miterlimit:4;stroke-dasharray:none"
                 stroke="none"
                 fill-opacity="1"
                 fill="#f7bf13" />
            </g>
          </g>
        </g>
      </g>
    </g>
  </g>
  <g
     partID="854256680"
     id="g1282"
     style="stroke:#000000;stroke-opacity:1;stroke-width:0.28346456;stroke-miterlimit:4;stroke-dasharray:none" />
  <path
     d="m 29.896484,156.19727 a 1.50015,1.50015 0 0 0 -1.5,1.5 l 0,33.73437 a 1.50015,1.50015 0 0 0 1.5,1.5 l 33.734375,0 a 1.50015,1.50015 0 0 0 1.5,-1.5 l 0,-33.73437 a 1.50015,1.50015 0 0 0 -1.5,-1.5 l -33.734375,0 z"
     id="path11090"
     style="fill:none;fill-opacity:1;stroke:#000000;stroke-width:0.28112188;stroke-miterlimit:4;stroke-dasharray:none;stroke-opacity:1"
     inkscape:original="M 29.896484 157.69727 L 29.896484 191.43164 L 63.630859 191.43164 L 63.630859 157.69727 L 29.896484 157.69727 z "
     inkscape:radius="1"
     sodipodi:type="inkscape:offset" />
  <path
     d="m 76.697266,156.41992 a 1.2772808,1.2772808 0 0 0 -1.277344,1.27735 l 0,33.73437 a 1.2772808,1.2772808 0 0 0 1.277344,1.27734 l 33.734374,0 a 1.2772808,1.2772808 0 0 0 1.27734,-1.27734 l 0,-33.73437 a 1.2772808,1.2772808 0 0 0 -1.27734,-1.27735 l -33.734374,0 z"
     id="path11092"
     style="fill:none;fill-opacity:1;stroke:#000000;stroke-width:0.28112188;stroke-miterlimit:4;stroke-dasharray:none;stroke-opacity:1"
     inkscape:original="M 76.697266 157.69727 L 76.697266 191.43164 L 110.43164 191.43164 L 110.43164 157.69727 L 76.697266 157.69727 z "
     inkscape:radius="1"
     sodipodi:type="inkscape:offset" />
  <path
     d="m 217.0957,156.48828 a 1.2094176,1.2094176 0 0 0 -1.20898,1.20899 l 0,33.73437 a 1.2094176,1.2094176 0 0 0 1.20898,1.20898 l 33.73633,0 a 1.2094176,1.2094176 0 0 0 1.20899,-1.20898 l 0,-33.73437 a 1.2094176,1.2094176 0 0 0 -1.20899,-1.20899 l -33.73633,0 z"
     id="path11098"
     style="fill:none;fill-opacity:1;stroke:#000000;stroke-width:0.28112191;stroke-miterlimit:4;stroke-dasharray:none;stroke-opacity:1"
     inkscape:original="M 217.0957 157.69727 L 217.0957 191.43164 L 250.83203 191.43164 L 250.83203 157.69727 L 217.0957 157.69727 z "
     inkscape:radius="1"
     sodipodi:type="inkscape:offset" />
  <path
     d="m 170.29688,156.51172 a 1.1859227,1.1859227 0 0 0 -1.18555,1.18555 l 0,33.73437 a 1.1859227,1.1859227 0 0 0 1.18555,1.18555 l 33.73437,0 a 1.1859227,1.1859227 0 0 0 1.18555,-1.18555 l 0,-33.73437 a 1.1859227,1.1859227 0 0 0 -1.18555,-1.18555 l -33.73437,0 z"
     id="path11096"
     style="fill:none;fill-opacity:1;stroke:#000000;stroke-width:0.28112191;stroke-miterlimit:4;stroke-dasharray:none;stroke-opacity:1"
     inkscape:original="M 170.29688 157.69727 L 170.29688 191.43164 L 204.03125 191.43164 L 204.03125 157.69727 L 170.29688 157.69727 z "
     inkscape:radius="1"
     sodipodi:type="inkscape:offset" />
  <path
     d="m 123.49609,156.71875 a 0.977945,0.977945 0 0 0 -0.97851,0.97852 l 0,33.73437 a 0.977945,0.977945 0 0 0 0.97851,0.97852 l 33.73438,0 a 0.977945,0.977945 0 0 0 0.97851,-0.97852 l 0,-33.73437 a 0.977945,0.977945 0 0 0 -0.97851,-0.97852 l -33.73438,0 z"
     id="path11094"
     style="fill:none;fill-opacity:1;stroke:#000000;stroke-width:0.28112188;stroke-miterlimit:4;stroke-dasharray:none;stroke-opacity:1"
     inkscape:original="M 123.49609 157.69727 L 123.49609 191.43164 L 157.23047 191.43164 L 157.23047 157.69727 L 123.49609 157.69727 z "
     inkscape:radius="1"
     sodipodi:type="inkscape:offset" />
  <path
     d="m 123.49609,24.496094 0,33.734375 33.73438,0 0,-33.734375 -33.73438,0 z"
     id="path11088"
     style="fill:none;fill-opacity:1;stroke:#000000;stroke-width:0.28112188;stroke-miterlimit:4;stroke-dasharray:none;stroke-opacity:1"
     inkscape:original="M 123.49609 24.496094 L 123.49609 58.230469 L 157.23047 58.230469 L 157.23047 24.496094 L 123.49609 24.496094 z "
     inkscape:radius="1"
     sodipodi:type="inkscape:offset" />
  <g
     inkscape:label="Hershey Text"
     transform="matrix(0.51539012,0,0,0.51539012,31.089329,42.689802)"
     id="g7760">
    <path
       inkscape:connector-curvature="0"
       style="fill:none;stroke:#000000"
       d="m -1,-12 -3,1 -2,3 -1,5 0,3 1,5 2,3 3,1 2,0 3,-1 2,-3 1,-5 0,-3 -1,-5 -2,-3 -3,-1 -2,0"
       transform="translate(10,0)"
       id="path7762" />
  </g>
  <g
     id="g7982"
     transform="matrix(0.51058352,0,0,0.51058352,81.037046,42.990756)"
     inkscape:label="Hershey Text">
    <path
       id="path7984"
       transform="translate(10,0)"
       d="m -4,-8 2,-1 3,-3 0,21"
       style="fill:none;stroke:#000000"
       inkscape:connector-curvature="0" />
  </g>
  <g
     inkscape:label="Hershey Text"
     transform="matrix(0.51539012,0,0,0.51539012,223.42001,146.30379)"
     id="g8701">
    <path
       inkscape:connector-curvature="0"
       style="fill:none;stroke:#000000"
       d="m 8,-7 -1,-2 -2,-2 -2,-1 -4,0 -2,1 -2,2 -1,2 -1,3 0,5 1,3 1,2 2,2 2,1 L 3,9 5,8 7,6 8,4"
       transform="translate(10,0)"
       id="path8703" />
    <path
       inkscape:connector-curvature="0"
       style="fill:none;stroke:#000000"
       d="M 7,-12 -7,9 m 0,-21 14,0 M -7,9 7,9"
       transform="translate(31,0)"
       id="path8705" />
  </g>
  <g
     inkscape:label="Hershey Text"
     transform="matrix(0.51539012,0,0,0.51539012,36.219814,146.30379)"
     id="g9795">
    <path
       inkscape:connector-curvature="0"
       style="fill:none;stroke:#000000"
       d="m 8,-7 -1,-2 -2,-2 -2,-1 -4,0 -2,1 -2,2 -1,2 -1,3 0,5 1,3 1,2 2,2 2,1 L 3,9 5,8 7,6 8,4"
       transform="translate(10,0)"
       id="path9797" />
    <path
       inkscape:connector-curvature="0"
       style="fill:none;stroke:#000000"
       d="M 7,-12 -7,9 m 0,-21 14,0 M -7,9 7,9"
       transform="translate(31,0)"
       id="path9799" />
  </g>
  <g
     inkscape:label="Hershey Text"
     transform="matrix(0.51539012,0,0,0.51539012,135.20938,146.30379)"
     id="g10378">
    <path
       inkscape:connector-curvature="0"
       style="fill:none;stroke:#000000"
       d="M 7,-12 -7,9 m 0,-21 14,0 M -7,9 7,9"
       transform="translate(10,0)"
       id="path10380" />
  </g>
  <g
     id="g10655"
     transform="matrix(0.52737594,0,0,0.52737594,181.36293,146.45362)"
     inkscape:label="Hershey Text">
    <path
       inkscape:connector-curvature="0"
       id="path10657"
       transform="translate(11,0)"
       d="m -7,-12 0,21 m 0,-21 9,0 3,1 1,1 1,2 0,3 -1,2 -1,1 -3,1 -9,0"
       style="fill:none;stroke:#000000" />
  </g>
  <g
     inkscape:label="Hershey Text"
     transform="matrix(0.53993251,0,0,0.53993251,87.625195,146.34061)"
     id="g10927">
    <path
       inkscape:connector-curvature="0"
       style="fill:none;stroke:#000000"
       d="M -7,-12 -7,9 M 7,-12 7,9 M -7,-2 7,-2"
       transform="translate(11,0)"
       id="path10929" />
  </g>
  <g
     id="g9759"
     transform="matrix(0.51584797,0,0,0.51539012,103.09326,71.207794)"
     inkscape:label="Hershey Text">
    <path
       id="path9761"
       transform="translate(12,0)"
       d="M -8,-12 -8,9 M -8,-12 0,9 M 8,-12 0,9 M 8,-12 8,9"
       style="fill:none;stroke:#000000"
       inkscape:connector-curvature="0" />
    <path
       id="path9763"
       transform="translate(34,0)"
       d="m -6,-12 0,21 m 0,-21 13,0 M -6,-2 2,-2 M -6,9 7,9"
       style="fill:none;stroke:#000000"
       inkscape:connector-curvature="0" />
    <path
       id="path9765"
       transform="translate(52,0)"
       d="M 0,-12 -8,9 M 0,-12 8,9 M -5,2 5,2"
       style="fill:none;stroke:#000000"
       inkscape:connector-curvature="0" />
    <path
       id="path9767"
       transform="translate(71,0)"
       d="m 7,-9 -2,-2 -3,-1 -4,0 -3,1 -2,2 0,2 1,2 1,1 2,1 6,2 L 5,0 6,1 7,3 7,6 5,8 2,9 -2,9 -5,8 -7,6"
       style="fill:none;stroke:#000000"
       inkscape:connector-curvature="0" />
    <path
       id="path9769"
       transform="translate(92,0)"
       d="m -7,-12 0,15 1,3 2,2 3,1 L 1,9 4,8 6,6 7,3 7,-12"
       style="fill:none;stroke:#000000"
       inkscape:connector-curvature="0" />
    <path
       id="path9771"
       transform="translate(114,0)"
       d="m -7,-12 0,21 m 0,-21 9,0 3,1 1,1 1,2 0,2 -1,2 -1,1 -3,1 -9,0 m 7,0 7,11"
       style="fill:none;stroke:#000000"
       inkscape:connector-curvature="0" />
    <path
       id="path9773"
       transform="translate(134,0)"
       d="m -6,-12 0,21 m 0,-21 13,0 M -6,-2 2,-2 M -6,9 7,9"
       style="fill:none;stroke:#000000"
       inkscape:connector-curvature="0" />
  </g>
  <path
     transform="translate(106.17751,133.62109)"
     d="m -0.734375,-41.697266 -0.7207031,4.853516 a 0.72027792,0.72027792 0 0 1 0,0.002 l -0.234375,1.5625 -0.828125,5.46875 -0.234375,1.560547 -0.8125,5.46875 a 0.72027792,0.72027792 0 0 1 0,0.002 l -0.234375,1.5625 -0.703125,4.640625 3.99609372,0 0.734375,-4.855469 0.234375,-1.560547 0.81249998,-5.46875 a 0.72027792,0.72027792 0 0 1 0,-0.002 l 0.234375,-1.5625 0.828125,-5.46875 0.234375,-1.560547 0.6894532,-4.642578 -3.9960938,0 z m 16.388672,0 -0.609375,4.027344 3.996094,0 0.609375,-4.027344 -3.996094,0 z m 12.970703,2.59961 -4.179688,1.224609 -0.15039,1.029297 a 0.72027792,0.72027792 0 0 1 0,0.002 l -0.234375,1.5625 -0.828125,5.46875 -0.234375,1.560547 -0.8125,5.46875 a 0.72027792,0.72027792 0 0 1 0,0.002 l -0.234375,1.5625 -0.703125,4.640625 3.996094,0 0.734375,-4.855469 0.234375,-1.560547 0.8125,-5.46875 a 0.72027792,0.72027792 0 0 1 0,-0.002 l 0.234375,-1.5625 a 0.72027792,0.72027792 0 0 1 0.71289,-0.613281 l 1.925782,0 0.597656,-4.027344 -1.695313,0 a 0.72027792,0.72027792 0 0 1 -0.71289,-0.828125 l 0.234375,-1.560547 0.302734,-2.042968 z m -56.203125,4.43164 -0.720703,4.853516 a 0.72027792,0.72027792 0 0 1 0,0.002 l -0.234375,1.5625 -0.828125,5.46875 -0.234375,1.560547 -0.8125,5.46875 a 0.72027792,0.72027792 0 0 1 0,0.002 l -0.234375,1.5625 -0.703125,4.6406251 4.011719,0 0.734375,-4.8554691 0.234375,-1.560547 0.8125,-5.46875 a 0.72027792,0.72027792 0 0 1 0,-0.002 l 0.234375,-1.5625 0.828125,-5.46875 0.234375,-1.560547 0.689453,-4.642578 -4.011719,0 z m 9.388672,0 -0.734375,4.855469 -0.234375,1.560547 -0.8125,5.46875 a 0.72027792,0.72027792 0 0 1 0,0.002 l -0.234375,1.5625 c -0.258523,1.707228 -0.01051,2.830966 0.580078,3.529297 0.504429,0.596453 1.433873,0.924635 2.724609,1.025391 l 0.722657,-4.769532 0.234375,-1.560547 0.8125,-5.46875 a 0.72027792,0.72027792 0 0 1 0,-0.002 l 0.234375,-1.5625 0.703125,-4.640625 -3.996094,0 z m 7.015625,0 -0.734375,4.855469 -0.234375,1.560547 -0.8125,5.46875 a 0.72027792,0.72027792 0 0 1 0,0.002 l -0.234375,1.5625 -0.703125,4.640625 4.0117186,0 0.734375,-4.855469 0.234375,-1.560547 0.8125,-5.46875 a 0.72027792,0.72027792 0 0 1 0,-0.002 l 0.234375,-1.5625 0.703125,-4.640625 -4.0117186,0 z m 25.767578,0 -0.720703,4.853516 a 0.72027792,0.72027792 0 0 1 0,0.002 l -0.234375,1.5625 -0.828125,5.46875 -0.234375,1.560547 -0.689453,4.642578 3.996093,0 0.720704,-4.853516 a 0.72027792,0.72027792 0 0 1 0,-0.002 l 0.234375,-1.5625 0.828125,-5.46875 0.234375,-1.560547 0.689453,-4.642578 -3.996094,0 z m 30.8125,0 -0.597656,4.027344 3.996094,0 0.597656,-4.027344 -3.996094,0 z m 7.015625,0 -0.720703,4.853516 a 0.72027792,0.72027792 0 0 1 0,0.002 l -0.234375,1.5625 -0.685547,4.523438 c 1.234382,-0.127371 2.25897,-0.445654 2.980469,-1.072266 0.893614,-0.776092 1.489574,-1.959119 1.748047,-3.666016 l 0.234375,-1.560547 0.689453,-4.642578 -4.011719,0 z m 25.826172,0 -0.734375,4.855469 -0.234375,1.560547 -0.8125,5.46875 a 0.72027792,0.72027792 0 0 1 0,0.002 l -0.234375,1.5625 -0.703125,4.640625 3.996094,0 0.734375,-4.855469 0.234375,-1.560547 0.8125,-5.46875 a 0.72027792,0.72027792 0 0 1 0,-0.002 l 0.234375,-1.5625 0.703125,-4.640625 -3.996094,0 z m -73.0273439,0.08594 -0.7226562,4.769531 -0.234375,1.560547 -0.8125,5.46875 a 0.72027792,0.72027792 0 0 1 0,0.002 l -0.234375,1.5625 -0.6855469,4.523438 c 1.2343821,-0.127371 2.2589701,-0.445654 2.9804688,-1.072266 0.8936145,-0.776092 1.489574,-1.959119 1.7480468,-3.666016 l 0.234375,-1.560547 0.8125,-5.46875 a 0.72027792,0.72027792 0 0 1 0,-0.002 l 0.234375,-1.5625 c 0.2584729,-1.706895 0.0108,-2.828721 -0.5820312,-3.527343 -0.5066724,-0.597089 -1.4416134,-0.926759 -2.7382813,-1.027344 z m 63.5937499,0 -0.722656,4.769531 -0.234375,1.560547 -0.8125,5.46875 a 0.72027792,0.72027792 0 0 1 0,0.002 l -0.234375,1.5625 -0.685547,4.523438 c 1.234382,-0.127371 2.25897,-0.445654 2.980469,-1.072266 0.893614,-0.776092 1.489574,-1.959119 1.748047,-3.666016 l 0.234375,-1.560547 0.8125,-5.46875 a 0.72027792,0.72027792 0 0 1 0,-0.002 l 0.234375,-1.5625 c 0.258473,-1.706895 0.0108,-2.828721 -0.582032,-3.527343 -0.506672,-0.597089 -1.441613,-0.926759 -2.738281,-1.027344 z m 16.4375,0 -0.722656,4.769531 -0.234375,1.560547 -0.8125,5.46875 a 0.72027792,0.72027792 0 0 1 0,0.002 l -0.234375,1.5625 -0.703125,4.640625 4.011719,0 0.734375,-4.855469 0.234375,-1.560547 0.8125,-5.46875 a 0.72027792,0.72027792 0 0 1 0,-0.002 l 0.234375,-1.5625 c 0.258473,-1.706895 0.0108,-2.828721 -0.582032,-3.527343 -0.506672,-0.597089 -1.441613,-0.926759 -2.738281,-1.027344 z m 16.470707,0 -0.70899,4.767578 a 0.72027792,0.72027792 0 0 1 0,0.002 l -0.23437,1.5625 -0.68555,4.523438 c 1.23438,-0.127371 2.25897,-0.445654 2.98047,-1.072266 0.89361,-0.776092 1.48957,-1.959119 1.74805,-3.666016 l 0.23437,-1.560547 0,-0.002 c 0.253,-1.705439 0.002,-2.828141 -0.59375,-3.527343 -0.50876,-0.597536 -1.44429,-0.926484 -2.74023,-1.027344 z m -132.337894,0.03125 c -1.229194,0.127374 -2.249814,0.44647 -2.966797,1.072266 -0.888305,0.775328 -1.478798,1.95698 -1.732422,3.664062 a 0.72027792,0.72027792 0 0 1 0,0.002 l -0.234375,1.5625 -0.828125,5.46875 -0.234375,1.5625 c -0.253048,1.705773 -0.0032,2.828432 0.589844,3.527344 0.506512,0.5969 1.438503,0.926312 2.728515,1.027344 l 0.708985,-4.767579 a 0.72027792,0.72027792 0 0 1 0,-0.002 l 0.234375,-1.5625 0.828125,-5.46875 0.234375,-1.560547 0.671875,-4.52539 z m 96.404296,0 c -1.229113,0.127524 -2.249681,0.446211 -2.96875,1.072266 -0.891182,0.775904 -1.485617,1.958788 -1.74414,3.666015 l -0.234375,1.560547 -0.8125,5.46875 a 0.72027792,0.72027792 0 0 1 0,0.002 l -0.234375,1.5625 c -0.258523,1.707228 -0.01051,2.830966 0.580078,3.529297 0.504429,0.596453 1.433873,0.924635 2.724609,1.025391 l 0.722657,-4.769532 0.234375,-1.560547 0.8125,-5.46875 a 0.72027792,0.72027792 0 0 1 0,-0.002 l 0.234375,-1.5625 0.685546,-4.523437 z m 32.908204,0 c -1.229194,0.127374 -2.249814,0.44647 -2.966797,1.072266 -0.888305,0.775328 -1.478798,1.95698 -1.732422,3.664062 a 0.72027792,0.72027792 0 0 1 0,0.002 l -0.234375,1.5625 -0.828125,5.46875 -0.234375,1.5625 c -0.253048,1.705773 -0.0032,2.828432 0.589844,3.527344 0.506512,0.5969 1.438503,0.926312 2.728515,1.027344 l 0.708985,-4.767579 a 0.72027792,0.72027792 0 0 1 0,-0.002 l 0.234375,-1.5625 0.828125,-5.46875 0.234375,-1.560547 0.671875,-4.52539 z m -50.361328,7.03125 c -1.229114,0.127524 -2.249682,0.446211 -2.96875,1.072266 -0.891183,0.775904 -1.485618,1.958788 -1.744141,3.666015 l -0.234375,1.560547 -0.689453,4.642578 3.996093,0 0.720704,-4.853516 a 0.72027792,0.72027792 0 0 1 0,-0.002 l 0.234375,-1.5625 0.685547,-4.523437 z m -12.410157,6.914062 c -0.785525,0 -1.300974,0.186448 -1.666015,0.50586 -0.365042,0.319411 -0.627838,0.817326 -0.746094,1.613281 -0.118256,0.795956 0.0072,1.237256 0.21289,1.480469 0.205689,0.243213 0.601193,0.427734 1.386719,0.427734 0.791424,0 1.312389,-0.186072 1.679688,-0.505859 0.367298,-0.319787 0.629889,-0.81799 0.748047,-1.613281 0.118157,-0.795292 -0.0073,-1.234724 -0.214844,-1.478516 -0.207571,-0.243792 -0.608967,-0.429688 -1.400391,-0.429688 z m 14.386719,0 -0.597656,4.027344 4.011718,0 0.597657,-4.027344 -4.011719,0 z m 49.3125,0 -0.580078,3.910157 c 1.234838,-0.127138 2.258958,-0.445784 2.978518,-1.072266 0.72207,-0.628669 1.18955,-1.61199 1.49804,-2.837891 l -3.89648,0 z"
     id="path4284"
     style="font-style:normal;font-weight:normal;font-size:32px;line-height:125%;font-family:sans-serif;letter-spacing:0px;word-spacing:0px;fill:none;fill-opacity:1;stroke:#000000;stroke-width:1px;stroke-linecap:butt;stroke-linejoin:miter;stroke-opacity:1"
     inkscape:original="M -1.3554688 -42.417969 L -2.1679688 -36.949219 L -2.4023438 -35.386719 L -3.2304688 -29.917969 L -3.4648438 -28.355469 L -4.2773438 -22.886719 L -4.5117188 -21.324219 L -5.3398438 -15.855469 L 0.11328125 -15.855469 L 0.94140625 -21.324219 L 1.1757812 -22.886719 L 1.9882812 -28.355469 L 2.2226562 -29.917969 L 3.0507812 -35.386719 L 3.2851562 -36.949219 L 4.0976562 -42.417969 L -1.3554688 -42.417969 z M 15.035156 -42.417969 L 14.207031 -36.949219 L 19.660156 -36.949219 L 20.488281 -42.417969 L 15.035156 -42.417969 z M 29.503906 -40.105469 L 23.800781 -38.433594 L 23.582031 -36.949219 L 23.347656 -35.386719 L 22.519531 -29.917969 L 22.285156 -28.355469 L 21.472656 -22.886719 L 21.238281 -21.324219 L 20.410156 -15.855469 L 25.863281 -15.855469 L 26.691406 -21.324219 L 26.925781 -22.886719 L 27.738281 -28.355469 L 27.972656 -29.917969 L 30.519531 -29.917969 L 31.332031 -35.386719 L 28.800781 -35.386719 L 29.035156 -36.949219 L 29.503906 -40.105469 z M -29.761719 -35.386719 C -33.397135 -35.386719 -35.485677 -33.563802 -36.027344 -29.917969 L -36.261719 -28.355469 L -37.089844 -22.886719 L -37.324219 -21.324219 C -37.865885 -17.678385 -36.31901 -15.855469 -32.683594 -15.855469 L -31.871094 -21.324219 L -31.636719 -22.886719 L -30.808594 -28.355469 L -30.574219 -29.917969 L -29.761719 -35.386719 z M -28.199219 -35.386719 L -29.011719 -29.917969 L -29.246094 -28.355469 L -30.074219 -22.886719 L -30.308594 -21.324219 L -31.121094 -15.855469 L -31.355469 -14.292969 L -32.183594 -8.8242188 L -26.714844 -8.8242188 L -25.886719 -14.292969 L -25.652344 -15.855469 L -24.839844 -21.324219 L -24.605469 -22.886719 L -23.777344 -28.355469 L -23.542969 -29.917969 L -22.730469 -35.386719 L -28.199219 -35.386719 z M -18.808594 -35.386719 L -19.636719 -29.917969 L -19.871094 -28.355469 L -20.683594 -22.886719 L -20.917969 -21.324219 C -21.470052 -17.678385 -19.928385 -15.855469 -16.292969 -15.855469 L -15.464844 -21.324219 L -15.230469 -22.886719 L -14.417969 -28.355469 L -14.183594 -29.917969 L -13.355469 -35.386719 L -18.808594 -35.386719 z M -11.792969 -35.386719 L -12.621094 -29.917969 L -12.855469 -28.355469 L -13.667969 -22.886719 L -13.902344 -21.324219 L -14.730469 -15.855469 L -9.2617188 -15.855469 L -8.4335938 -21.324219 L -8.1992188 -22.886719 L -7.3867188 -28.355469 L -7.1523438 -29.917969 L -6.3242188 -35.386719 L -11.792969 -35.386719 z M 4.6132812 -35.386719 L 3.7851562 -29.917969 L 3.5507812 -28.355469 L 2.7382812 -22.886719 L 2.5039062 -21.324219 L 1.6757812 -15.855469 C 5.3216146 -15.855469 7.4205729 -17.678385 7.9726562 -21.324219 L 8.2070312 -22.886719 L 9.0195312 -28.355469 L 9.2539062 -29.917969 C 9.8059897 -33.563802 8.2591147 -35.386719 4.6132812 -35.386719 z M 13.972656 -35.386719 L 13.160156 -29.917969 L 12.925781 -28.355469 L 12.097656 -22.886719 L 11.863281 -21.324219 L 11.050781 -15.855469 L 16.503906 -15.855469 L 17.316406 -21.324219 L 17.550781 -22.886719 L 18.378906 -28.355469 L 18.613281 -29.917969 L 19.425781 -35.386719 L 13.972656 -35.386719 z M 44.785156 -35.386719 L 43.972656 -29.917969 L 49.425781 -29.917969 L 50.238281 -35.386719 L 44.785156 -35.386719 z M 51.800781 -35.386719 L 50.988281 -29.917969 L 50.753906 -28.355469 L 49.925781 -22.886719 C 53.571615 -22.886719 55.670573 -24.709635 56.222656 -28.355469 L 56.457031 -29.917969 L 57.269531 -35.386719 L 51.800781 -35.386719 z M 66.644531 -35.386719 C 63.009115 -35.386719 60.915365 -33.563802 60.363281 -29.917969 L 60.128906 -28.355469 L 59.316406 -22.886719 L 59.082031 -21.324219 C 58.529948 -17.678385 60.071615 -15.855469 63.707031 -15.855469 L 64.535156 -21.324219 L 64.769531 -22.886719 L 65.582031 -28.355469 L 65.816406 -29.917969 L 66.644531 -35.386719 z M 68.207031 -35.386719 L 67.378906 -29.917969 L 67.144531 -28.355469 L 66.332031 -22.886719 L 66.097656 -21.324219 L 65.269531 -15.855469 C 68.915365 -15.855469 71.014323 -17.678385 71.566406 -21.324219 L 71.800781 -22.886719 L 72.613281 -28.355469 L 72.847656 -29.917969 C 73.39974 -33.563802 71.852865 -35.386719 68.207031 -35.386719 z M 77.628906 -35.386719 L 76.800781 -29.917969 L 76.566406 -28.355469 L 75.753906 -22.886719 L 75.519531 -21.324219 L 74.691406 -15.855469 L 80.144531 -15.855469 L 80.972656 -21.324219 L 81.207031 -22.886719 L 82.019531 -28.355469 L 82.253906 -29.917969 L 83.082031 -35.386719 L 77.628906 -35.386719 z M 84.644531 -35.386719 L 83.816406 -29.917969 L 83.582031 -28.355469 L 82.769531 -22.886719 L 82.535156 -21.324219 L 81.707031 -15.855469 L 87.175781 -15.855469 L 88.003906 -21.324219 L 88.238281 -22.886719 L 89.050781 -28.355469 L 89.285156 -29.917969 C 89.83724 -33.563802 88.290365 -35.386719 84.644531 -35.386719 z M 99.550781 -35.386719 C 95.915365 -35.386719 93.826823 -33.563802 93.285156 -29.917969 L 93.050781 -28.355469 L 92.222656 -22.886719 L 91.988281 -21.324219 C 91.446615 -17.678385 92.99349 -15.855469 96.628906 -15.855469 L 97.441406 -21.324219 L 97.675781 -22.886719 L 98.503906 -28.355469 L 98.738281 -29.917969 L 99.550781 -35.386719 z M 101.11328 -35.386719 L 100.30078 -29.917969 L 100.06641 -28.355469 L 99.238281 -22.886719 C 102.88411 -22.886719 104.98307 -24.709635 105.53516 -28.355469 L 105.76953 -29.917969 C 106.3112 -33.563802 104.75911 -35.386719 101.11328 -35.386719 z M 49.191406 -28.355469 C 45.55599 -28.355469 43.46224 -26.532552 42.910156 -22.886719 L 42.675781 -21.324219 L 41.863281 -15.855469 L 47.316406 -15.855469 L 48.128906 -21.324219 L 48.363281 -22.886719 L 49.191406 -28.355469 z M 35.925781 -21.324219 C 34.113281 -21.324219 33.071615 -20.41276 32.800781 -18.589844 C 32.529948 -16.766927 33.300781 -15.855469 35.113281 -15.855469 C 36.936198 -15.855469 37.983073 -16.766927 38.253906 -18.589844 C 38.52474 -20.41276 37.748698 -21.324219 35.925781 -21.324219 z M 49.691406 -21.324219 L 48.878906 -15.855469 L 54.347656 -15.855469 L 55.160156 -21.324219 L 49.691406 -21.324219 z M 99.003906 -21.324219 L 98.191406 -15.855469 C 101.83724 -15.855469 103.93099 -17.678385 104.47266 -21.324219 L 99.003906 -21.324219 z "
     inkscape:radius="-0.7202059"
     sodipodi:type="inkscape:offset" />
  <g
     id="g4409"
     transform="matrix(0.53093206,0,0,0.53093206,218.03524,42.713114)"
     inkscape:label="Hershey Text">
    <path
       id="path4411"
       transform="translate(9,0)"
       d="M 0,-12 -8,9 M 0,-12 8,9 M -5,2 5,2"
       style="fill:none;stroke:#000000"
       inkscape:connector-curvature="0" />
  </g>
  <path
     style="fill:none;fill-opacity:1;stroke:#000000;stroke-width:0.28442022;stroke-miterlimit:4;stroke-dasharray:none;stroke-opacity:1"
     d="M 9.6377953,32.261102 32.314961,9.5844154 l 216.266459,0 22.6767,22.6766866 0,151.367248 -22.6767,22.67668 -216.266459,0 -22.6766878,-22.67668 z"
     id="rect4282"
     inkscape:connector-curvature="0"
     sodipodi:nodetypes="ccccccccc" />
  <rect
     style="fill:none;fill-opacity:1;stroke:#000000;stroke-width:0.28346458;stroke-miterlimit:4;stroke-dasharray:none;stroke-opacity:1"
     id="rect3459"
     width="56.692913"
     height="45.354332"
     x="1.4901161e-008"
     y="85.32283" />
  <rect
     style="fill:none;fill-opacity:1;stroke:#000000;stroke-width:0.29721659;stroke-miterlimit:4;stroke-dasharray:none;stroke-opacity:1"
     id="rect3461"
     width="66.033493"
     height="64.332703"
     x="0.0068760216"
     y="75.833649" />
  <rect
     style="fill:none;fill-opacity:1;stroke:#000000;stroke-width:0.29721659;stroke-miterlimit:4;stroke-dasharray:none;stroke-opacity:1"
     id="rect3461-6"
     width="66.033493"
     height="64.332703"
     x="214.75963"
     y="75.833649" />
  <rect
     style="fill:none;fill-opacity:1;stroke:#000000;stroke-width:0.28346458;stroke-miterlimit:4;stroke-dasharray:none;stroke-opacity:1"
     id="rect3459-3"
     width="56.692913"
     height="45.354332"
     x="224.10707"
     y="85.32283" />
</svg>
