<?xml version="1.0" encoding="UTF-8" standalone="no"?>
<!-- Created with Fritzing (http://www.fritzing.org/) -->

<svg
   xmlns:dc="http://purl.org/dc/elements/1.1/"
   xmlns:cc="http://creativecommons.org/ns#"
   xmlns:rdf="http://www.w3.org/1999/02/22-rdf-syntax-ns#"
   xmlns:svg="http://www.w3.org/2000/svg"
   xmlns="http://www.w3.org/2000/svg"
   xmlns:sodipodi="http://sodipodi.sourceforge.net/DTD/sodipodi-0.dtd"
   xmlns:inkscape="http://www.inkscape.org/namespaces/inkscape"
   sodipodi:docname="layer-2.svg"
   inkscape:version="0.91 r13725"
   id="svg2"
   viewBox="0 0 280.8 216"
   height="3in"
   width="3.9in"
   y="0in"
   x="0in"
   version="1.2">
  <sodipodi:namedview
     inkscape:current-layer="svg2"
     inkscape:window-maximized="1"
     inkscape:window-y="-8"
     inkscape:window-x="-8"
     inkscape:cy="139.50745"
     inkscape:cx="34.546157"
     inkscape:zoom="2.3852263"
     showgrid="false"
     id="namedview1811"
     inkscape:window-height="966"
     inkscape:window-width="1829"
     inkscape:pageshadow="2"
     inkscape:pageopacity="0"
     guidetolerance="10"
     gridtolerance="10"
     objecttolerance="10"
     borderopacity="1"
     bordercolor="#666666"
     pagecolor="#ffffff"
     inkscape:snap-bbox="true"
     inkscape:bbox-paths="true"
     inkscape:snap-bbox-edge-midpoints="true"
     inkscape:bbox-nodes="true"
     inkscape:object-paths="true"
     inkscape:snap-intersection-paths="true" />
  <metadata
     id="metadata1815">
    <rdf:RDF>
      <cc:Work
         rdf:about="">
        <dc:format>image/svg+xml</dc:format>
        <dc:type
           rdf:resource="http://purl.org/dc/dcmitype/StillImage" />
        <dc:title />
      </cc:Work>
    </rdf:RDF>
  </metadata>
  <defs
     id="defs1813" />
  <g
     id="g6"
     transform="translate(0,-625.89001)"
     style="stroke:#000000;stroke-opacity:1;stroke-width:0.28346457;stroke-miterlimit:4;stroke-dasharray:none">
    <g
       id="board"
       style="stroke:#000000;stroke-opacity:1;stroke-width:0.28346457;stroke-miterlimit:4;stroke-dasharray:none">
      <g
         id="g9"
         style="fill:none;stroke:#000000;stroke-opacity:1;stroke-width:0.28346457;stroke-miterlimit:4;stroke-dasharray:none" />
    </g>
  </g>
  <g
     partID="854240130"
     id="g120"
     style="stroke:#000000;stroke-opacity:1;fill:none;stroke-width:0.28346457;stroke-miterlimit:4;stroke-dasharray:none">
    <g
       transform="translate(8.13851,195.636)"
       id="g122"
       style="stroke:#000000;stroke-opacity:1;fill:none;stroke-width:0.28346457;stroke-miterlimit:4;stroke-dasharray:none">
      <g
         id="g124"
         style="stroke:#000000;stroke-opacity:1;fill:none;stroke-width:0.28346457;stroke-miterlimit:4;stroke-dasharray:none">
        <path
           style="fill:none;stroke:#000000;stroke-width:0.28346458;stroke-miterlimit:4;stroke-dasharray:none;stroke-opacity:1"
           d="M 10.67084,6.1354198 A 4.5354199,4.5354199 0 0 1 6.1354198,10.67084 4.5354199,4.5354199 0 0 1 1.5999999,6.1354198 4.5354199,4.5354199 0 0 1 6.1354198,1.5999999 4.5354199,4.5354199 0 0 1 10.67084,6.1354198 Z"
           id="nonconn0" />
      </g>
    </g>
  </g>
  <g
     partID="854240160"
     id="g127"
     style="stroke:#000000;stroke-opacity:1;fill:none;stroke-width:0.28346457;stroke-miterlimit:4;stroke-dasharray:none">
    <g
       transform="translate(8.03795,7.98297)"
       id="g129"
       style="stroke:#000000;stroke-opacity:1;fill:none;stroke-width:0.28346457;stroke-miterlimit:4;stroke-dasharray:none">
      <g
         id="g131"
         style="stroke:#000000;stroke-opacity:1;fill:none;stroke-width:0.28346457;stroke-miterlimit:4;stroke-dasharray:none">
        <path
           style="fill:none;stroke:#000000;stroke-width:0.28346458;stroke-miterlimit:4;stroke-dasharray:none;stroke-opacity:1"
           d="m 10.67086,6.1354299 a 4.53543,4.53543 0 0 1 -4.5354301,4.5354301 4.53543,4.53543 0 0 1 -4.53543,-4.5354301 4.53543,4.53543 0 0 1 4.53543,-4.53543 4.53543,4.53543 0 0 1 4.5354301,4.53543 z"
           id="circle133" />
      </g>
    </g>
  </g>
  <g
     partID="854240190"
     id="g135"
     style="stroke:#000000;stroke-opacity:1;fill:none;stroke-width:0.28346457;stroke-miterlimit:4;stroke-dasharray:none">
    <g
       transform="translate(260.53,8.04937)"
       id="g137"
       style="stroke:#000000;stroke-opacity:1;fill:none;stroke-width:0.28346457;stroke-miterlimit:4;stroke-dasharray:none">
      <g
         id="g139"
         style="stroke:#000000;stroke-opacity:1;fill:none;stroke-width:0.28346457;stroke-miterlimit:4;stroke-dasharray:none">
        <path
           style="fill:none;stroke:#000000;stroke-width:0.28346458;stroke-miterlimit:4;stroke-dasharray:none;stroke-opacity:1"
           d="m 10.67086,6.1354299 a 4.53543,4.53543 0 0 1 -4.5354301,4.5354301 4.53543,4.53543 0 0 1 -4.53543,-4.5354301 4.53543,4.53543 0 0 1 4.53543,-4.53543 4.53543,4.53543 0 0 1 4.5354301,4.53543 z"
           id="circle141" />
      </g>
    </g>
  </g>
  <g
     partID="854240220"
     id="g143"
     style="stroke-width:0.28346457;stroke-miterlimit:4;stroke-dasharray:none;stroke:#000000;stroke-opacity:1">
    <g
       transform="translate(260.504,195.612)"
       id="g145"
       style="stroke-width:0.28346457;stroke-miterlimit:4;stroke-dasharray:none;stroke:#000000;stroke-opacity:1">
      <g
         id="g147"
         style="stroke-width:0.28346457;stroke-miterlimit:4;stroke-dasharray:none;stroke:#000000;stroke-opacity:1">
        <path
           style="fill:none;stroke:#000000;stroke-width:0.28346458;stroke-miterlimit:4;stroke-dasharray:none;stroke-opacity:1"
           d="m 10.67086,6.1354299 a 4.53543,4.53543 0 0 1 -4.5354301,4.5354301 4.53543,4.53543 0 0 1 -4.53543,-4.5354301 4.53543,4.53543 0 0 1 4.53543,-4.53543 4.53543,4.53543 0 0 1 4.5354301,4.53543 z"
           id="circle149" />
      </g>
    </g>
  </g>
  <g
     partID="854256680"
     id="g1282"
     style="stroke:#000000;stroke-opacity:1;stroke-width:0.28346457;stroke-miterlimit:4;stroke-dasharray:none" />
  <path
     style="fill:none;fill-opacity:1;stroke:#000000;stroke-width:0.28510797;stroke-miterlimit:4;stroke-dasharray:none;stroke-opacity:1"
     d="m 13.537054,-0.70784458 c -7.89154,0 -14.24489368,6.36291828 -14.24489368,14.26633258 l 0,51.087337 0,20.76804 55.90543668,0 0,45.650375 -55.90543668,0 0,71.37726 c 0,7.90342 6.35335368,14.26634 14.24489368,14.26634 l 253.725876,0 c 7.89154,0 14.2449,-6.36292 14.2449,-14.26634 l 0,-71.61631 0,-0.0503 -56.92775,0 0,-45.549719 56.92775,0 0,-0.05033 0,-71.616325 c 0,-7.9034143 -6.35336,-14.26633258 -14.2449,-14.26633258 l -253.725876,0 z"
     id="path3509"
     inkscape:connector-curvature="0" />
  <path
     style="fill:none;fill-opacity:1;stroke:#000000;stroke-width:0.28346457;stroke-miterlimit:4;stroke-dasharray:none;stroke-opacity:1"
     d="m 32.315625,9.5843752 216.265625,0 22.67657,22.6765628 0,43.573437 -56.49844,0 0,64.331245 56.49844,0 0,43.46251 -22.67657,22.67656 -216.265625,0 -22.678125,-22.67656 0,-43.46251 56.403125,0 0,-64.331245 -47.067187,0 -9.335938,0 0,-10.66875 0,-32.904687 z"
     id="path3507" />
</svg>
