<?xml version="1.0" encoding="UTF-8" standalone="no"?>
<!-- Created with Fritzing (http://www.fritzing.org/) -->

<svg
   xmlns:dc="http://purl.org/dc/elements/1.1/"
   xmlns:cc="http://creativecommons.org/ns#"
   xmlns:rdf="http://www.w3.org/1999/02/22-rdf-syntax-ns#"
   xmlns:svg="http://www.w3.org/2000/svg"
   xmlns="http://www.w3.org/2000/svg"
   xmlns:sodipodi="http://sodipodi.sourceforge.net/DTD/sodipodi-0.dtd"
   xmlns:inkscape="http://www.inkscape.org/namespaces/inkscape"
   sodipodi:docname="layer-4-extra.svg"
   inkscape:version="0.91 r13725"
   id="svg2"
   viewBox="0 0 425.08344 360.28348"
   height="5.0039372in"
   width="5.9039369in"
   y="0in"
   x="0in"
   version="1.2">
  <sodipodi:namedview
     inkscape:current-layer="svg2"
     inkscape:window-maximized="1"
     inkscape:window-y="-8"
     inkscape:window-x="-8"
     inkscape:cy="153.1541"
     inkscape:cx="360.7188"
     inkscape:zoom="1.4142136"
     showgrid="false"
     id="namedview1811"
     inkscape:window-height="966"
     inkscape:window-width="1829"
     inkscape:pageshadow="2"
     inkscape:pageopacity="0"
     guidetolerance="10"
     gridtolerance="10"
     objecttolerance="10"
     borderopacity="1"
     bordercolor="#666666"
     pagecolor="#ffffff"
     fit-margin-top="1"
     fit-margin-left="1"
     fit-margin-right="1"
     fit-margin-bottom="1" />
  <metadata
     id="metadata1815">
    <rdf:RDF>
      <cc:Work
         rdf:about="">
        <dc:format>image/svg+xml</dc:format>
        <dc:type
           rdf:resource="http://purl.org/dc/dcmitype/StillImage" />
        <dc:title></dc:title>
      </cc:Work>
    </rdf:RDF>
  </metadata>
  <defs
     id="defs1813" />
  <g
     id="g6"
     transform="matrix(1.0050416,0,0,1.0065574,71.397176,-558.56065)"
     style="stroke:#000000;stroke-width:0.28346458;stroke-miterlimit:4;stroke-dasharray:none;stroke-opacity:1">
    <g
       id="board"
       style="stroke:#000000;stroke-width:0.28346458;stroke-miterlimit:4;stroke-dasharray:none;stroke-opacity:1">
      <g
         id="g9"
         style="fill:none;stroke:#000000;stroke-width:0.28346458;stroke-miterlimit:4;stroke-dasharray:none;stroke-opacity:1">
        <path
           style="fill:none;fill-opacity:0.2;stroke:#000000;stroke-width:0.28346458;stroke-miterlimit:4;stroke-dasharray:none;stroke-opacity:1"
           d="m 14.1732,625.89001 252.45359,0 c 7.85195,0 14.1732,6.32125 14.1732,14.1732 l 0,187.6536 c 0,7.85196 -6.32125,14.1732 -14.1732,14.1732 l -252.45359,0 C 6.321247,841.89001 0,835.56877 0,827.71681 l 0,-187.6536 c 0,-7.85195 6.321247,-14.1732 14.1732,-14.1732 z"
           id="boardoutline"
           inkscape:connector-curvature="0" />
      </g>
    </g>
  </g>
  <g
     partID="854240130"
     id="g120"
     style="fill:none;stroke:#000000;stroke-width:0.28346458;stroke-miterlimit:4;stroke-dasharray:none;stroke-opacity:1"
     transform="translate(72.141732,72.141732)">
    <g
       transform="translate(8.13851,195.636)"
       id="g122"
       style="fill:none;stroke:#000000;stroke-width:0.28346458;stroke-miterlimit:4;stroke-dasharray:none;stroke-opacity:1">
      <g
         id="g124"
         style="fill:none;stroke:#000000;stroke-width:0.28346458;stroke-miterlimit:4;stroke-dasharray:none;stroke-opacity:1">
        <path
           style="fill:none;stroke:#000000;stroke-width:0.28346458;stroke-miterlimit:4;stroke-dasharray:none;stroke-opacity:1"
           d="M 10.67084,6.1354198 A 4.5354199,4.5354199 0 0 1 6.1354198,10.67084 4.5354199,4.5354199 0 0 1 1.5999999,6.1354198 4.5354199,4.5354199 0 0 1 6.1354198,1.5999999 4.5354199,4.5354199 0 0 1 10.67084,6.1354198 Z"
           id="nonconn0" />
      </g>
    </g>
  </g>
  <g
     partID="854240160"
     id="g127"
     style="display:inline;fill:none;stroke:#000000;stroke-width:0.28346458;stroke-miterlimit:4;stroke-dasharray:none;stroke-opacity:1"
     transform="translate(72.141732,72.141732)">
    <g
       transform="translate(8.03795,7.98297)"
       id="g129"
       style="fill:none;stroke:#000000;stroke-width:0.28346458;stroke-miterlimit:4;stroke-dasharray:none;stroke-opacity:1">
      <g
         id="g131"
         style="fill:none;stroke:#000000;stroke-width:0.28346458;stroke-miterlimit:4;stroke-dasharray:none;stroke-opacity:1">
        <path
           style="fill:none;stroke:#000000;stroke-width:0.28346458;stroke-miterlimit:4;stroke-dasharray:none;stroke-opacity:1"
           d="m 10.67086,6.1354299 a 4.53543,4.53543 0 0 1 -4.5354301,4.5354301 4.53543,4.53543 0 0 1 -4.53543,-4.5354301 4.53543,4.53543 0 0 1 4.53543,-4.53543 4.53543,4.53543 0 0 1 4.5354301,4.53543 z"
           id="circle133"
           inkscape:connector-curvature="0" />
      </g>
    </g>
  </g>
  <g
     partID="854240190"
     id="g135"
     style="fill:none;stroke:#000000;stroke-width:0.28346458;stroke-miterlimit:4;stroke-dasharray:none;stroke-opacity:1"
     transform="translate(72.141732,72.141732)">
    <g
       transform="translate(260.53,8.04937)"
       id="g137"
       style="fill:none;stroke:#000000;stroke-width:0.28346458;stroke-miterlimit:4;stroke-dasharray:none;stroke-opacity:1">
      <g
         id="g139"
         style="fill:none;stroke:#000000;stroke-width:0.28346458;stroke-miterlimit:4;stroke-dasharray:none;stroke-opacity:1">
        <path
           style="fill:none;stroke:#000000;stroke-width:0.28346458;stroke-miterlimit:4;stroke-dasharray:none;stroke-opacity:1"
           d="m 10.67086,6.1354299 a 4.53543,4.53543 0 0 1 -4.5354301,4.5354301 4.53543,4.53543 0 0 1 -4.53543,-4.5354301 4.53543,4.53543 0 0 1 4.53543,-4.53543 4.53543,4.53543 0 0 1 4.5354301,4.53543 z"
           id="circle141" />
      </g>
    </g>
  </g>
  <g
     partID="854240220"
     id="g143"
     style="stroke:#000000;stroke-width:0.28346458;stroke-miterlimit:4;stroke-dasharray:none;stroke-opacity:1"
     transform="translate(72.141732,72.141732)">
    <g
       transform="translate(260.504,195.612)"
       id="g145"
       style="stroke:#000000;stroke-width:0.28346458;stroke-miterlimit:4;stroke-dasharray:none;stroke-opacity:1">
      <g
         id="g147"
         style="stroke:#000000;stroke-width:0.28346458;stroke-miterlimit:4;stroke-dasharray:none;stroke-opacity:1">
        <path
           style="fill:none;stroke:#000000;stroke-width:0.28346458;stroke-miterlimit:4;stroke-dasharray:none;stroke-opacity:1"
           d="m 10.67086,6.1354299 a 4.53543,4.53543 0 0 1 -4.5354301,4.5354301 4.53543,4.53543 0 0 1 -4.53543,-4.5354301 4.53543,4.53543 0 0 1 4.53543,-4.53543 4.53543,4.53543 0 0 1 4.5354301,4.53543 z"
           id="circle149" />
      </g>
    </g>
  </g>
  <g
     partID="854256680"
     id="g1282"
     style="stroke:#000000;stroke-width:0.28346455;stroke-miterlimit:4;stroke-dasharray:none;stroke-opacity:1"
     transform="translate(72.141732,72.141732)" />
  <path
     transform="translate(72.141732,72.141732)"
     style="fill:none;fill-opacity:1;stroke:#000000;stroke-width:0.28346458;stroke-miterlimit:4;stroke-dasharray:none;stroke-opacity:1"
     d="m 29.896484,156.69727 a 1.0001,1.0001 0 0 0 -1,1 l 0,33.73437 a 1.0001,1.0001 0 0 0 1,1 l 33.734375,0 a 1.0001,1.0001 0 0 0 1,-1 l 0,-33.73437 a 1.0001,1.0001 0 0 0 -1,-1 l -33.734375,0 z"
     id="path11090" />
  <path
     transform="translate(72.141732,72.141732)"
     style="fill:none;fill-opacity:1;stroke:#000000;stroke-width:0.28346458;stroke-miterlimit:4;stroke-dasharray:none;stroke-opacity:1"
     d="m 76.697266,156.69727 a 1.0001,1.0001 0 0 0 -1,1 l 0,33.73437 a 1.0001,1.0001 0 0 0 1,1 l 33.734374,0 a 1.0001,1.0001 0 0 0 1,-1 l 0,-33.73437 a 1.0001,1.0001 0 0 0 -1,-1 l -33.734374,0 z"
     id="path11092" />
  <path
     transform="translate(72.141732,72.141732)"
     style="fill:none;fill-opacity:1;stroke:#000000;stroke-width:0.28346458;stroke-miterlimit:4;stroke-dasharray:none;stroke-opacity:1"
     d="m 217.0957,156.69727 a 1.0001,1.0001 0 0 0 -1,1 l 0,33.73437 a 1.0001,1.0001 0 0 0 1,1 l 33.73633,0 a 1.0001,1.0001 0 0 0 1,-1 l 0,-33.73437 a 1.0001,1.0001 0 0 0 -1,-1 l -33.73633,0 z"
     id="path11098" />
  <path
     transform="translate(72.141732,72.141732)"
     style="fill:none;fill-opacity:1;stroke:#000000;stroke-width:0.28346458;stroke-miterlimit:4;stroke-dasharray:none;stroke-opacity:1"
     d="m 170.29688,156.69727 a 1.0001,1.0001 0 0 0 -1,1 l 0,33.73437 a 1.0001,1.0001 0 0 0 1,1 l 33.73437,0 a 1.0001,1.0001 0 0 0 1,-1 l 0,-33.73437 a 1.0001,1.0001 0 0 0 -1,-1 l -33.73437,0 z"
     id="path11096" />
  <path
     transform="translate(72.141732,72.141732)"
     style="fill:none;fill-opacity:1;stroke:#000000;stroke-width:0.28346458;stroke-miterlimit:4;stroke-dasharray:none;stroke-opacity:1"
     d="m 123.49609,156.69727 a 1.0001,1.0001 0 0 0 -1,1 l 0,33.73437 a 1.0001,1.0001 0 0 0 1,1 l 33.73438,0 a 1.0001,1.0001 0 0 0 1,-1 l 0,-33.73437 a 1.0001,1.0001 0 0 0 -1,-1 l -33.73438,0 z"
     id="path11094" />
  <path
     transform="translate(72.141732,72.141732)"
     style="fill:none;fill-opacity:1;stroke:#000000;stroke-width:0.28346458;stroke-miterlimit:4;stroke-dasharray:none;stroke-opacity:1"
     d="m 123.49609,23.496094 a 1.0001,1.0001 0 0 0 -1,1 l 0,33.734375 a 1.0001,1.0001 0 0 0 1,1 l 33.73438,0 a 1.0001,1.0001 0 0 0 1,-1 l 0,-33.734375 a 1.0001,1.0001 0 0 0 -1,-1 l -33.73438,0 z"
     id="path11088" />
  <g
     inkscape:label="Hershey Text"
     transform="matrix(0.51539012,0,0,0.51539012,103.23106,114.83153)"
     id="g7760"
     style="stroke-width:0.55000001;stroke-miterlimit:4;stroke-dasharray:none">
    <path
       inkscape:connector-curvature="0"
       style="fill:none;stroke:#000000;stroke-width:0.55000001;stroke-miterlimit:4;stroke-dasharray:none"
       d="m -1,-12 -3,1 -2,3 -1,5 0,3 1,5 2,3 3,1 2,0 3,-1 2,-3 1,-5 0,-3 -1,-5 -2,-3 -3,-1 -2,0"
       transform="translate(10,0)"
       id="path7762" />
  </g>
  <g
     id="g7982"
     transform="matrix(0.51058352,0,0,0.51058352,153.17878,115.13249)"
     inkscape:label="Hershey Text"
     style="stroke-width:0.55517769;stroke-miterlimit:4;stroke-dasharray:none">
    <path
       id="path7984"
       transform="translate(10,0)"
       d="m -4,-8 2,-1 3,-3 0,21"
       style="fill:none;stroke:#000000;stroke-width:0.55517769;stroke-miterlimit:4;stroke-dasharray:none"
       inkscape:connector-curvature="0" />
  </g>
  <g
     inkscape:label="Hershey Text"
     transform="matrix(0.51539012,0,0,0.51539012,295.56174,218.44552)"
     id="g8701"
     style="stroke-width:0.55000001;stroke-miterlimit:4;stroke-dasharray:none">
    <path
       inkscape:connector-curvature="0"
       style="fill:none;stroke:#000000;stroke-width:0.55000001;stroke-miterlimit:4;stroke-dasharray:none"
       d="m 8,-7 -1,-2 -2,-2 -2,-1 -4,0 -2,1 -2,2 -1,2 -1,3 0,5 1,3 1,2 2,2 2,1 L 3,9 5,8 7,6 8,4"
       transform="translate(10,0)"
       id="path8703" />
    <path
       inkscape:connector-curvature="0"
       style="fill:none;stroke:#000000;stroke-width:0.55000001;stroke-miterlimit:4;stroke-dasharray:none"
       d="M 7,-12 -7,9 m 0,-21 14,0 M -7,9 7,9"
       transform="translate(31,0)"
       id="path8705" />
  </g>
  <g
     inkscape:label="Hershey Text"
     transform="matrix(0.51539012,0,0,0.51539012,108.36155,218.44552)"
     id="g9795"
     style="stroke-width:0.55000001;stroke-miterlimit:4;stroke-dasharray:none">
    <path
       inkscape:connector-curvature="0"
       style="fill:none;stroke:#000000;stroke-width:0.55000001;stroke-miterlimit:4;stroke-dasharray:none"
       d="m 8,-7 -1,-2 -2,-2 -2,-1 -4,0 -2,1 -2,2 -1,2 -1,3 0,5 1,3 1,2 2,2 2,1 L 3,9 5,8 7,6 8,4"
       transform="translate(10,0)"
       id="path9797" />
    <path
       inkscape:connector-curvature="0"
       style="fill:none;stroke:#000000;stroke-width:0.55000001;stroke-miterlimit:4;stroke-dasharray:none"
       d="M 7,-12 -7,9 m 0,-21 14,0 M -7,9 7,9"
       transform="translate(31,0)"
       id="path9799" />
  </g>
  <g
     inkscape:label="Hershey Text"
     transform="matrix(0.51539012,0,0,0.51539012,207.35111,218.44552)"
     id="g10378"
     style="stroke-width:0.55000001;stroke-miterlimit:4;stroke-dasharray:none">
    <path
       inkscape:connector-curvature="0"
       style="fill:none;stroke:#000000;stroke-width:0.55000001;stroke-miterlimit:4;stroke-dasharray:none"
       d="M 7,-12 -7,9 m 0,-21 14,0 M -7,9 7,9"
       transform="translate(10,0)"
       id="path10380" />
  </g>
  <g
     id="g10655"
     transform="matrix(0.52737594,0,0,0.52737594,253.50466,218.59535)"
     inkscape:label="Hershey Text"
     style="stroke-width:0.53750002;stroke-miterlimit:4;stroke-dasharray:none">
    <path
       inkscape:connector-curvature="0"
       id="path10657"
       transform="translate(11,0)"
       d="m -7,-12 0,21 m 0,-21 9,0 3,1 1,1 1,2 0,3 -1,2 -1,1 -3,1 -9,0"
       style="fill:none;stroke:#000000;stroke-width:0.53750002;stroke-miterlimit:4;stroke-dasharray:none" />
  </g>
  <g
     inkscape:label="Hershey Text"
     transform="matrix(0.53993251,0,0,0.53993251,159.76693,218.48234)"
     id="g10927"
     style="stroke-width:0.52499998;stroke-miterlimit:4;stroke-dasharray:none">
    <path
       inkscape:connector-curvature="0"
       style="fill:none;stroke:#000000;stroke-width:0.52499998;stroke-miterlimit:4;stroke-dasharray:none"
       d="M -7,-12 -7,9 M 7,-12 7,9 M -7,-2 7,-2"
       transform="translate(11,0)"
       id="path10929" />
  </g>
  <g
     id="g9759"
     transform="matrix(0.51584797,0,0,0.51539012,175.23499,143.34953)"
     inkscape:label="Hershey Text"
     style="stroke-width:0.54975587;stroke-miterlimit:4;stroke-dasharray:none">
    <path
       id="path9761"
       transform="translate(12,0)"
       d="M -8,-12 -8,9 M -8,-12 0,9 M 8,-12 0,9 M 8,-12 8,9"
       style="fill:none;stroke:#000000;stroke-width:0.54975587;stroke-miterlimit:4;stroke-dasharray:none"
       inkscape:connector-curvature="0" />
    <path
       id="path9763"
       transform="translate(34,0)"
       d="m -6,-12 0,21 m 0,-21 13,0 M -6,-2 2,-2 M -6,9 7,9"
       style="fill:none;stroke:#000000;stroke-width:0.54975587;stroke-miterlimit:4;stroke-dasharray:none"
       inkscape:connector-curvature="0" />
    <path
       id="path9765"
       transform="translate(52,0)"
       d="M 0,-12 -8,9 M 0,-12 8,9 M -5,2 5,2"
       style="fill:none;stroke:#000000;stroke-width:0.54975587;stroke-miterlimit:4;stroke-dasharray:none"
       inkscape:connector-curvature="0" />
    <path
       id="path9767"
       transform="translate(71,0)"
       d="m 7,-9 -2,-2 -3,-1 -4,0 -3,1 -2,2 0,2 1,2 1,1 2,1 6,2 L 5,0 6,1 7,3 7,6 5,8 2,9 -2,9 -5,8 -7,6"
       style="fill:none;stroke:#000000;stroke-width:0.54975587;stroke-miterlimit:4;stroke-dasharray:none"
       inkscape:connector-curvature="0" />
    <path
       id="path9769"
       transform="translate(92,0)"
       d="m -7,-12 0,15 1,3 2,2 3,1 L 1,9 4,8 6,6 7,3 7,-12"
       style="fill:none;stroke:#000000;stroke-width:0.54975587;stroke-miterlimit:4;stroke-dasharray:none"
       inkscape:connector-curvature="0" />
    <path
       id="path9771"
       transform="translate(114,0)"
       d="m -7,-12 0,21 m 0,-21 9,0 3,1 1,1 1,2 0,2 -1,2 -1,1 -3,1 -9,0 m 7,0 7,11"
       style="fill:none;stroke:#000000;stroke-width:0.54975587;stroke-miterlimit:4;stroke-dasharray:none"
       inkscape:connector-curvature="0" />
    <path
       id="path9773"
       transform="translate(134,0)"
       d="m -6,-12 0,21 m 0,-21 13,0 M -6,-2 2,-2 M -6,9 7,9"
       style="fill:none;stroke:#000000;stroke-width:0.54975587;stroke-miterlimit:4;stroke-dasharray:none"
       inkscape:connector-curvature="0" />
  </g>
  <path
     transform="translate(178.31924,205.76282)"
     style="font-style:normal;font-weight:normal;font-size:32px;line-height:125%;font-family:sans-serif;letter-spacing:0px;word-spacing:0px;fill:none;fill-opacity:1;stroke:#000000;stroke-width:0.28346458;stroke-linecap:butt;stroke-linejoin:miter;stroke-miterlimit:4;stroke-dasharray:none;stroke-opacity:1"
     d="m -0.734375,-41.697266 -0.7207031,4.853516 a 0.72027792,0.72027792 0 0 1 0,0.002 l -0.234375,1.5625 -0.828125,5.46875 -0.234375,1.560547 -0.8125,5.46875 a 0.72027792,0.72027792 0 0 1 0,0.002 l -0.234375,1.5625 -0.703125,4.640625 3.99609372,0 0.734375,-4.855469 0.234375,-1.560547 0.81249998,-5.46875 a 0.72027792,0.72027792 0 0 1 0,-0.002 l 0.234375,-1.5625 0.828125,-5.46875 0.234375,-1.560547 0.6894532,-4.642578 -3.9960938,0 z m 16.388672,0 -0.609375,4.027344 3.996094,0 0.609375,-4.027344 -3.996094,0 z m 12.970703,2.59961 -4.179688,1.224609 -0.15039,1.029297 a 0.72027792,0.72027792 0 0 1 0,0.002 l -0.234375,1.5625 -0.828125,5.46875 -0.234375,1.560547 -0.8125,5.46875 a 0.72027792,0.72027792 0 0 1 0,0.002 l -0.234375,1.5625 -0.703125,4.640625 3.996094,0 0.734375,-4.855469 0.234375,-1.560547 0.8125,-5.46875 a 0.72027792,0.72027792 0 0 1 0,-0.002 l 0.234375,-1.5625 a 0.72027792,0.72027792 0 0 1 0.71289,-0.613281 l 1.925782,0 0.597656,-4.027344 -1.695313,0 a 0.72027792,0.72027792 0 0 1 -0.71289,-0.828125 l 0.234375,-1.560547 0.302734,-2.042968 z m -56.203125,4.43164 -0.720703,4.853516 a 0.72027792,0.72027792 0 0 1 0,0.002 l -0.234375,1.5625 -0.828125,5.46875 -0.234375,1.560547 -0.8125,5.46875 a 0.72027792,0.72027792 0 0 1 0,0.002 l -0.234375,1.5625 -0.703125,4.6406251 4.011719,0 0.734375,-4.8554691 0.234375,-1.560547 0.8125,-5.46875 a 0.72027792,0.72027792 0 0 1 0,-0.002 l 0.234375,-1.5625 0.828125,-5.46875 0.234375,-1.560547 0.689453,-4.642578 -4.011719,0 z m 9.388672,0 -0.734375,4.855469 -0.234375,1.560547 -0.8125,5.46875 a 0.72027792,0.72027792 0 0 1 0,0.002 l -0.234375,1.5625 c -0.258523,1.707228 -0.01051,2.830966 0.580078,3.529297 0.504429,0.596453 1.433873,0.924635 2.724609,1.025391 l 0.722657,-4.769532 0.234375,-1.560547 0.8125,-5.46875 a 0.72027792,0.72027792 0 0 1 0,-0.002 l 0.234375,-1.5625 0.703125,-4.640625 -3.996094,0 z m 7.015625,0 -0.734375,4.855469 -0.234375,1.560547 -0.8125,5.46875 a 0.72027792,0.72027792 0 0 1 0,0.002 l -0.234375,1.5625 -0.703125,4.640625 4.0117186,0 0.734375,-4.855469 0.234375,-1.560547 0.8125,-5.46875 a 0.72027792,0.72027792 0 0 1 0,-0.002 l 0.234375,-1.5625 0.703125,-4.640625 -4.0117186,0 z m 25.767578,0 -0.720703,4.853516 a 0.72027792,0.72027792 0 0 1 0,0.002 l -0.234375,1.5625 -0.828125,5.46875 -0.234375,1.560547 -0.689453,4.642578 3.996093,0 0.720704,-4.853516 a 0.72027792,0.72027792 0 0 1 0,-0.002 l 0.234375,-1.5625 0.828125,-5.46875 0.234375,-1.560547 0.689453,-4.642578 -3.996094,0 z m 30.8125,0 -0.597656,4.027344 3.996094,0 0.597656,-4.027344 -3.996094,0 z m 7.015625,0 -0.720703,4.853516 a 0.72027792,0.72027792 0 0 1 0,0.002 l -0.234375,1.5625 -0.685547,4.523438 c 1.234382,-0.127371 2.25897,-0.445654 2.980469,-1.072266 0.893614,-0.776092 1.489574,-1.959119 1.748047,-3.666016 l 0.234375,-1.560547 0.689453,-4.642578 -4.011719,0 z m 25.826172,0 -0.734375,4.855469 -0.234375,1.560547 -0.8125,5.46875 a 0.72027792,0.72027792 0 0 1 0,0.002 l -0.234375,1.5625 -0.703125,4.640625 3.996094,0 0.734375,-4.855469 0.234375,-1.560547 0.8125,-5.46875 a 0.72027792,0.72027792 0 0 1 0,-0.002 l 0.234375,-1.5625 0.703125,-4.640625 -3.996094,0 z m -73.0273439,0.08594 -0.7226562,4.769531 -0.234375,1.560547 -0.8125,5.46875 a 0.72027792,0.72027792 0 0 1 0,0.002 l -0.234375,1.5625 -0.6855469,4.523438 c 1.2343821,-0.127371 2.2589701,-0.445654 2.9804688,-1.072266 0.8936145,-0.776092 1.489574,-1.959119 1.7480468,-3.666016 l 0.234375,-1.560547 0.8125,-5.46875 a 0.72027792,0.72027792 0 0 1 0,-0.002 l 0.234375,-1.5625 c 0.2584729,-1.706895 0.0108,-2.828721 -0.5820312,-3.527343 -0.5066724,-0.597089 -1.4416134,-0.926759 -2.7382813,-1.027344 z m 63.5937499,0 -0.722656,4.769531 -0.234375,1.560547 -0.8125,5.46875 a 0.72027792,0.72027792 0 0 1 0,0.002 l -0.234375,1.5625 -0.685547,4.523438 c 1.234382,-0.127371 2.25897,-0.445654 2.980469,-1.072266 0.893614,-0.776092 1.489574,-1.959119 1.748047,-3.666016 l 0.234375,-1.560547 0.8125,-5.46875 a 0.72027792,0.72027792 0 0 1 0,-0.002 l 0.234375,-1.5625 c 0.258473,-1.706895 0.0108,-2.828721 -0.582032,-3.527343 -0.506672,-0.597089 -1.441613,-0.926759 -2.738281,-1.027344 z m 16.4375,0 -0.722656,4.769531 -0.234375,1.560547 -0.8125,5.46875 a 0.72027792,0.72027792 0 0 1 0,0.002 l -0.234375,1.5625 -0.703125,4.640625 4.011719,0 0.734375,-4.855469 0.234375,-1.560547 0.8125,-5.46875 a 0.72027792,0.72027792 0 0 1 0,-0.002 l 0.234375,-1.5625 c 0.258473,-1.706895 0.0108,-2.828721 -0.582032,-3.527343 -0.506672,-0.597089 -1.441613,-0.926759 -2.738281,-1.027344 z m 16.470707,0 -0.70899,4.767578 a 0.72027792,0.72027792 0 0 1 0,0.002 l -0.23437,1.5625 -0.68555,4.523438 c 1.23438,-0.127371 2.25897,-0.445654 2.98047,-1.072266 0.89361,-0.776092 1.48957,-1.959119 1.74805,-3.666016 l 0.23437,-1.560547 0,-0.002 c 0.253,-1.705439 0.002,-2.828141 -0.59375,-3.527343 -0.50876,-0.597536 -1.44429,-0.926484 -2.74023,-1.027344 z m -132.337894,0.03125 c -1.229194,0.127374 -2.249814,0.44647 -2.966797,1.072266 -0.888305,0.775328 -1.478798,1.95698 -1.732422,3.664062 a 0.72027792,0.72027792 0 0 1 0,0.002 l -0.234375,1.5625 -0.828125,5.46875 -0.234375,1.5625 c -0.253048,1.705773 -0.0032,2.828432 0.589844,3.527344 0.506512,0.5969 1.438503,0.926312 2.728515,1.027344 l 0.708985,-4.767579 a 0.72027792,0.72027792 0 0 1 0,-0.002 l 0.234375,-1.5625 0.828125,-5.46875 0.234375,-1.560547 0.671875,-4.52539 z m 96.404296,0 c -1.229113,0.127524 -2.249681,0.446211 -2.96875,1.072266 -0.891182,0.775904 -1.485617,1.958788 -1.74414,3.666015 l -0.234375,1.560547 -0.8125,5.46875 a 0.72027792,0.72027792 0 0 1 0,0.002 l -0.234375,1.5625 c -0.258523,1.707228 -0.01051,2.830966 0.580078,3.529297 0.504429,0.596453 1.433873,0.924635 2.724609,1.025391 l 0.722657,-4.769532 0.234375,-1.560547 0.8125,-5.46875 a 0.72027792,0.72027792 0 0 1 0,-0.002 l 0.234375,-1.5625 0.685546,-4.523437 z m 32.908204,0 c -1.229194,0.127374 -2.249814,0.44647 -2.966797,1.072266 -0.888305,0.775328 -1.478798,1.95698 -1.732422,3.664062 a 0.72027792,0.72027792 0 0 1 0,0.002 l -0.234375,1.5625 -0.828125,5.46875 -0.234375,1.5625 c -0.253048,1.705773 -0.0032,2.828432 0.589844,3.527344 0.506512,0.5969 1.438503,0.926312 2.728515,1.027344 l 0.708985,-4.767579 a 0.72027792,0.72027792 0 0 1 0,-0.002 l 0.234375,-1.5625 0.828125,-5.46875 0.234375,-1.560547 0.671875,-4.52539 z m -50.361328,7.03125 c -1.229114,0.127524 -2.249682,0.446211 -2.96875,1.072266 -0.891183,0.775904 -1.485618,1.958788 -1.744141,3.666015 l -0.234375,1.560547 -0.689453,4.642578 3.996093,0 0.720704,-4.853516 a 0.72027792,0.72027792 0 0 1 0,-0.002 l 0.234375,-1.5625 0.685547,-4.523437 z m -12.410157,6.914062 c -0.785525,0 -1.300974,0.186448 -1.666015,0.50586 -0.365042,0.319411 -0.627838,0.817326 -0.746094,1.613281 -0.118256,0.795956 0.0072,1.237256 0.21289,1.480469 0.205689,0.243213 0.601193,0.427734 1.386719,0.427734 0.791424,0 1.312389,-0.186072 1.679688,-0.505859 0.367298,-0.319787 0.629889,-0.81799 0.748047,-1.613281 0.118157,-0.795292 -0.0073,-1.234724 -0.214844,-1.478516 -0.207571,-0.243792 -0.608967,-0.429688 -1.400391,-0.429688 z m 14.386719,0 -0.597656,4.027344 4.011718,0 0.597657,-4.027344 -4.011719,0 z m 49.3125,0 -0.580078,3.910157 c 1.234838,-0.127138 2.258958,-0.445784 2.978518,-1.072266 0.72207,-0.628669 1.18955,-1.61199 1.49804,-2.837891 l -3.89648,0 z"
     id="path4284" />
  <g
     id="g4409"
     transform="matrix(0.53093206,0,0,0.53093206,290.17697,114.85485)"
     inkscape:label="Hershey Text"
     style="stroke-width:0.5338999;stroke-miterlimit:4;stroke-dasharray:none">
    <path
       id="path4411"
       transform="translate(9,0)"
       d="M 0,-12 -8,9 M 0,-12 8,9 M -5,2 5,2"
       style="fill:none;stroke:#000000;stroke-width:0.5338999;stroke-miterlimit:4;stroke-dasharray:none"
       inkscape:connector-curvature="0" />
  </g>
</svg>
