<?xml version="1.0" encoding="UTF-8" standalone="no"?>
<!-- Created with Fritzing (http://www.fritzing.org/) -->

<svg
   xmlns:dc="http://purl.org/dc/elements/1.1/"
   xmlns:cc="http://creativecommons.org/ns#"
   xmlns:rdf="http://www.w3.org/1999/02/22-rdf-syntax-ns#"
   xmlns:svg="http://www.w3.org/2000/svg"
   xmlns="http://www.w3.org/2000/svg"
   xmlns:sodipodi="http://sodipodi.sourceforge.net/DTD/sodipodi-0.dtd"
   xmlns:inkscape="http://www.inkscape.org/namespaces/inkscape"
   sodipodi:docname="layer-3.svg"
   inkscape:version="0.91 r13725"
   id="svg2"
   viewBox="0 0 280.8 216"
   height="3in"
   width="3.9in"
   y="0in"
   x="0in"
   version="1.2">
  <sodipodi:namedview
     inkscape:current-layer="svg2"
     inkscape:window-maximized="0"
     inkscape:window-y="15"
     inkscape:window-x="262"
     inkscape:cy="143.4383"
     inkscape:cx="174.7024"
     inkscape:zoom="2.3852263"
     showgrid="false"
     id="namedview1811"
     inkscape:window-height="1029"
     inkscape:window-width="1829"
     inkscape:pageshadow="2"
     inkscape:pageopacity="0"
     guidetolerance="10"
     gridtolerance="10"
     objecttolerance="10"
     borderopacity="1"
     bordercolor="#666666"
     pagecolor="#ffffff" />
  <metadata
     id="metadata1815">
    <rdf:RDF>
      <cc:Work
         rdf:about="">
        <dc:format>image/svg+xml</dc:format>
        <dc:type
           rdf:resource="http://purl.org/dc/dcmitype/StillImage" />
        <dc:title />
      </cc:Work>
    </rdf:RDF>
  </metadata>
  <defs
     id="defs1813" />
  <g
     id="g6"
     transform="matrix(1.0050416,0,0,1.0065574,-0.70794683,-630.70289)"
     style="stroke:#000000;stroke-width:0.28346455;stroke-miterlimit:4;stroke-dasharray:none;stroke-opacity:1">
    <g
       id="board"
       style="stroke:#000000;stroke-width:0.28346455;stroke-miterlimit:4;stroke-dasharray:none;stroke-opacity:1">
      <g
         id="g9"
         style="fill:none;stroke:#000000;stroke-width:0.28346455;stroke-miterlimit:4;stroke-dasharray:none;stroke-opacity:1">
        <path
           style="fill:none;fill-opacity:0.2;stroke:#000000;stroke-width:0.28346455;stroke-miterlimit:4;stroke-dasharray:none;stroke-opacity:1"
           d="m 14.1732,625.89001 252.45359,0 c 7.85195,0 14.1732,6.32125 14.1732,14.1732 l 0,187.6536 c 0,7.85196 -6.32125,14.1732 -14.1732,14.1732 l -252.45359,0 C 6.321247,841.89001 0,835.56877 0,827.71681 l 0,-187.6536 c 0,-7.85195 6.321247,-14.1732 14.1732,-14.1732 z"
           id="boardoutline"
           inkscape:connector-curvature="0" />
      </g>
    </g>
  </g>
  <g
     partID="854240130"
     id="g120"
     style="stroke:#000000;stroke-opacity:1;fill:none;stroke-width:0.28346456;stroke-miterlimit:4;stroke-dasharray:none">
    <g
       transform="translate(8.13851,195.636)"
       id="g122"
       style="stroke:#000000;stroke-opacity:1;fill:none;stroke-width:0.28346456;stroke-miterlimit:4;stroke-dasharray:none">
      <g
         id="g124"
         style="stroke:#000000;stroke-opacity:1;fill:none;stroke-width:0.28346456;stroke-miterlimit:4;stroke-dasharray:none">
        <path
           style="fill:none;stroke:#000000;stroke-width:0.28346455;stroke-miterlimit:4;stroke-dasharray:none;stroke-opacity:1"
           d="M 10.67084,6.1354198 A 4.5354199,4.5354199 0 0 1 6.1354198,10.67084 4.5354199,4.5354199 0 0 1 1.5999999,6.1354198 4.5354199,4.5354199 0 0 1 6.1354198,1.5999999 4.5354199,4.5354199 0 0 1 10.67084,6.1354198 Z"
           id="nonconn0" />
      </g>
    </g>
  </g>
  <g
     partID="854240160"
     id="g127"
     style="stroke:#000000;stroke-opacity:1;fill:none;stroke-width:0.28346456;stroke-miterlimit:4;stroke-dasharray:none">
    <g
       transform="translate(8.03795,7.98297)"
       id="g129"
       style="stroke:#000000;stroke-opacity:1;fill:none;stroke-width:0.28346456;stroke-miterlimit:4;stroke-dasharray:none">
      <g
         id="g131"
         style="stroke:#000000;stroke-opacity:1;fill:none;stroke-width:0.28346456;stroke-miterlimit:4;stroke-dasharray:none">
        <path
           style="fill:none;stroke:#000000;stroke-width:0.28346455;stroke-miterlimit:4;stroke-dasharray:none;stroke-opacity:1"
           d="m 10.67086,6.1354299 a 4.53543,4.53543 0 0 1 -4.5354301,4.5354301 4.53543,4.53543 0 0 1 -4.53543,-4.5354301 4.53543,4.53543 0 0 1 4.53543,-4.53543 4.53543,4.53543 0 0 1 4.5354301,4.53543 z"
           id="circle133" />
      </g>
    </g>
  </g>
  <g
     partID="854240190"
     id="g135"
     style="stroke:#000000;stroke-opacity:1;fill:none;stroke-width:0.28346456;stroke-miterlimit:4;stroke-dasharray:none">
    <g
       transform="translate(260.53,8.04937)"
       id="g137"
       style="stroke:#000000;stroke-opacity:1;fill:none;stroke-width:0.28346456;stroke-miterlimit:4;stroke-dasharray:none">
      <g
         id="g139"
         style="stroke:#000000;stroke-opacity:1;fill:none;stroke-width:0.28346456;stroke-miterlimit:4;stroke-dasharray:none">
        <path
           style="fill:none;stroke:#000000;stroke-width:0.28346455;stroke-miterlimit:4;stroke-dasharray:none;stroke-opacity:1"
           d="m 10.67086,6.1354299 a 4.53543,4.53543 0 0 1 -4.5354301,4.5354301 4.53543,4.53543 0 0 1 -4.53543,-4.5354301 4.53543,4.53543 0 0 1 4.53543,-4.53543 4.53543,4.53543 0 0 1 4.5354301,4.53543 z"
           id="circle141" />
      </g>
    </g>
  </g>
  <g
     partID="854240220"
     id="g143"
     style="stroke-width:0.28346456;stroke-miterlimit:4;stroke-dasharray:none;stroke:#000000;stroke-opacity:1">
    <g
       transform="translate(260.504,195.612)"
       id="g145"
       style="stroke-width:0.28346456;stroke-miterlimit:4;stroke-dasharray:none;stroke:#000000;stroke-opacity:1">
      <g
         id="g147"
         style="stroke-width:0.28346456;stroke-miterlimit:4;stroke-dasharray:none;stroke:#000000;stroke-opacity:1">
        <path
           style="fill:none;stroke:#000000;stroke-width:0.28346455;stroke-miterlimit:4;stroke-dasharray:none;stroke-opacity:1"
           d="m 10.67086,6.1354299 a 4.53543,4.53543 0 0 1 -4.5354301,4.5354301 4.53543,4.53543 0 0 1 -4.53543,-4.5354301 4.53543,4.53543 0 0 1 4.53543,-4.53543 4.53543,4.53543 0 0 1 4.5354301,4.53543 z"
           id="circle149" />
      </g>
    </g>
  </g>
  <g
     partID="854256680"
     id="g1282"
     style="stroke:#000000;stroke-opacity:1;stroke-width:0.28346456;stroke-miterlimit:4;stroke-dasharray:none" />
  <path
     style="fill:none;fill-opacity:1;stroke:#000000;stroke-width:0.28442022;stroke-miterlimit:4;stroke-dasharray:none;stroke-opacity:1"
     d="M 9.6377953,32.261102 32.314961,9.5844154 l 216.266459,0 22.6767,22.6766866 0,151.367248 -22.6767,22.67668 -216.266459,0 -22.6766878,-22.67668 z"
     id="rect4282"
     inkscape:connector-curvature="0"
     sodipodi:nodetypes="ccccccccc" />
</svg>
