<?xml version="1.0" encoding="utf-8"?>
<!-- Generator: Adobe Illustrator 19.0.0, SVG Export Plug-In . SVG Version: 6.00 Build 0)  -->
<!DOCTYPE svg PUBLIC "-//W3C//DTD SVG 1.1//EN" "http://www.w3.org/Graphics/SVG/1.1/DTD/svg11.dtd">
<svg version="1.1" id="Layer_1" xmlns="http://www.w3.org/2000/svg" xmlns:xlink="http://www.w3.org/1999/xlink" x="0px" y="0px"
	 viewBox="0 0 72 72" enable-background="new 0 0 72 72" xml:space="preserve">
<g id="XMLID_2_">
	<rect id="XMLID_183_" x="0.5" y="0.5" fill="#0E2346" stroke="#7F849A" stroke-miterlimit="10" width="71" height="71"/>
	<g id="XMLID_141_">
		<g id="XMLID_168_">
			<path id="XMLID_180_" fill="#FFFFFF" d="M17,60c0,2.8-2.2,4.8-4.9,4.8c-2.7,0-4.9-2.1-4.9-4.7c0-2.8,2.2-4.9,4.9-4.9
				C14.9,55.2,17,57.3,17,60L17,60L17,60z M15.5,60c0-2.6-1.2-4.3-3.3-4.3c-2.3,0-3.3,2.1-3.3,4.3c0,2.6,1.2,4.3,3.3,4.3
				C14.5,64.4,15.5,62.2,15.5,60L15.5,60L15.5,60z"/>
			<path id="XMLID_177_" fill="#FFFFFF" d="M46.8,60c0,2.8-2.2,4.8-4.9,4.8c-2.7,0-4.9-2.1-4.9-4.7c0-2.8,2.2-4.9,4.9-4.9
				C44.7,55.2,46.8,57.3,46.8,60L46.8,60L46.8,60z M45.3,60c0-2.6-1.2-4.3-3.3-4.3c-2.3,0-3.3,2.1-3.3,4.3c0,2.6,1.2,4.3,3.3,4.3
				C44.2,64.4,45.3,62.2,45.3,60L45.3,60L45.3,60z"/>
			<path id="XMLID_174_" fill="#FFFFFF" d="M50.6,60.1h1.2c1.7,0,2.2-1.1,2.2-2.2c0-0.8-0.4-1.6-1.2-1.9c-0.4-0.2-0.9-0.2-1.4-0.2
				h-0.7V60.1L50.6,60.1z M52.7,61.6c-0.5-0.8-0.7-1.1-1.4-1.1h-0.7v3.1c0,0.3,0.1,0.4,0.4,0.4l1.1,0.2v0.3h-4.2v-0.3l0.9-0.2
				c0.3-0.1,0.4-0.2,0.4-0.4v-7.3c0-0.3-0.1-0.4-0.4-0.4l-0.9-0.2v-0.3H52c0.8,0,1.4,0.1,1.9,0.3c1,0.4,1.6,1.3,1.6,2.2
				c0,1.1-0.8,2.1-2.3,2.4v0.1c0.3,0.1,0.4,0.3,1.4,1.6l1.3,1.7c0.2,0.3,0.4,0.4,0.7,0.5l0.9,0.2v0.3h-2.2c-0.3,0-0.4-0.1-0.6-0.4
				L52.7,61.6L52.7,61.6z"/>
			<path id="XMLID_173_" fill="#FFFFFF" d="M34.6,58.6h0.4v3.1h-0.4l-0.2-0.9c-0.1-0.3-0.3-0.5-0.6-0.5h-2.2v3.4
				c0,0.3,0.1,0.4,0.4,0.4l1.1,0.2v0.3h-4.2v-0.3l0.9-0.2c0.3-0.1,0.4-0.2,0.4-0.4v-7.3c0-0.3-0.1-0.4-0.4-0.4l-0.9-0.2v-0.3h7v2.3
				h-0.4L35,56.3c-0.1-0.4-0.3-0.5-0.6-0.5h-2.9v4h2.2c0.3,0,0.5-0.1,0.6-0.5L34.6,58.6L34.6,58.6z"/>
			<path id="XMLID_170_" fill="#FFFFFF" d="M58.3,64.7v-0.3l0.9-0.2c0.3-0.1,0.4-0.2,0.4-0.4v-7.3c0-0.3-0.1-0.4-0.4-0.4l-0.9-0.2
				v-0.3h4.4c1.2,0,2,0.2,2.7,0.5c1.8,0.8,2.6,2.5,2.6,4.2c0,1.7-0.6,3.2-2.2,4c-0.7,0.4-1.7,0.6-3,0.6H58.3L58.3,64.7z M61,55.8v8
				c0,0.3,0.1,0.4,0.4,0.4h1.1c1.1,0,1.9-0.2,2.5-0.6c1-0.7,1.4-2,1.4-3.6c0-1.6-0.4-3.1-1.7-3.9c-0.5-0.3-1.2-0.4-2.3-0.4H61
				L61,55.8z"/>
			<path id="XMLID_169_" fill="#FFFFFF" d="M20.7,64.4v0.3h-3.3v-0.3l0.8-0.2c0.3-0.1,0.5-0.2,0.7-0.4l2.8-3.6L19,56.4
				c-0.2-0.3-0.4-0.4-0.7-0.5l-0.8-0.2v-0.3h4.1v0.3l-0.9,0.2c-0.3,0.1-0.2,0.2-0.1,0.4l2.1,3h0l2.2-3c0.2-0.2,0.2-0.3-0.1-0.3
				L24,55.7v-0.3h3.3v0.3L26.5,56c-0.3,0.1-0.5,0.2-0.7,0.4L23,59.7l3,4c0.2,0.3,0.4,0.4,0.7,0.5l0.8,0.2v0.3h-4.1v-0.3l0.9-0.2
				c0.3,0,0.3-0.2,0.1-0.4l-2.3-3.2h0l-2.3,3.2c-0.2,0.2-0.2,0.3,0.1,0.4L20.7,64.4L20.7,64.4z"/>
		</g>
		<path id="XMLID_166_" fill="#FFFFFF" d="M10.9,51c-0.3,0.2-0.6,0.4-1.2,0.4c-0.5,0-0.9-0.2-1.2-0.4c-0.4-0.4-0.4-0.9-0.4-1.5V47
			h0.5v2.8c0,0.4,0,0.7,0.3,1C9.1,50.9,9.4,51,9.8,51c0.3,0,0.6-0.1,0.7-0.3c0.3-0.3,0.3-0.6,0.3-1.4V47h0.5v2.2
			C11.3,50,11.3,50.6,10.9,51z"/>
		<path id="XMLID_164_" fill="#FFFFFF" d="M15.6,51.4l-2.1-3.6l0,3.6H13V47h0.6l2.1,3.6l0-3.6h0.5v4.4H15.6z"/>
		<path id="XMLID_162_" fill="#FFFFFF" d="M18,51.4V47h0.5v4.4H18z"/>
		<path id="XMLID_160_" fill="#FFFFFF" d="M21.8,51.4h-0.6L19.7,47h0.6l1.3,3.9l1.3-3.9h0.5L21.8,51.4z"/>
		<path id="XMLID_158_" fill="#FFFFFF" d="M24.5,51.4V47h2.4v0.4h-1.9v1.4h1.8v0.4h-1.8v1.6H27v0.5H24.5z"/>
		<path id="XMLID_155_" fill="#FFFFFF" d="M30.3,47.6c-0.2-0.3-0.6-0.2-0.9-0.2h-0.5V49h0.2c0.4,0,0.9,0,1.2-0.3
			c0.1-0.1,0.2-0.4,0.2-0.6C30.5,47.9,30.4,47.7,30.3,47.6z M30.8,51.4l-0.5-1.2c-0.3-0.7-0.5-0.8-1.1-0.8h-0.3v1.9h-0.5V47h0.9
			c0.6,0,1,0,1.4,0.3c0.2,0.2,0.3,0.5,0.3,0.9c0,0.3-0.1,0.6-0.3,0.8c-0.2,0.2-0.4,0.3-0.7,0.4c0.2,0,0.3,0.1,0.4,0.2
			c0.1,0.1,0.2,0.3,0.3,0.6l0.6,1.3H30.8z"/>
		<path id="XMLID_153_" fill="#FFFFFF" d="M36.5,51.4V47H37v4.4H36.5z"/>
		<path id="XMLID_151_" fill="#FFFFFF" d="M40.1,47.4v4h-0.5v-4h-1.3V47h3.1v0.4H40.1z"/>
		<path id="XMLID_149_" fill="#FFFFFF" d="M43.9,49.6v1.8h-0.5v-1.8L42,47h0.6l1.1,2.1l1.1-2.1h0.6L43.9,49.6z"/>
		<path id="XMLID_146_" fill="#FFFFFF" d="M50.2,47.3c-0.9,0-1.4,0.7-1.4,1.8c0,1.1,0.6,1.8,1.4,1.8c0.9,0,1.4-0.8,1.4-1.9
			C51.7,48.1,51.1,47.3,50.2,47.3z M50.2,51.5c-1.1,0-2-0.9-2-2.3c0-1.4,0.8-2.3,2-2.3c1.2,0,2,0.9,2,2.3
			C52.2,50.5,51.4,51.5,50.2,51.5z"/>
		<path id="XMLID_144_" fill="#FFFFFF" d="M54.2,47.4v1.4h1.7v0.4h-1.7v2.1h-0.5V47H56v0.4H54.2z"/>
		<path id="XMLID_142_" fill="#FFFFFF" d="M32.4,48c0-0.7,0.6-1.1,1.3-1.1c0.8,0,1.2,0.4,1.2,0.5l-0.3,0.3c-0.1-0.1-0.4-0.3-0.9-0.3
			c-0.6,0-0.9,0.3-0.9,0.7c0,0.2,0.1,0.3,0.2,0.4c0.2,0.1,0.4,0.2,0.6,0.4c0.3,0.1,0.7,0.3,1,0.6c0.2,0.2,0.3,0.4,0.3,0.8
			c0,0.7-0.5,1.3-1.4,1.3c-0.8,0-1.3-0.4-1.3-0.5l0.2-0.4c0.1,0.1,0.6,0.4,1.1,0.4c0.7,0,0.9-0.4,0.9-0.8c0-0.2-0.1-0.4-0.2-0.5
			c-0.2-0.2-0.5-0.3-0.8-0.5c-0.3-0.1-0.6-0.3-0.8-0.5C32.6,48.6,32.4,48.4,32.4,48z"/>
	</g>
	<g id="XMLID_3_">
		<path id="XMLID_140_" fill="#FFFFFF" d="M52.7,17.2c0-0.5-0.2-1-0.6-1.2c-0.2-0.1-0.6-0.2-1-0.2H48V22h3.4c0.8,0,1.2,0.2,1.3,0.9
			h0.1L52.7,17.2z"/>
		<path id="XMLID_139_" fill="#FFFFFF" d="M53.1,17.2c0-0.5,0.2-1,0.6-1.2c0.3-0.1,0.6-0.2,1-0.2h3.1V22h-3.4
			c-0.8,0-1.2,0.2-1.3,0.9h-0.1V17.2z"/>
		<path id="XMLID_138_" fill="#FFFFFF" d="M58.4,16.2c0,0,0,6.2,0,6.6c-0.4,0-4.8,0-4.8,0l-0.1,0.1c-0.1,0.2-0.2,0.4-0.8,0.4
			c-0.5,0-0.7-0.2-0.8-0.4l-0.1-0.1c0,0-4.4,0-4.8,0c0-0.4,0-6.6,0-6.6h-0.4v0.2l-0.4-0.1c0-0.2-0.2-0.3-0.4-0.3
			c-0.2,0-0.4,0.2-0.4,0.4c0,0.2,0.2,0.4,0.4,0.4c0.1,0,0.2,0,0.3-0.1l0.5,0.2v0.5l-0.4-0.1c-0.1-0.1-0.2-0.2-0.4-0.2
			c-0.2,0-0.4,0.2-0.4,0.4c0,0.2,0.2,0.4,0.4,0.4c0.1,0,0.2,0,0.3-0.1l0.5,0.1v0.5l-0.4,0c-0.1-0.1-0.2-0.2-0.3-0.2
			c-0.2,0-0.4,0.2-0.4,0.4c0,0.2,0.2,0.4,0.4,0.4c0.1,0,0.2-0.1,0.3-0.2l0.4,0v0.6l-0.4,0c-0.1-0.1-0.2-0.2-0.3-0.2
			c-0.2,0-0.4,0.2-0.4,0.4c0,0.2,0.2,0.4,0.4,0.4c0.1,0,0.3-0.1,0.3-0.2l0.4,0v0.6l-0.5,0.1c-0.1-0.1-0.2-0.1-0.3-0.1
			c-0.2,0-0.4,0.2-0.4,0.4c0,0.2,0.2,0.4,0.4,0.4c0.2,0,0.3-0.1,0.4-0.2l0.4-0.1v0.5l-0.5,0.2c-0.1-0.1-0.2-0.1-0.2-0.1
			c-0.2,0-0.4,0.2-0.4,0.4c0,0.2,0.2,0.4,0.4,0.4c0.2,0,0.3-0.1,0.4-0.3l0.4-0.1v0.5l-0.6,0.3c0,0-0.1-0.1-0.2-0.1
			c-0.2,0-0.4,0.2-0.4,0.4c0,0.2,0.2,0.4,0.4,0.4c0.2,0,0.4-0.1,0.4-0.3l0.4-0.2v0.5c0,0,4.7,0,4.9,0c0.2,0.3,0.5,0.5,1.1,0.5
			c0.5,0,0.9-0.2,1.1-0.5c0.2,0,4.9,0,4.9,0v-7H58.4z"/>
		<g id="XMLID_135_">
			<path id="XMLID_137_" fill="#FFFFFF" d="M49.6,14c-1,0-1.8,0.2-1.8,0.4c0,0.2,0.8,0.3,1.8,0.3c1,0,1.8-0.2,1.8-0.3
				C51.4,14.2,50.6,14,49.6,14z"/>
			<path id="XMLID_136_" fill="#FFFFFF" d="M52.1,11.9l-1,0.7l0,0.1l0.2,0.1c0.1,0,0.1,0.1,0,0.1l-0.6,0.5l-0.1,0l-0.5-0.7
				c0,0,0-0.1,0-0.1l0.3-0.1v-0.1l-0.8-1.1h-0.1l-0.8,1.1v0.1l0.3,0.1c0.1,0,0.1,0,0,0.1l-0.5,0.7l-0.1,0L48,12.9c0,0,0-0.1,0-0.1
				l0.2-0.1l0-0.1l-1.1-0.7l-0.1,0l0.6,1.9c0.3-0.1,1.1-0.3,1.9-0.3c0.9,0,1.6,0.1,1.9,0.3L52.1,11.9L52.1,11.9z"/>
		</g>
		<g id="XMLID_132_">
			<path id="XMLID_134_" fill="#FFFFFF" d="M52.9,27.1c-1,0-1.8,0.2-1.8,0.3c0,0.2,0.8,0.4,1.8,0.4c1,0,1.8-0.2,1.8-0.4
				C54.7,27.2,53.9,27.1,52.9,27.1z"/>
			<path id="XMLID_133_" fill="#FFFFFF" d="M55.4,24.9l-1,0.7l0,0.1l0.2,0.1c0.1,0,0.1,0.1,0,0.1l-0.6,0.6l-0.1,0l-0.5-0.7
				c0,0,0-0.1,0-0.1l0.3,0v-0.1l-0.8-1.1h-0.1L52,25.6v0.1l0.3,0c0.1,0,0.1,0.1,0,0.1l-0.5,0.7l-0.1,0l-0.6-0.6c0,0,0,0,0-0.1
				l0.2-0.1l0-0.1l-1.1-0.7l-0.1,0l0.6,1.9c0.3-0.1,1.1-0.2,1.9-0.2c0.9,0,1.6,0.1,1.9,0.2L55.4,24.9L55.4,24.9z"/>
		</g>
		<g id="XMLID_129_">
			<path id="XMLID_131_" fill="#FFFFFF" d="M56.1,14c-1,0-1.8,0.2-1.8,0.4c0,0.2,0.8,0.3,1.8,0.3c1,0,1.8-0.2,1.8-0.3
				C57.9,14.2,57.1,14,56.1,14z"/>
			<path id="XMLID_130_" fill="#FFFFFF" d="M58.6,11.9l-1,0.7l0,0.1l0.2,0.1c0.1,0,0.1,0.1,0,0.1l-0.6,0.5l-0.1,0l-0.5-0.7
				c0,0,0-0.1,0-0.1l0.3-0.1v-0.1l-0.8-1.1H56l-0.8,1.1v0.1l0.3,0.1c0.1,0,0.1,0,0,0.1l-0.5,0.7l-0.1,0l-0.6-0.6c0,0,0-0.1,0-0.1
				l0.2-0.1l0-0.1l-1.1-0.7l-0.1,0l0.6,1.9c0.3-0.1,1.1-0.3,1.9-0.3c0.9,0,1.6,0.1,1.9,0.3L58.6,11.9L58.6,11.9z"/>
		</g>
		<g id="XMLID_118_">
			<path id="XMLID_126_" fill="#1F294B" d="M48.8,16.7c0.2,0,0.3,0,0.4,0.1c0.1,0.1,0.1,0.2,0.1,0.3c0,0.3-0.3,0.5-0.6,0.5h-0.4v0
				c0.1,0,0.1,0,0.1-0.2V17c0-0.2,0-0.2-0.1-0.2v-0.1H48.8z M48.7,17.4c0,0.1,0,0.1,0.1,0.1c0.1,0,0.2-0.1,0.2-0.4
				c0-0.3-0.1-0.4-0.3-0.4c0,0-0.1,0-0.1,0c0,0,0,0,0,0.1V17.4z"/>
			<path id="XMLID_123_" fill="#1F294B" d="M50.3,17.2c0,0.3-0.2,0.5-0.5,0.5c-0.3,0-0.5-0.2-0.5-0.5c0-0.2,0.2-0.5,0.5-0.5
				C50.1,16.7,50.3,16.9,50.3,17.2z M49.7,17.2c0,0.2,0.1,0.4,0.2,0.4c0.1,0,0.2-0.1,0.2-0.4c0-0.3-0.1-0.4-0.2-0.4
				C49.7,16.8,49.7,16.9,49.7,17.2z"/>
			<path id="XMLID_121_" fill="#1F294B" d="M51.5,16.7L51.5,16.7c-0.1,0.1-0.1,0.1-0.1,0.2l0,0.5c0,0.2,0,0.2,0.1,0.2v0h-0.4v0
				c0.1,0,0.1,0,0.1-0.2l0-0.5h0l-0.3,0.7h-0.1L50.6,17h0l0,0.3c0,0.1,0,0.2,0,0.2c0,0,0,0,0.1,0.1v0h-0.3v0c0.1,0,0.1,0,0.1-0.1
				c0-0.1,0-0.1,0-0.3l0-0.3c0-0.2,0-0.2-0.1-0.2v-0.1h0.3l0.3,0.6l0.2-0.6H51.5z"/>
			<path id="XMLID_119_" fill="#1F294B" d="M52,17.4c0,0.1,0,0.2,0.1,0.2v0h-0.4v0c0.1,0,0.1,0,0.1-0.2V17c0-0.2,0-0.2-0.1-0.2v-0.1
				h0.4v0.1c-0.1,0-0.1,0-0.1,0.2V17.4z"/>
		</g>
		<g id="XMLID_111_">
			<path id="XMLID_116_" fill="#1F294B" d="M49.8,19.3h-0.1l-0.5-0.6h0v0.2c0,0.1,0,0.2,0,0.3c0,0,0.1,0,0.1,0.1v0.1h-0.3v-0.1
				c0.1,0,0.1,0,0.1-0.1c0-0.1,0-0.1,0-0.3v-0.2c0-0.1,0-0.1,0-0.2c0,0,0,0-0.1-0.1v-0.1h0.3l0.5,0.6h0v-0.2c0-0.1,0-0.2,0-0.3
				c0-0.1-0.1-0.1-0.1-0.1v-0.1h0.4v0.1c-0.1,0-0.1,0-0.1,0.1c0,0,0,0.1,0,0.3V19.3z"/>
			<path id="XMLID_114_" fill="#1F294B" d="M50.3,19.3c-0.1-0.2-0.2-0.6-0.3-0.7c0-0.1-0.1-0.1-0.1-0.1v-0.1h0.4v0.1l0,0
				c-0.1,0-0.1,0,0,0.1c0,0.1,0.1,0.4,0.2,0.5c0-0.1,0.1-0.4,0.2-0.4c0-0.1,0-0.1,0-0.1l0,0v-0.1h0.3v0.1c-0.1,0-0.1,0-0.2,0.1
				C50.7,18.6,50.5,19,50.3,19.3L50.3,19.3z"/>
			<path id="XMLID_112_" fill="#1F294B" d="M50.9,19c0,0.1,0.1,0.2,0.2,0.2c0.1,0,0.1-0.1,0.1-0.1c0-0.1-0.1-0.1-0.1-0.2l0,0
				c-0.1,0-0.2-0.1-0.2-0.3c0-0.2,0.1-0.3,0.3-0.3c0,0,0.1,0,0.1,0c0,0,0,0,0.1,0c0,0,0,0.1,0,0.2l-0.1,0c0-0.1-0.1-0.2-0.2-0.2
				c-0.1,0-0.1,0.1-0.1,0.1c0,0.1,0.1,0.1,0.1,0.1l0,0c0.1,0,0.2,0.1,0.2,0.3c0,0.2-0.1,0.3-0.4,0.3c-0.1,0-0.1,0-0.1,0
				c0,0-0.1,0-0.1,0C50.9,19.2,50.9,19.1,50.9,19L50.9,19z"/>
		</g>
		<g id="XMLID_102_">
			<path id="XMLID_109_" fill="#1F294B" d="M49.1,20.7c0,0.1,0,0.2,0.1,0.2v0.1h-0.4v-0.1c0.1,0,0.1,0,0.1-0.2v-0.5
				c0-0.1,0-0.2-0.1-0.2V20h0.4v0.1c-0.1,0-0.1,0-0.1,0.2V20.7z"/>
			<path id="XMLID_107_" fill="#1F294B" d="M49.7,20.7c0,0.1,0,0.1,0,0.1c0,0,0.1,0,0.1,0c0,0,0.1,0,0.1,0c0,0,0-0.1,0.1-0.1l0.1,0
				c0,0.1,0,0.2-0.1,0.2h-0.7v-0.1c0.1,0,0.1,0,0.1-0.2v-0.5c0-0.1,0-0.2-0.1-0.2V20h0.4v0.1c-0.1,0-0.1,0-0.1,0.2V20.7z"/>
			<path id="XMLID_105_" fill="#1F294B" d="M50.5,20.7c0,0.1,0,0.1,0,0.1c0,0,0.1,0,0.1,0c0.1,0,0.1,0,0.1,0c0,0,0.1-0.1,0.1-0.1
				l0.1,0c0,0.1,0,0.2-0.1,0.2h-0.7v-0.1c0.1,0,0.1,0,0.1-0.2v-0.5c0-0.1,0-0.2-0.1-0.2V20h0.4v0.1c-0.1,0-0.1,0-0.1,0.2V20.7z"/>
			<path id="XMLID_103_" fill="#1F294B" d="M51.1,20.9c-0.1-0.2-0.2-0.6-0.3-0.7c-0.1-0.1-0.1-0.1-0.1-0.1V20h0.4v0.1l-0.1,0
				c0,0,0,0,0,0.1c0,0.1,0.1,0.4,0.2,0.5c0-0.1,0.1-0.4,0.2-0.4c0-0.1,0-0.1,0-0.1l0,0V20h0.3v0.1c-0.1,0-0.1,0-0.2,0.1
				c0,0-0.2,0.4-0.3,0.7H51.1z"/>
		</g>
		<g id="XMLID_92_">
			<path id="XMLID_100_" fill="#1F294B" d="M54.8,16.7L54.8,16.7c-0.1,0.1-0.1,0.1-0.1,0.2l0,0.5c0,0.2,0,0.2,0.1,0.2v0h-0.4v0
				c0.1,0,0.1,0,0.1-0.2l0-0.5h0l-0.3,0.7h-0.1L53.9,17h0l0,0.3c0,0.1,0,0.2,0,0.2c0,0,0,0,0.1,0.1v0h-0.3v0c0.1,0,0.1,0,0.1-0.1
				c0-0.1,0-0.1,0-0.3l0-0.3c0-0.2,0-0.2-0.1-0.2v-0.1H54l0.2,0.6l0.2-0.6H54.8z"/>
			<path id="XMLID_98_" fill="#1F294B" d="M55.2,17.4c0,0.1,0,0.2,0.1,0.2v0h-0.4v0c0.1,0,0.1,0,0.1-0.2V17c0-0.2,0-0.2-0.1-0.2
				v-0.1h0.4v0.1c-0.1,0-0.1,0-0.1,0.2V17.4z"/>
			<path id="XMLID_96_" fill="#1F294B" d="M56.3,17.7h-0.1L55.6,17h0v0.2c0,0.1,0,0.2,0,0.3c0,0,0,0.1,0.1,0.1v0h-0.3v0
				c0.1,0,0.1,0,0.1-0.1c0-0.1,0-0.1,0-0.3V17c0-0.1,0-0.1,0-0.2c0,0-0.1,0-0.1,0v-0.1h0.3l0.5,0.6h0v-0.2c0-0.1,0-0.2,0-0.3
				c0-0.1-0.1-0.1-0.1-0.1v-0.1h0.4v0.1c-0.1,0-0.1,0-0.1,0.1c0,0,0,0.1,0,0.3V17.7z"/>
			<path id="XMLID_93_" fill="#1F294B" d="M56.8,17.6L56.8,17.6C56.9,17.6,56.9,17.6,56.8,17.6l0-0.2h-0.2l0,0.1c0,0.1,0,0.1,0,0.1
				l0,0v0h-0.3v0c0.1,0,0.1,0,0.1-0.1l0.3-0.7l0.1,0L57,17c0.1,0.2,0.1,0.3,0.2,0.5c0,0.1,0.1,0.1,0.1,0.1v0L56.8,17.6L56.8,17.6z
				 M56.7,17.3h0.2L56.8,17h0L56.7,17.3z"/>
		</g>
		<g id="XMLID_84_">
			<path id="XMLID_90_" fill="#1F294B" d="M54.8,19.1c0,0.2,0,0.2,0.1,0.2v0.1h-0.5v-0.1c0.1,0,0.1,0,0.1-0.2v-0.6h0
				c-0.1,0-0.1,0-0.2,0.1c0,0,0,0.1-0.1,0.1h-0.1c0-0.1,0-0.2,0-0.3h0c0,0,0,0,0.1,0H55c0,0,0,0,0,0h0.1c0,0.1,0,0.2,0,0.3l-0.1,0
				c0-0.1,0-0.1,0-0.1c0,0-0.1,0-0.1,0h0V19.1z"/>
			<path id="XMLID_88_" fill="#1F294B" d="M55.5,19.1c0,0.2,0,0.2,0.1,0.2v0.1h-0.4v-0.1c0.1,0,0.1,0,0.1-0.2v-0.5
				c0-0.1,0-0.2-0.1-0.2v-0.1h0.4v0.1c-0.1,0-0.1,0-0.1,0.2V19.1z"/>
			<path id="XMLID_85_" fill="#1F294B" d="M56.6,18.8c0,0.3-0.2,0.5-0.5,0.5c-0.3,0-0.5-0.2-0.5-0.5c0-0.2,0.1-0.5,0.5-0.5
				C56.5,18.4,56.6,18.6,56.6,18.8z M56,18.8c0,0.2,0.1,0.4,0.2,0.4c0.1,0,0.2-0.1,0.2-0.4c0-0.3-0.1-0.4-0.2-0.4
				C56.1,18.5,56,18.6,56,18.8z"/>
		</g>
		<g id="XMLID_76_">
			<path id="XMLID_82_" fill="#1F294B" d="M55.2,20L55.2,20c-0.1,0.1-0.1,0.1-0.1,0.2l0,0.5c0,0.2,0,0.2,0.1,0.2v0.1h-0.4v-0.1
				c0.1,0,0.1,0,0.1-0.2l0-0.5h0l-0.3,0.7h-0.1l-0.2-0.6h0l0,0.3c0,0.1,0,0.2,0,0.2c0,0.1,0,0.1,0.1,0.1v0.1h-0.3v-0.1
				c0.1,0,0.1,0,0.1-0.1c0,0,0-0.1,0-0.2l0-0.3c0-0.2,0-0.2-0.1-0.2V20h0.3l0.2,0.6l0.2-0.6H55.2z"/>
			<path id="XMLID_80_" fill="#1F294B" d="M55.4,20.3c0-0.1,0-0.2-0.1-0.2V20H56c0,0,0,0.1,0,0.2l-0.1,0c0-0.1,0-0.1,0-0.1
				c0,0-0.1,0-0.1,0h0c0,0,0,0,0,0.1v0.3h0.1c0.1,0,0.1,0,0.1-0.1h0.1v0.3h-0.1c0-0.1,0-0.1-0.1-0.1h-0.1v0.2c0,0.1,0,0.1,0,0.1
				c0,0,0.1,0,0.1,0c0.1,0,0.1,0,0.1,0c0,0,0.1-0.1,0.1-0.1l0.1,0c0,0.1,0,0.2-0.1,0.2h-0.7v-0.1c0.1,0,0.1,0,0.1-0.2V20.3z"/>
			<path id="XMLID_77_" fill="#1F294B" d="M56.5,20.9L56.5,20.9C56.6,20.9,56.6,20.9,56.5,20.9l0-0.2h-0.2l0,0.1
				c0,0.1,0,0.1,0.1,0.1l0,0v0.1H56v-0.1c0.1,0,0.1,0,0.1-0.1l0.3-0.7l0.1,0l0.1,0.3c0.1,0.2,0.1,0.3,0.2,0.5
				c0.1,0.1,0.1,0.1,0.1,0.1v0.1L56.5,20.9L56.5,20.9z M56.3,20.6h0.2l-0.1-0.3h0L56.3,20.6z"/>
		</g>
		<path id="XMLID_75_" fill="#FFFFFF" d="M51.6,32c0,0.2-0.2,0.4-0.4,0.4c-0.2,0-0.3-0.2-0.3-0.4c0-0.2,0.2-0.4,0.3-0.4
			C51.5,31.6,51.6,31.8,51.6,32z"/>
		<path id="XMLID_74_" fill="#FFFFFF" d="M55.3,32.6c0,0.2-0.2,0.4-0.4,0.4c-0.2,0-0.4-0.2-0.4-0.4c0-0.2,0.2-0.4,0.4-0.4
			C55.1,32.2,55.3,32.4,55.3,32.6z"/>
		<path id="XMLID_73_" fill="#FFFFFF" d="M41.3,12.4L41.3,12.4L41.3,12.4z"/>
		<path id="XMLID_72_" fill="#FFFFFF" d="M56.4,5.9L56.4,5.9L56.4,5.9z"/>
		<path id="XMLID_71_" fill="#FFFFFF" d="M62.2,13.1L62.2,13.1L62.2,13.1z"/>
		<path id="XMLID_70_" fill="#FFFFFF" d="M65,24.7L65,24.7L65,24.7z"/>
		<path id="XMLID_69_" fill="#FFFFFF" d="M53.2,6.7C53.2,6.8,53,7,52.9,7c-0.2,0-0.4-0.2-0.4-0.3c0-0.2,0.2-0.4,0.4-0.4
			C53,6.3,53.2,6.5,53.2,6.7z"/>
		<path id="XMLID_68_" fill="#FFFFFF" d="M61.7,10c0,0.2-0.2,0.4-0.4,0.3c-0.2,0-0.4-0.2-0.3-0.4c0-0.2,0.2-0.4,0.4-0.3
			C61.6,9.6,61.8,9.8,61.7,10z"/>
		<g id="XMLID_65_">
			<path id="XMLID_66_" fill="#FFFFFF" d="M43.8,25.4c0.1,0.2,0.2,0.4,0.2,0.6c0,0.2-0.1,0.5-0.5,0.8l-1.3,0.9l-0.2-0.3
				c0,0,1.3-0.9,1.4-1c0.2-0.2,0.3-0.3,0.3-0.5c0-0.1,0-0.2-0.1-0.4c-0.1-0.2-0.3-0.2-0.4-0.2c-0.1,0-0.3,0.1-0.5,0.3l-1.2,0.8
				L41,26.1l1.2-0.8c0.3-0.2,0.6-0.4,0.8-0.4C43.3,25,43.6,25.2,43.8,25.4z"/>
		</g>
		<g id="XMLID_62_">
			<path id="XMLID_63_" fill="#FFFFFF" d="M39.6,22.9l2.5-0.9l0.1,0.4l-1.4,1.7l1.8-0.7l0.1,0.4l-2.4,0.9l-0.1-0.4l1.4-1.7l-1.8,0.6
				L39.6,22.9z"/>
		</g>
		<g id="XMLID_59_">
			<path id="XMLID_60_" fill="#FFFFFF" d="M39.2,20.9l2.6-0.4l0,0.4l-2.6,0.4L39.2,20.9z"/>
		</g>
		<g id="XMLID_56_">
			<path id="XMLID_57_" fill="#FFFFFF" d="M39.2,17.8l0-0.4l2.6,1l0,0.4l-2.6,0.8l0-0.4l2.2-0.6L39.2,17.8z"/>
		</g>
		<path id="XMLID_53_" fill="#FFFFFF" d="M41.5,12c-0.4,0-0.5,0.2-0.8,0.6l-0.3,0.5l2.3,1.3l0.2-0.4L42,13.5l0-0.1
			c0.2-0.3,0.2-0.3,0.6-0.3l0.7,0.1l0.2-0.4l-0.9-0.1c-0.2,0-0.3,0-0.4,0c0,0-0.1,0-0.1,0.1c0-0.1,0-0.1,0-0.1c0-0.1,0-0.1,0-0.2
			c-0.1-0.2-0.2-0.3-0.3-0.4C41.8,12,41.6,12,41.5,12z M41.1,12.8c0.2-0.3,0.3-0.4,0.4-0.4c0.1,0,0.1,0,0.2,0.1
			c0.1,0.1,0.2,0.1,0.2,0.2c0,0,0,0.1,0,0.1c0,0.2-0.1,0.3-0.2,0.5l0,0.1L40.9,13L41.1,12.8z"/>
		<g id="XMLID_50_">
			<path id="XMLID_51_" fill="#FFFFFF" d="M44.4,8.3L44.7,8l1.6,2.1L46,10.4L44.4,8.3z"/>
		</g>
		<g id="XMLID_47_">
			<path id="XMLID_48_" fill="#FFFFFF" d="M45.8,7.3l1.7-0.9l0.2,0.3L47,7l1,2l-0.4,0.2l-1-2L46,7.6L45.8,7.3z"/>
		</g>
		<g id="XMLID_44_">
			<path id="XMLID_45_" fill="#FFFFFF" d="M50,5.6l0.4-0.1l-0.4,1.7l0.3,1L50,8.3l-0.3-1l-1.2-1.3l0.4-0.1l0.9,0.9L50,5.6z"/>
		</g>
		<g id="XMLID_41_">
			<path id="XMLID_42_" fill="#FFFFFF" d="M58,9.2l1.3-2.3l1.2,0.7L60.4,8l-0.9-0.5L59.1,8L60,8.5l-0.2,0.3l-0.8-0.5l-0.6,1L58,9.2z
				"/>
		</g>
		<g id="XMLID_38_">
			<path id="XMLID_39_" fill="#FFFFFF" d="M64.7,15l1-1.2l0.1,0.4l-0.7,0.8l1.1,0.2l0.1,0.4l-1.4-0.4l-1,1.2l-0.1-0.4l0.8-0.9
				L63.3,15l-0.1-0.4L64.7,15z"/>
		</g>
		<g id="XMLID_35_">
			<path id="XMLID_36_" fill="#FFFFFF" d="M63.9,17.5l2.6-0.2l0.1,1.4l-0.3,0l-0.1-1l-0.7,0.1l0.1,1l-0.4,0l-0.1-1L64,17.9
				L63.9,17.5z"/>
		</g>
		<path id="XMLID_32_" fill="#FFFFFF" d="M65.1,19.9c-0.3,0-0.6,0.1-0.8,0.2c-0.4,0.3-0.5,0.7-0.5,0.9c0,0.9,0.8,1.2,1.4,1.2
			c0.3,0,0.6-0.1,0.8-0.2c0.4-0.3,0.5-0.8,0.5-1C66.5,20.3,65.8,19.9,65.1,19.9z M65.3,21.8c-0.5,0-1.1-0.3-1.1-0.8
			c0-0.2,0.1-0.4,0.3-0.6c0.2-0.1,0.4-0.2,0.6-0.2c0.3,0,0.7,0.1,1,0.4c0.1,0.1,0.1,0.2,0.1,0.4c0,0.2-0.1,0.4-0.3,0.6
			C65.7,21.8,65.5,21.8,65.3,21.8z"/>
		<path id="XMLID_29_" fill="#FFFFFF" d="M63.6,11.2c-0.3,0-0.5,0.1-0.8,0.2c-0.5,0.3-0.7,0.8-0.7,1.1c0,0.2,0.1,0.4,0.2,0.6
			c0.3,0.4,0.7,0.6,1,0.6c0.3,0,0.5-0.1,0.8-0.3c0.3-0.2,0.7-0.6,0.7-1.1c0-0.2-0.1-0.4-0.2-0.6C64.3,11.4,64,11.2,63.6,11.2z
			 M63.2,13.3c-0.2,0-0.4-0.1-0.6-0.3c-0.1-0.1-0.1-0.2-0.1-0.4c0-0.3,0.2-0.6,0.5-0.8c0.2-0.1,0.5-0.2,0.6-0.2
			c0.3,0,0.5,0.1,0.6,0.3c0.1,0.1,0.1,0.3,0.1,0.4c0,0.3-0.2,0.6-0.5,0.8C63.6,13.2,63.4,13.3,63.2,13.3z"/>
		<path id="XMLID_26_" fill="#FFFFFF" d="M56.5,5.8c-0.6,0-1,0.4-1.2,1c0,0.1-0.1,0.3-0.1,0.4c0,0.3,0,0.5,0.2,0.7
			c0.3,0.4,0.7,0.6,1,0.6c0.2,0,0.4,0,0.5-0.1c0.4-0.3,0.7-0.8,0.7-1.3c0-0.2-0.1-0.4-0.1-0.6C57.3,6,56.9,5.8,56.5,5.8z M56.3,8.1
			c-0.2,0-0.5-0.1-0.6-0.4c-0.1-0.1-0.1-0.3-0.1-0.5c0-0.5,0.3-1.1,0.9-1.1c0.3,0,0.7,0.3,0.7,0.8C57.2,7.4,56.9,8.1,56.3,8.1z"/>
		<path id="XMLID_24_" fill="#FFFFFF" d="M42,15.3l0.4,0.1L42,16.8l-2.5-0.7l0.4-1.5l0.3,0.1l-0.3,1l0.7,0.2l0.3-1l0.3,0.1l-0.3,0.9
			l0.8,0.2L42,15.3z"/>
		<g id="XMLID_20_">
			<g id="XMLID_21_">
				<path id="XMLID_22_" fill="#FFFFFF" d="M42.7,9.8c0.4-0.4,0.7-0.4,0.7-0.4l0,0.3c0,0-0.3,0-0.5,0.3c-0.1,0.1-0.1,0.2-0.1,0.3
					c0,0.1,0,0.2,0.1,0.2c0.2,0.2,0.5,0,0.7-0.1c0.1-0.1,0.4-0.1,0.6-0.1c0.2,0,0.3,0,0.5,0.2c0.2,0.2,0.3,0.4,0.3,0.6
					c0,0.2-0.1,0.4-0.3,0.6c-0.3,0.4-0.8,0.4-0.8,0.4l-0.1-0.3c0.3-0.1,0.5-0.2,0.6-0.3c0.1-0.1,0.1-0.2,0.1-0.3
					c0-0.1,0-0.2-0.1-0.3c-0.1-0.1-0.1-0.1-0.2-0.1c-0.2,0-0.4,0.1-0.5,0.2c-0.3,0.1-0.6,0.2-0.9,0c-0.2-0.1-0.2-0.3-0.2-0.5
					C42.4,10.2,42.5,10,42.7,9.8z"/>
			</g>
		</g>
		<path id="XMLID_17_" fill="#FFFFFF" d="M63.2,23.2l1,0.4l-0.1,0.1c-0.1,0.3-0.2,0.4-0.6,0.4h-0.7l-0.2,0.4l0.9,0
			c0.2,0,0.3,0,0.4,0c0,0,0.1,0,0.1-0.1c0,0,0,0,0,0.1c0,0.1,0,0.2,0.1,0.3c0.1,0.3,0.4,0.4,0.7,0.4c0.4,0,0.6-0.3,0.8-0.7
			c0,0,0.2-0.6,0.2-0.6l-2.4-1.1L63.2,23.2z M64.8,24.8c-0.1,0-0.3-0.1-0.4-0.3c0-0.1,0-0.1,0-0.2c0-0.1,0.1-0.3,0.1-0.4l0-0.1
			l0.8,0.3l-0.1,0.2C65.1,24.7,65,24.8,64.8,24.8z"/>
		<path id="XMLID_14_" fill="#FFFFFF" d="M61.9,25.7c-0.3,0.3-0.5,0.6-0.5,1c0,0.3,0.2,0.7,0.5,1c0.3,0.2,0.6,0.3,0.8,0.3
			c0.3,0,0.6-0.1,1.1-0.7l0.4-0.5l-2-1.6L61.9,25.7z M62.8,27.7c-0.2,0-0.4-0.1-0.6-0.3c-0.2-0.2-0.4-0.4-0.4-0.7
			c0-0.2,0.1-0.4,0.3-0.7l0.2-0.2l1.5,1.2l-0.1,0.1C63.3,27.5,63.2,27.7,62.8,27.7z"/>
		<path id="XMLID_4_" fill="#FFFFFF" d="M67.8,19.1c0-8.2-6.7-14.9-14.9-14.9c-8.2,0-14.9,6.7-14.9,14.9c0,4.9,2.4,9.5,6.5,12.3
			c0.4,1.5,1.8,2.6,3.4,2.6c0.4,0,0.9-0.1,1.3-0.2c0.5,0.2,1.1,0.3,1.7,0.4c-0.2,0.5-0.4,0.9-0.6,1.3c0,0,0,0,0,0c0,0,0,0,0,0
			l0.3,0.3c0.1,0,0.2-0.1,0.3-0.1c0.3,0,0.5,0.2,0.5,0.6c0,0.3-0.2,0.6-0.5,0.6c-0.3,0-0.5-0.2-0.6-0.4c0,0-0.1,0.3-0.1,0.6
			c0,1.1,1.2,2.3,2.8,2.8c1.6-0.5,2.8-1.7,2.8-2.8c0-0.4-0.1-0.6-0.1-0.6c-0.1,0.2-0.3,0.4-0.6,0.4c-0.3,0-0.6-0.2-0.6-0.6
			c0-0.3,0.2-0.6,0.6-0.6c0.1,0,0.2,0,0.3,0.1l0.3-0.3c0,0,0,0,0,0c-0.2-0.4-0.3-0.8-0.4-1.1c2.7-0.4,5-1.5,6.8-3.4l0,0
			C65.7,28.1,67.8,23.8,67.8,19.1z M47.8,33.6c-1.7,0-3.1-1.4-3.1-3.1c0-0.5,0.1-1,0.4-1.5c0.2,0.1,0.3,0.3,0.5,0.4
			c-0.2,0.3-0.3,0.7-0.3,1c0,0.9,0.5,1.7,1.4,2.2c0.5,0.3,1.1,0.6,1.7,0.8C48.2,33.6,48.1,33.6,47.8,33.6z M52.9,29.1
			c-0.6,0-1.3-0.1-1.9-0.2c-0.6-1.2-1.8-1.9-3.1-1.9c-0.3,0-0.6,0.1-0.9,0.1c-2.5-1.9-4.1-4.9-4.1-8c0-5.5,4.5-10,10-10
			c5.5,0,10,4.5,10,10C62.9,24.6,58.4,29.1,52.9,29.1z M55.1,29.3c-0.3,0.4-0.5,1-0.5,1.6c-0.9-0.2-1.8-0.6-2.6-0.9
			c0.1-0.3,0.6-0.5,0.9-0.5C53.6,29.5,54.4,29.5,55.1,29.3z M51.9,29.5c-0.1,0.1-0.2,0.2-0.3,0.3c-0.4-0.2-0.8-0.4-1.2-0.6
			C50.9,29.3,51.5,29.5,51.9,29.5z M47.8,27.4c1,0,2,0.5,2.6,1.4c-0.5-0.1-1-0.3-1.4-0.5l0,0l0,0c-0.3-0.2-0.7-0.2-1.1-0.2
			c-0.8,0-1.5,0.4-2,1c-0.2-0.1-0.4-0.2-0.6-0.3C45.9,28,46.8,27.4,47.8,27.4z M54.9,35.3c-0.5,0-1,0.4-1,1c0,0.6,0.5,1,1,1
			c0.1,0,0.2,0,0.2,0c-0.1,0.8-1.1,1.8-2.3,2.2c-1.2-0.4-2.2-1.3-2.3-2.2c0.1,0,0.2,0,0.3,0c0.6,0,1-0.4,1-1c0-0.6-0.4-1-1-1
			c0.2-0.3,0.3-0.6,0.5-1c0.7,0.1,1.4,0.2,2,0.2c0.5,0,1,0,1.5-0.1C54.8,34.7,54.9,35,54.9,35.3C55,35.3,55,35.3,54.9,35.3z
			 M53.2,34.1c-2,0-4.5-0.7-6.2-1.7c-0.5-0.3-1.1-0.9-1.1-1.9c0-0.3,0.1-0.5,0.1-0.7c0.7,0.5,1.3,1,1.7,1.3c0.1,0,0.2,0.1,0.3,0.1
			c0.3,0,0.5-0.2,0.5-0.5c0-0.2-0.1-0.4-0.3-0.5c-0.4-0.2-1.1-0.5-1.9-0.9c0.4-0.5,0.9-0.8,1.6-0.8c0.3,0,0.6,0.1,0.9,0.2l0.5,0.3
			c1.7,1.1,6.2,3.8,11.7,2.3C58.9,33.2,56.4,34.1,53.2,34.1z M61.6,30.7c-2.4,0.9-4.7,0.8-6.6,0.4c0.1-0.9,0.4-1.8,1-2
			c4.3-1.3,7.4-5.3,7.4-10c0-5.8-4.7-10.4-10.4-10.4c-5.8,0-10.5,4.7-10.5,10.4c0,3.2,1.5,6.2,4,8.2c-0.6,0.3-1.1,0.7-1.5,1.2
			c-0.2-0.1-0.4-0.3-0.5-0.4l-0.1,0.1c0.1,0.1,0.3,0.3,0.5,0.5c-0.3,0.5-0.5,1.1-0.5,1.8c0,0.1,0,0.2,0,0.3c-3.7-2.7-6-7.1-6-11.7
			c0-8,6.5-14.5,14.5-14.5c8,0,14.5,6.5,14.5,14.5C67.4,23.7,65.3,27.9,61.6,30.7z"/>
	</g>
</g>
<g id="XMLID_196_">
</g>
<g id="XMLID_197_">
</g>
<g id="XMLID_198_">
</g>
<g id="XMLID_199_">
</g>
<g id="XMLID_200_">
</g>
<g id="XMLID_201_">
</g>
</svg>
